<svg xmlns="http://www.w3.org/2000/svg" version="1.1" xmlns:xlink="http://www.w3.org/1999/xlink" width="512" height="512" x="0" y="0" viewBox="0 0 512 512" style="enable-background:new 0 0 512 512" xml:space="preserve" class=""><g><circle cx="116.88" cy="389.21" r="48.05" transform="rotate(-16.86 116.711 388.926)" fill="#a890cf" opacity="1" data-original="#000000"></circle><circle cx="392.44" cy="389.21" r="48.05" fill="#a890cf" opacity="1" data-original="#000000"></circle><path d="M505.25 229.85a538 538 0 0 0-48.09-70.7A90.89 90.89 0 0 0 388 125.41c-16-.26-31.77-.41-43.62-.41h-.12a59.46 59.46 0 0 0-53.08-47.64c-17.25-1.52-84.9-2.62-117.3-2.62s-100 1.1-117.3 2.62a59.46 59.46 0 0 0-54 54C1.1 148.61 0 197.42 0 229.81S1.1 311 2.63 328.26a59.47 59.47 0 0 0 41.69 51.58 73.16 73.16 0 0 1 145.6 5c21.7-.16 49.87-.61 71.63-1.24 17.35.54 38.92.94 57.86 1.15a73.17 73.17 0 0 1 145.69-4.15 59.44 59.44 0 0 0 44.33-52.32c1.32-14.88 2.32-43.9 2.57-72.39a51.79 51.79 0 0 0-6.75-26.04zm-48.69 15.32H347.78c0-5.38.07-10.55.07-15.36 0-22.32-.53-52.44-1.35-74.65 11.39 0 26.19.16 41.05.4a60.61 60.61 0 0 1 46.17 22.57 498.39 498.39 0 0 1 33.73 47.32 12.86 12.86 0 0 1-10.89 19.72z" fill="#a890cf" opacity="1" data-original="#000000"></path></g></svg>