<?xml version="1.0" standalone="no"?>
<!DOCTYPE svg PUBLIC "-//W3C//DTD SVG 20010904//EN"
 "http://www.w3.org/TR/2001/REC-SVG-20010904/DTD/svg10.dtd">
<svg version="1.0" xmlns="http://www.w3.org/2000/svg"
 width="512.000000pt" height="512.000000pt" viewBox="0 0 512.000000 512.000000"
 preserveAspectRatio="xMidYMid meet">
<metadata>
Created by potrace 1.16, written by Peter Selinger 2001-2019
</metadata>
<g transform="translate(0.000000,512.000000) scale(0.100000,-0.100000)"
fill="#000000" stroke="none">
<path d="M395 4420 c-176 -28 -317 -147 -376 -318 -18 -53 -19 -105 -19 -1384
l0 -1328 229 0 229 0 7 -68 c17 -161 86 -303 205 -422 120 -120 241 -178 410
-199 305 -38 588 120 720 402 34 72 47 123 66 255 l5 32 689 0 689 0 5 -32
c26 -183 66 -287 151 -399 144 -186 394 -288 635 -258 169 21 290 79 410 199
119 119 188 261 205 422 l7 68 229 0 229 0 0 590 0 590 -347 465 -348 464
-347 1 -348 0 0 465 0 465 -1642 -1 c-904 -1 -1665 -5 -1693 -9z m4122 -1557
c120 -152 222 -283 226 -290 7 -11 -83 -13 -503 -13 l-510 0 0 290 0 290 284
0 285 0 218 -277z m-3213 -1156 c76 -35 148 -111 176 -184 26 -68 30 -168 10
-228 -33 -101 -124 -192 -225 -225 -60 -20 -160 -16 -228 10 -73 28 -149 100
-185 177 -38 82 -38 193 -1 273 84 179 280 256 453 177z m2800 -6 c75 -37 128
-91 165 -170 38 -81 37 -192 -1 -274 -57 -122 -175 -199 -308 -200 -78 -1
-128 14 -197 60 -90 59 -146 167 -147 278 0 255 261 418 488 306z"/>
</g>
</svg>
