<svg xmlns="http://www.w3.org/2000/svg" version="1.1" xmlns:xlink="http://www.w3.org/1999/xlink" width="512" height="512" x="0" y="0" viewBox="0 0 24 24" style="enable-background:new 0 0 512 512" xml:space="preserve" class=""><g><path d="m22.669 10.257-10-9a1 1 0 0 0-1.338 0l-10 9a1 1 0 0 0 1.338 1.486L12 3.345l9.331 8.4a1 1 0 0 0 1.338-1.486ZM20 13a1 1 0 0 0-1 1v5.774A1.227 1.227 0 0 1 17.774 21H6.226A1.227 1.227 0 0 1 5 19.774V14a1 1 0 0 0-2 0v5.774A3.229 3.229 0 0 0 6.226 23h11.548A3.229 3.229 0 0 0 21 19.774V14a1 1 0 0 0-1-1Z" fill="#000000" opacity="1" data-original="#000000"></path></g></svg>