<svg xmlns="http://www.w3.org/2000/svg" version="1.1" xmlns:xlink="http://www.w3.org/1999/xlink" width="512" height="512" x="0" y="0" viewBox="0 0 500 500" style="enable-background:new 0 0 512 512" xml:space="preserve" class=""><g><path fill-rule="evenodd" d="M339.784 368.431V56.685c0-7.122-5.851-12.973-12.973-12.973H173.188c-7.122 0-12.973 5.85-12.973 12.973v311.746c0 7.122 5.851 12.973 12.973 12.973h153.623c7.122-.001 12.973-5.851 12.973-12.973zm-72.434 26.07h-34.7a.874.874 0 0 0-.873.873v54.3c0 3.637 2.976 6.613 6.614 6.613h23.219c3.638 0 6.614-2.976 6.614-6.613v-54.3a.876.876 0 0 0-.874-.873zm87.049-263.065c16.579-18.097 38.937-29.856 63.782-31.673a7.28 7.28 0 0 0 6.76-7.271v-23.73c0-4.016-3.275-7.292-7.292-7.292h-63.894a.874.874 0 0 0-.873.873v68.503c0 .367.214.68.556.813a.856.856 0 0 0 .961-.223zm0 105.998c16.579-18.097 38.937-29.856 63.782-31.673a7.28 7.28 0 0 0 6.76-7.271v-23.73c0-4.016-3.275-7.292-7.292-7.292h-63.894a.874.874 0 0 0-.873.873v68.503c0 .367.214.68.556.813a.858.858 0 0 0 .961-.223zm-1.517 36.904v68.503c0 .367.214.68.556.813s.712.047.96-.224c16.579-18.097 38.937-29.856 63.782-31.673a7.28 7.28 0 0 0 6.76-7.271v-23.73c0-4.016-3.275-7.292-7.292-7.292h-63.894a.876.876 0 0 0-.872.874zm-206.637-.873H82.351c-4.016 0-7.292 3.276-7.292 7.292v23.73a7.279 7.279 0 0 0 6.76 7.271c24.844 1.817 47.202 13.576 63.782 31.673.248.271.618.357.96.224s.556-.446.556-.813v-68.503a.873.873 0 0 0-.872-.874zm0-105.997H82.351c-4.016 0-7.292 3.275-7.292 7.292v23.73a7.279 7.279 0 0 0 6.76 7.271c24.844 1.817 47.202 13.576 63.782 31.673.248.271.618.357.96.224s.556-.446.556-.813v-68.503a.873.873 0 0 0-.872-.874zm.873-36.621V62.344a.874.874 0 0 0-.873-.873H82.351c-4.016 0-7.292 3.275-7.292 7.292v23.73a7.279 7.279 0 0 0 6.76 7.271c24.844 1.817 47.202 13.576 63.782 31.673a.859.859 0 0 0 .96.224.86.86 0 0 0 .557-.814zM250 146.5c-20.128 0-36.446-16.317-36.446-36.446 0-20.128 16.317-36.446 36.446-36.446 20.128 0 36.446 16.317 36.446 36.446-.001 20.129-16.318 36.446-36.446 36.446zm-36.446 66.058c0-20.128 16.317-36.446 36.446-36.446 20.128 0 36.446 16.317 36.446 36.446 0 20.128-16.317 36.446-36.446 36.446-20.128-.001-36.446-16.318-36.446-36.446zM250 278.615c20.128 0 36.446 16.317 36.446 36.446 0 20.128-16.317 36.446-36.446 36.446-20.128 0-36.446-16.317-36.446-36.446 0-20.128 16.318-36.446 36.446-36.446z" clip-rule="evenodd" fill="#efae24" opacity="1" data-original="#000000" class=""></path></g></svg>