<svg xmlns="http://www.w3.org/2000/svg" version="1.1" xmlns:xlink="http://www.w3.org/1999/xlink" width="512" height="512" x="0" y="0" viewBox="0 0 24 24" style="enable-background:new 0 0 512 512" xml:space="preserve" class=""><g><path d="M16 9.25c-3.17 0-5.75 2.58-5.75 5.75s2.58 5.75 5.75 5.75 5.75-2.58 5.75-5.75S19.17 9.25 16 9.25zm2.416 5.374-3 2a.754.754 0 0 1-.947-.094l-1-1a.75.75 0 1 1 1.061-1.061l.565.565 2.488-1.659a.75.75 0 1 1 .832 1.248zM9.75 3.25V6c0 .14.11.25.25.25h3c.14 0 .25-.11.25-.25V3.25zm7.25 0h-2.25V6c0 .96-.79 1.75-1.75 1.75h-3c-.96 0-1.75-.79-1.75-1.75V3.25H6C4.48 3.25 3.25 4.48 3.25 6v12c0 1.52 1.23 2.75 2.75 2.75h5.6A7.228 7.228 0 0 1 8.75 15c0-4 3.25-7.25 7.25-7.25 1.38 0 2.66.38 3.75 1.06V6c0-1.52-1.23-2.75-2.75-2.75z" fill="#e46e67" opacity="1" data-original="#000000" class=""></path></g></svg>