<svg xmlns="http://www.w3.org/2000/svg" version="1.1" xmlns:xlink="http://www.w3.org/1999/xlink" width="512" height="512" x="0" y="0" viewBox="0 0 512 512" style="enable-background:new 0 0 512 512" xml:space="preserve" class=""><g><path fill-rule="evenodd" d="M417.005 69.439c11.517 0 20.91 9.393 20.91 20.91V475.09c0 11.516-9.393 20.91-20.91 20.91H94.995c-11.517 0-20.91-9.393-20.91-20.91V90.349c0-11.516 9.393-20.91 20.91-20.91h44.349v22.845c0 17.728 14.412 32.139 32.14 32.139h169.034c17.727 0 32.14-14.412 32.14-32.139V69.439zM261.381 314.975h98.776c6.265 0 11.344-5.079 11.344-11.344s-5.079-11.344-11.344-11.344h-98.776c-6.265 0-11.344 5.079-11.344 11.344s5.079 11.344 11.344 11.344zm0 99.427h98.776c6.265 0 11.344-5.079 11.344-11.344s-5.079-11.344-11.344-11.344h-98.776c-6.265 0-11.344 5.079-11.344 11.344 0 6.266 5.079 11.344 11.344 11.344zm0-198.855h98.776c6.265 0 11.344-5.079 11.344-11.344s-5.079-11.344-11.344-11.344h-98.776c-6.265 0-11.344 5.079-11.344 11.344 0 6.266 5.079 11.344 11.344 11.344zm-122.719-1.566 17.212 17.211c4.429 4.429 11.611 4.429 16.04 0l.062-.064 41.343-37.519c4.625-4.209 4.962-11.371.753-15.996s-11.371-4.962-15.996-.753l-33.79 30.665-9.584-9.584c-4.429-4.429-11.611-4.429-16.041 0-4.428 4.429-4.428 11.611.001 16.04zm0 198.855 17.212 17.211c4.429 4.429 11.611 4.429 16.04 0l.062-.064 41.343-37.519c4.625-4.209 4.962-11.371.753-15.996s-11.371-4.962-15.996-.753l-33.79 30.665-9.584-9.584c-4.429-4.429-11.611-4.429-16.041 0-4.428 4.429-4.428 11.611.001 16.04zm0-99.427 17.212 17.211c4.429 4.429 11.611 4.429 16.04 0l.062-.064 41.343-37.519c4.625-4.209 4.962-11.371.753-15.996s-11.371-4.962-15.996-.754l-33.79 30.665-9.584-9.584c-4.429-4.429-11.611-4.429-16.041 0-4.428 4.429-4.428 11.611.001 16.041zM171.483 47.73c-5.206 0-9.453 4.246-9.453 9.453v35.101c0 5.206 4.247 9.452 9.453 9.452h169.034c5.206 0 9.453-4.247 9.453-9.452V57.182c0-5.206-4.246-9.453-9.453-9.453h-44.182C291.944 29.525 275.553 16 256 16s-35.944 13.525-40.335 31.73z" clip-rule="evenodd" fill="#e46e67" opacity="1" data-original="#000000" class=""></path></g></svg>