<svg xmlns="http://www.w3.org/2000/svg" version="1.1" xmlns:xlink="http://www.w3.org/1999/xlink" width="512" height="512" x="0" y="0" viewBox="0 0 32 32" style="enable-background:new 0 0 512 512" xml:space="preserve" class=""><g><path d="M24.74 5.07h-.71v-.7c0-1.56-1.26-2.82-2.81-2.82H4.69c-1.56 0-2.82 1.26-2.82 2.82V23.3c0 1.56 1.26 2.82 2.82 2.82h.7v.7a2.83 2.83 0 0 0 2.82 2.82h11.249a6.955 6.955 0 0 1-1.815-4.683 7 7 0 0 1 6.993-6.993c1.044 0 2.032.236 2.923.649V7.89a2.83 2.83 0 0 0-2.82-2.82zM7.19 11.117v-.497c0-.134.058-.271.147-.365l3.219-3.229a.53.53 0 0 1 .374-.156h.504v3.234c0 .558-.455 1.013-1.013 1.013zm9.135 11.258h-4.82a.9.9 0 0 1 0-1.8h4.82a.9.9 0 0 1 0 1.8zM19.93 18.2h-8.42a.9.9 0 0 1 0-1.8h8.42a.9.9 0 0 1 0 1.8zm2.305-13.13H10.93c-.621 0-1.206.243-1.647.685L6.052 8.996a2.333 2.333 0 0 0-.662 1.624v13.699h-.705c-.56 0-1.016-.456-1.016-1.016V4.366c0-.55.465-1.016 1.016-1.016H21.22c.56 0 1.015.456 1.015 1.016z" fill="#c789ac" opacity="1" data-original="#000000" class=""></path><path d="M24.637 19.464a5.493 5.493 0 1 0 0 10.985 5.493 5.493 0 0 0 0-10.985zm2.432 5.258-2.682 2.161a.897.897 0 0 1-1.272-.146l-1.054-1.344a.9.9 0 0 1 1.417-1.111l.491.626 1.972-1.588a.9.9 0 1 1 1.128 1.402z" fill="#c789ac" opacity="1" data-original="#000000" class=""></path></g></svg>