<svg xmlns="http://www.w3.org/2000/svg" version="1.1" xmlns:xlink="http://www.w3.org/1999/xlink" width="512" height="512" x="0" y="0" viewBox="0 0 100 100" style="enable-background:new 0 0 512 512" xml:space="preserve" class=""><g><path d="M50 8C35.259 8 23.308 19.95 23.308 34.692c0 15.48 19.479 35.258 25.157 40.694a2.209 2.209 0 0 0 3.071 0c5.677-5.436 25.157-25.214 25.157-40.694C76.692 19.95 64.741 8 50 8zm0 35.692c-4.971 0-9-4.029-9-9s4.029-9 9-9 9 4.029 9 9-4.029 9-9 9z" fill="#aeba4b" opacity="1" data-original="#000000" class=""></path><path d="M65.042 67.589a139.014 139.014 0 0 1-4.129 4.664c2.756 1.233 4.463 2.928 4.463 4.801 0 3.767-6.884 6.821-15.375 6.821s-15.375-3.054-15.375-6.821c0-1.873 1.707-3.568 4.463-4.801a138.03 138.03 0 0 1-4.129-4.664c-8.214 2.322-13.708 6.473-13.708 11.223C21.25 86.096 34.122 92 50 92s28.75-5.904 28.75-13.188c0-4.75-5.494-8.901-13.708-11.223z" fill="#aeba4b" opacity="1" data-original="#000000" class=""></path></g></svg>