<svg xmlns="http://www.w3.org/2000/svg" version="1.1" xmlns:xlink="http://www.w3.org/1999/xlink" width="512" height="512" x="0" y="0" viewBox="0 0 32 32" style="enable-background:new 0 0 512 512" xml:space="preserve" class=""><g><path d="m29.89 15.72-1.96-1.3c-.41-.27-.89-.42-1.39-.42h-7.05a2.5 2.5 0 0 0-2.5 2.5v12a2.5 2.5 0 0 0 2.5 2.5h9a2.5 2.5 0 0 0 2.5-2.5V17.8a2.5 2.5 0 0 0-1.11-2.08zM21.5 18h2c.55 0 1 .45 1 1s-.45 1-1 1h-2c-.55 0-1-.45-1-1s.45-1 1-1zm5 9h-5c-.55 0-1-.45-1-1s.45-1 1-1h5c.55 0 1 .45 1 1s-.45 1-1 1zm0-3.5h-5c-.55 0-1-.45-1-1s.45-1 1-1h5c.55 0 1 .45 1 1s-.45 1-1 1zM8 11c-3.13 0-5.67-1.15-7-2.97V9c0 2.28 3.01 4 7 4s7-1.72 7-4v-.97C13.67 9.85 11.13 11 8 11z" fill="#538ec9" opacity="1" data-original="#000000" class=""></path><path d="M8 15c-3.13 0-5.67-1.15-7-2.97V13c0 2.28 3.01 4 7 4s7-1.72 7-4v-.97C13.67 13.85 11.13 15 8 15z" fill="#538ec9" opacity="1" data-original="#000000" class=""></path><ellipse cx="8" cy="5" rx="7" ry="4" fill="#538ec9" opacity="1" data-original="#000000" class=""></ellipse><path d="M10.29 23.46c.2.2.45.29.71.29s.51-.1.71-.29a.996.996 0 0 0 0-1.41l-2.5-2.5a.996.996 0 0 0-1.41 0l-2.5 2.5a.996.996 0 1 0 1.41 1.41l1.79-1.79z" fill="#538ec9" opacity="1" data-original="#000000" class=""></path><path d="M12.5 26.5H10c-.28 0-.5-.22-.5-.5v-1.34l-1-1-1 1V26a2.5 2.5 0 0 0 2.5 2.5h2.5c.55 0 1-.45 1-1s-.45-1-1-1zM21.71 8.54c-.2-.2-.45-.29-.71-.29s-.51.1-.71.29a.996.996 0 0 0 0 1.41l2.5 2.5c.39.39 1.02.39 1.41 0l2.5-2.5a.996.996 0 1 0-1.41-1.41l-1.79 1.79z" fill="#538ec9" opacity="1" data-original="#000000" class=""></path><path d="M19.5 5.5H22c.28 0 .5.22.5.5v1.34l1 1 1-1V6A2.5 2.5 0 0 0 22 3.5h-2.5c-.55 0-1 .45-1 1s.45 1 1 1z" fill="#538ec9" opacity="1" data-original="#000000" class=""></path></g></svg>