<svg xmlns="http://www.w3.org/2000/svg" version="1.1" xmlns:xlink="http://www.w3.org/1999/xlink" width="512" height="512" x="0" y="0" viewBox="0 0 24 24" style="enable-background:new 0 0 512 512" xml:space="preserve" class=""><g><path d="m22.74 11.39-1.44 7.2A3 3 0 0 1 18.36 21H4a3 3 0 0 1-3-3V6a3 3 0 0 1 3-3h4a1 1 0 0 1 .55.17L11.3 5H17a3 3 0 0 1 3 3h-2a1 1 0 0 0-1-1h-6a1 1 0 0 1-.55-.17L7.7 5H4a1 1 0 0 0-1 1v12a1 1 0 0 0 1 1h.18l1.52-7.59A3 3 0 0 1 8.64 9h12.14a2 2 0 0 1 1.55.73 2 2 0 0 1 .41 1.66z" data-name="46 Open File, Document, Folder" fill="#88b262" opacity="1" data-original="#000000" class=""></path></g></svg>