<svg xmlns="http://www.w3.org/2000/svg" version="1.1" xmlns:xlink="http://www.w3.org/1999/xlink" width="512" height="512" x="0" y="0" viewBox="0 0 24 24" style="enable-background:new 0 0 512 512" xml:space="preserve" class=""><g><g data-name="Layer 2"><path d="M4 1.25A2.75 2.75 0 0 0 1.25 4v7.5a1.25 1.25 0 0 0 1.25 1.25H6a.76.76 0 0 0 .75-.75V4A2.75 2.75 0 0 0 4 1.25zm1.25 10h-2.5V4a1.24 1.24 0 0 1 .86-1.18A1 1 0 0 1 4 2.75 1.25 1.25 0 0 1 5.25 4z" fill="#e17d96" opacity="1" data-original="#000000" class=""></path><path d="M15 1.25H4a.76.76 0 0 0-.65.37.77.77 0 0 0 0 .75l.26.45A1 1 0 0 1 4 2.75 1.25 1.25 0 0 1 5.25 4v16.78a1.76 1.76 0 0 0 2.59 1.54l.29-.17a2.21 2.21 0 0 1 1.37-.42 2.19 2.19 0 0 1 1.37.42 3.8 3.8 0 0 0 2.14.62 3.7 3.7 0 0 0 2.13-.63 2.45 2.45 0 0 1 2.73 0l.29.17a1.75 1.75 0 0 0 1.73 0 1.73 1.73 0 0 0 .86-1.5V7A5.76 5.76 0 0 0 15 1.25zm-1.5 14h-4a.75.75 0 0 1 0-1.5h4a.75.75 0 0 1 0 1.5zm3-3.5h-7a.75.75 0 0 1 0-1.5h7a.75.75 0 0 1 0 1.5zm0-3.5h-7a.75.75 0 0 1 0-1.5h7a.75.75 0 0 1 0 1.5z" fill="#e17d96" opacity="1" data-original="#000000" class=""></path></g></g></svg>