<svg xmlns="http://www.w3.org/2000/svg" version="1.1" xmlns:xlink="http://www.w3.org/1999/xlink" width="512" height="512" x="0" y="0" viewBox="0 0 64 64" style="enable-background:new 0 0 512 512" xml:space="preserve" class=""><g><path d="M57 54H7a3 3 0 0 0 0 6h50a3 3 0 0 0 0-6zM7 10h22v3.81a5.96 5.96 0 0 1 6 0V10h22a3 3 0 0 0 0-6H7a3 3 0 0 0 0 6zM23 52h18a3.009 3.009 0 0 0 3-3V31a3.009 3.009 0 0 0-3-3h-8v3.14a1 1 0 0 1-2 0V28h-8a3.009 3.009 0 0 0-3 3v18a3.009 3.009 0 0 0 3 3zm6.5-6.29h5a1 1 0 0 1 0 2h-5a1 1 0 1 1 0-2z" fill="#767dcb" opacity="1" data-original="#000000" class=""></path><path d="m26.01 19.3-9.29 3.83A5.984 5.984 0 0 0 13 28.68V32a2 2 0 0 0 4 0v-3.32a2.003 2.003 0 0 1 1.24-1.85l9.3-3.83a5.888 5.888 0 0 1-1.53-3.7zM49 34a2.006 2.006 0 0 0 2-2v-3.32a5.984 5.984 0 0 0-3.72-5.55l-9.29-3.83a5.888 5.888 0 0 1-1.53 3.7l9.3 3.83A2.003 2.003 0 0 1 47 28.68V32a2.006 2.006 0 0 0 2 2z" fill="#767dcb" opacity="1" data-original="#000000" class=""></path><circle cx="32" cy="19" r="4" fill="#767dcb" opacity="1" data-original="#000000" class=""></circle></g></svg>