<svg xmlns="http://www.w3.org/2000/svg" version="1.1" xmlns:xlink="http://www.w3.org/1999/xlink" width="512" height="512" x="0" y="0" viewBox="0 0 32 32" style="enable-background:new 0 0 512 512" xml:space="preserve" class=""><g><path d="M13 13h4v5h-4zM30.85 18.47A.999.999 0 0 0 30 18h-6c-.27 0-.52.11-.71.29L21.58 20H2c-.55 0-1 .45-1 1v4c0 1.65 1.35 3 3 3h20.76c1.14 0 2.17-.64 2.68-1.66l3.45-6.89c.15-.31.14-.68-.04-.97zM14.5 5c0-.55-.45-1-1-1h-2v7h3zM11 13H3v5h8zm-2.75 3.5h-.5c-.55 0-1-.45-1-1s.45-1 1-1h.5c.55 0 1 .45 1 1s-.45 1-1 1zM9.5 7.01c-.11 0-.21.01-.32.05l-3 1a1 1 0 0 0-.68.95v2h4V7.02z" fill="#50afc3" opacity="1" data-original="#000000" class=""></path></g></svg>