<svg xmlns="http://www.w3.org/2000/svg" width="128" height="26.32" viewBox="0 0 128 26.32"><g id="Layer_2" data-name="Layer 2"><g id="Layer_2-2" data-name="Layer 2"><path d="M26.84,13.43a13.36,13.36,0,0,1-4.42,10h0a2.92,2.92,0,0,1-1.71.1c-.32-.08-3.08-.9-3.5-1a2.37,2.37,0,0,0-2.19.1c-1.63,1.06-2.21,1.5-4.34,3l-1,.71a12.72,12.72,0,0,1-3-1.31A27.52,27.52,0,0,0,12,21.41a51,51,0,0,0,6.07-5.93,9.53,9.53,0,0,1,5.11-2.67,28.76,28.76,0,0,1,3.62-.59C26.82,12.61,26.84,13,26.84,13.43Z" fill="#f0ae8d"/><path d="M26.48,10.35c-.71.1-1.51.2-2.15.3a13.4,13.4,0,0,0-6,2.06A18.78,18.78,0,0,0,15.86,15a51.28,51.28,0,0,1-9.15,7.68c-.78.48-1.5.84-1.91,1A13.34,13.34,0,0,1,0,13.43a4.35,4.35,0,0,1,0-.52l1.75.32A16.05,16.05,0,0,0,15.66,9.31c.93-.79,1.93-1.53,2.8-2.39A14.58,14.58,0,0,1,22.94,4,13.22,13.22,0,0,1,26.48,10.35Z" fill="#f09264"/><path d="M21.65,2.81c-.28.11-.56.25-.84.37A21.37,21.37,0,0,0,15.56,7,17.33,17.33,0,0,1,9.41,10.8c-3,1-5.13.94-9.17.06a13.44,13.44,0,0,1,21.41-8Z" fill="#f07e46"/><polygon points="38.04 9.25 44.05 2.85 41.07 2.85 36.27 7.84 36.27 11.16 36.29 11.16 41.33 17.15 44.43 17.15 38.04 9.25" fill="#f07e46"/><rect x="32.61" y="2.87" width="2.67" height="14.31" transform="translate(-0.01 0.04) rotate(-0.06)" fill="#f07e46"/><path d="M54.28,12.46a2.07,2.07,0,0,0,.2-.08,4.72,4.72,0,0,0,2.09-1.73,5,5,0,0,0,.73-2.71,4.89,4.89,0,0,0-.73-2.73,4.74,4.74,0,0,0-2.09-1.75,8,8,0,0,0-3.26-.61H45.33l0,14.3H48L48,5.09H51.1a4,4,0,0,1,2.64.74,2.58,2.58,0,0,1,.9,2.11,2.64,2.64,0,0,1-.9,2.11,4,4,0,0,1-2.64.75H49V13h2.21a5,5,0,0,0,.55,0l2.93,4.18h2.86l-3.28-4.69Z" fill="#f07e46"/><path d="M95.35,12.42a2.07,2.07,0,0,0,.2-.08,4.72,4.72,0,0,0,2.09-1.73,5.05,5.05,0,0,0,.73-2.71,5,5,0,0,0-.73-2.73,4.74,4.74,0,0,0-2.09-1.75,8,8,0,0,0-3.27-.61H86.39l0,14.3h2.67l0-12.06h3.1a4,4,0,0,1,2.65.74,2.58,2.58,0,0,1,.9,2.11,2.64,2.64,0,0,1-.9,2.11,4,4,0,0,1-2.65.75H89.82V13h2.46a5.06,5.06,0,0,0,.56,0l2.93,4.18h2.86l-3.28-4.69Z" fill="#f07e46"/><polygon points="69.36 14.9 69.36 17.13 58.64 17.13 58.62 2.83 69.06 2.83 69.06 5.05 61.28 5.05 61.28 8.78 68.19 8.78 68.19 10.96 61.28 10.96 61.28 14.9 69.36 14.9" fill="#f07e46"/><path d="M75.55,13.81h6.07l1.43,3.3h2.79L79.37,2.81H76.76l-6.42,14.3H73l1.42-3.32.89-2.09L78,5.45l2.68,6.27H76.43l-.88,2.09Z" fill="#f07e46"/><path d="M114.63,12.79A4.15,4.15,0,0,1,114,15a4.4,4.4,0,0,1-1.87,1.65,7.3,7.3,0,0,1-3.18.64,9.76,9.76,0,0,1-2.95-.44,7.42,7.42,0,0,1-2.42-1.21l1.13-2.07a6.07,6.07,0,0,0,1.89,1,6.91,6.91,0,0,0,2.31.38,3.89,3.89,0,0,0,2.23-.57,1.88,1.88,0,0,0,.79-1.6,1.83,1.83,0,0,0-.73-1.55,3.91,3.91,0,0,0-2.37-.58h-1.31V8.87L110.77,5h-6.49V2.79l9.75,0V4.54l-3.46,4.14a5,5,0,0,1,2.75,1.09,3.91,3.91,0,0,1,1.31,3Z" fill="#f07e46"/><path d="M127,6.15a6.84,6.84,0,0,0-2.75-2.49,8.82,8.82,0,0,0-4.08-.89H115.6V5h.94L120,5a5.8,5.8,0,0,1,2.79.62,4.71,4.71,0,0,1,1.83,1.71,5.23,5.23,0,0,1,.65,2.59,4.92,4.92,0,0,1-.63,2.57,4.52,4.52,0,0,1-1.81,1.71,5.92,5.92,0,0,1-2.79.61h-4.42v2.25h4.54a8.89,8.89,0,0,0,4.08-.89A6.82,6.82,0,0,0,127,13.65a7.09,7.09,0,0,0,1-3.74,7.74,7.74,0,0,0-1-3.76Z" fill="#f07e46"/><polygon points="34.92 23.68 32.61 23.68 32.59 20.22 33.19 20.22 33.19 23.14 34.92 23.14 34.92 23.68" fill="#595959"/><polygon points="37.29 19.14 36.35 19.9 35.76 19.9 36.51 19.14 37.29 19.14" fill="#595959"/><polygon points="36.35 23.68 35.78 23.68 35.76 20.22 36.35 20.22 36.35 23.68" fill="#595959"/><path d="M40.61,21.05a1.73,1.73,0,0,0-.64-.62,2,2,0,0,0-.93-.21H37.63v3.46H39a2,2,0,0,0,.93-.22,1.59,1.59,0,0,0,.64-.62,1.64,1.64,0,0,0,.22-.89,1.82,1.82,0,0,0-.22-.9Zm-.36.9a1.2,1.2,0,0,1-.16.61,1.1,1.1,0,0,1-.41.42,1.34,1.34,0,0,1-.66.16h-.8V20.77H39a1.61,1.61,0,0,1,.66.14,1,1,0,0,1,.41.42,1.19,1.19,0,0,1,.16.62Z" fill="#595959"/><polygon points="44.31 23.12 44.31 23.66 41.86 23.68 41.84 20.22 44.23 20.22 44.23 20.75 42.44 20.75 42.44 21.65 44.03 21.65 44.03 22.19 42.44 22.19 42.44 23.12 44.31 23.12" fill="#595959"/><path d="M47.4,22.52h0a1.08,1.08,0,0,0,.49-.43,1.3,1.3,0,0,0,0-1.32,1,1,0,0,0-.47-.41,1.69,1.69,0,0,0-.74-.14H45.37v3.46h.57v-1h.9l.67,1h.66l-.77-1.16Zm-.74-.39h-.72V20.77h.72a.92.92,0,0,1,.62.18.73.73,0,0,1,0,1,.92.92,0,0,1-.62.18Z" fill="#595959"/><polygon points="51.57 23.12 51.57 23.66 49.13 23.66 49.13 20.2 51.51 20.2 51.51 20.75 49.72 20.75 49.72 21.65 51.31 21.65 51.31 22.17 49.72 22.17 49.72 23.12 51.57 23.12" fill="#595959"/><path d="M54.94,22.68a.86.86,0,0,1-.14.5,1,1,0,0,1-.44.38,1.92,1.92,0,0,1-.72.14h0a2,2,0,0,1-.71-.12,1.52,1.52,0,0,1-.56-.32l0,0,.22-.5.08.06a1.35,1.35,0,0,0,.44.26,1.78,1.78,0,0,0,.55.1,1.17,1.17,0,0,0,.42-.06.48.48,0,0,0,.22-.16.42.42,0,0,0,.08-.22.27.27,0,0,0-.08-.22.82.82,0,0,0-.26-.16,3.54,3.54,0,0,0-.38-.09,2.77,2.77,0,0,1-.41-.12,2.38,2.38,0,0,1-.4-.16.86.86,0,0,1-.42-.78.82.82,0,0,1,.14-.5A1,1,0,0,1,53,20.3a1.87,1.87,0,0,1,.71-.14h0a1.73,1.73,0,0,1,.56.08,2.35,2.35,0,0,1,.5.21l0,0-.2.52-.08,0a2,2,0,0,0-.42-.2,1.52,1.52,0,0,0-.42-.06,1.15,1.15,0,0,0-.41.06.48.48,0,0,0-.22.16.43.43,0,0,0-.08.24.32.32,0,0,0,.08.24.82.82,0,0,0,.26.16,3.24,3.24,0,0,0,.37.12,3.31,3.31,0,0,1,.42.12,2.38,2.38,0,0,1,.4.16.8.8,0,0,1,.3.28.47.47,0,0,1,.18.43Z" fill="#595959"/><polygon points="60.05 23.1 60.05 23.66 57.6 23.66 57.6 20.2 59.99 20.2 59.99 20.73 58.2 20.73 58.2 21.63 59.79 21.63 59.79 22.17 58.2 22.17 58.2 23.1 60.05 23.1" fill="#595959"/><polygon points="63.51 23.66 61.7 21.29 61.7 23.66 61.13 23.66 61.1 20.2 61.58 20.2 63.41 22.54 63.39 20.2 63.99 20.2 63.99 23.64 63.51 23.66" fill="#595959"/><polygon points="67.55 20.73 67.55 21.77 69.14 21.77 69.14 22.3 67.55 22.3 67.55 23.64 66.95 23.64 66.95 20.18 69.34 20.18 69.34 20.73 67.55 20.73" fill="#595959"/><path d="M71.67,20.18h-.54l-1.49,3.46h.62l.36-.84h1.61l.36.84h.61S71.67,20.18,71.67,20.18Zm-.86,2.12.6-1.39L72,22.3Z" fill="#595959"/><path d="M76.68,22.17a1,1,0,0,0-.35-.32,0,0,0,0,1,0,0,.85.85,0,0,0,.22-.24,1,1,0,0,0,.11-.5.79.79,0,0,0-.31-.68,1.49,1.49,0,0,0-.9-.23H73.94v3.46h1.59a1.48,1.48,0,0,0,1-.26.91.91,0,0,0,.33-.72.75.75,0,0,0-.14-.49Zm-2.14.95v-1h1a1,1,0,0,1,.54.12.38.38,0,0,1,.18.35.4.4,0,0,1-.18.36,1,1,0,0,1-.54.12l-1,0Zm0-2.43h.87a.88.88,0,0,1,.5.12.44.44,0,0,1,0,.68.88.88,0,0,1-.5.12h-.87Z" fill="#595959"/><path d="M79.89,22.48h0a1.05,1.05,0,0,0,.5-.43,1.37,1.37,0,0,0,0-1.32,1,1,0,0,0-.48-.41,1.69,1.69,0,0,0-.74-.14H77.86v3.46h.6v-1h.89l.7,1h.65l-.81-1.16Zm-.74-.39h-.71V20.73h.69a.92.92,0,0,1,.62.18.72.72,0,0,1,0,1,.83.83,0,0,1-.6.18Z" fill="#595959"/><polygon points="82.22 23.64 81.62 23.64 81.62 20.18 82.22 20.18 82.22 23.64" fill="#595959"/><path d="M86.3,23.06l0,0a1.38,1.38,0,0,1-.56.4,1.71,1.71,0,0,1-.72.14h0a1.75,1.75,0,0,1-1.25-.52,1.85,1.85,0,0,1-.38-.56,2,2,0,0,1-.14-.69,1.62,1.62,0,0,1,.14-.7,1.55,1.55,0,0,1,.38-.56,1.82,1.82,0,0,1,.56-.37A1.88,1.88,0,0,1,85,20.1h0a1.71,1.71,0,0,1,1.26.53l0,0-.38.4,0-.06a1.12,1.12,0,0,0-.4-.28,1.19,1.19,0,0,0-.46-.1h0a1.29,1.29,0,0,0-.48.1,1,1,0,0,0-.37.26,1.52,1.52,0,0,0-.24.38,1.37,1.37,0,0,0-.1.48,1.2,1.2,0,0,0,.1.47,1,1,0,0,0,.26.38,1.23,1.23,0,0,0,.37.26A1.21,1.21,0,0,0,85,23h0a1.19,1.19,0,0,0,.46-.1,1,1,0,0,0,.38-.28l0-.06.4.46Z" fill="#595959"/><path d="M88.7,20.2l0,0h-.53l-1.5,3.46h.62l.36-.84h1.61l.36.84h.61Zm-.87,2.09.59-1.4.6,1.4Z" fill="#595959"/><path d="M93.72,23.06l0,0a1.38,1.38,0,0,1-.56.4,2.1,2.1,0,0,1-.72.14h0a1.58,1.58,0,0,1-.69-.14,1.55,1.55,0,0,1-.56-.38,1.85,1.85,0,0,1-.38-.56,1.8,1.8,0,0,1,0-1.39,1.85,1.85,0,0,1,.38-.56,1.82,1.82,0,0,1,.56-.37,1.74,1.74,0,0,1,2,.39l0,0-.4.4,0-.06a1.24,1.24,0,0,0-.38-.28,1.19,1.19,0,0,0-.46-.1,1.24,1.24,0,0,0-.47.1,1,1,0,0,0-.38.26,1.28,1.28,0,0,0-.26.38,1.38,1.38,0,0,0-.08.5.88.88,0,0,0,.1.47,1,1,0,0,0,.26.38A1.28,1.28,0,0,0,92,23a1.25,1.25,0,0,0,.93,0,1.32,1.32,0,0,0,.4-.28l0-.06.38.42Z" fill="#595959"/><polygon points="95.25 23.62 94.67 23.62 94.65 20.16 95.25 20.16 95.25 23.62" fill="#595959"/><path d="M99.67,21.17a1.55,1.55,0,0,0-.38-.56,1.82,1.82,0,0,0-.56-.37,2,2,0,0,0-.7-.14h0a1.55,1.55,0,0,0-.69.14,1.52,1.52,0,0,0-.56.37,2.13,2.13,0,0,0-.38.56,2,2,0,0,0-.14.7,1.58,1.58,0,0,0,.14.69,1.55,1.55,0,0,0,.38.56,1.85,1.85,0,0,0,.56.38,2.07,2.07,0,0,0,.69.14,1.68,1.68,0,0,0,.7-.14,1.55,1.55,0,0,0,.56-.38,2.13,2.13,0,0,0,.38-.56,2,2,0,0,0,.12-.69,2.06,2.06,0,0,0-.12-.7ZM98,20.67h0a1.58,1.58,0,0,1,.46.08,1.17,1.17,0,0,1,.38.26,1.81,1.81,0,0,1,.26.38,1.27,1.27,0,0,1,.08.48,1.13,1.13,0,0,1-.08.47,1.23,1.23,0,0,1-.24.38,1,1,0,0,1-.38.26,1.25,1.25,0,0,1-.93,0,1.17,1.17,0,0,1-.38-.26,1.28,1.28,0,0,1-.26-.38,1.2,1.2,0,0,1-.1-.47,1.27,1.27,0,0,1,.08-.48,1.25,1.25,0,0,1,.64-.64,1.33,1.33,0,0,1,.47-.08Z" fill="#595959"/><polygon points="99.05 19.04 98.13 19.78 97.54 19.78 98.29 19.04 99.05 19.04" fill="#595959"/><polygon points="103.23 23.6 101.4 21.25 101.4 23.62 100.82 23.62 100.82 20.16 101.28 20.16 103.11 22.5 103.11 20.16 103.69 20.16 103.69 23.6 103.23 23.6" fill="#595959"/><path d="M109.63,21a1.54,1.54,0,0,0-.63-.61,2,2,0,0,0-.94-.22h-1.41V23.6h1.41a2,2,0,0,0,.94-.22,1.65,1.65,0,0,0,.85-1.51,1.87,1.87,0,0,0-.22-.9ZM108,20.69h0a1.61,1.61,0,0,1,.66.14,1.06,1.06,0,0,1,.42.42,1.24,1.24,0,0,1,.16.62,1.2,1.2,0,0,1-.16.61,1.06,1.06,0,0,1-.42.42,1.34,1.34,0,0,1-.66.16h-.79V20.69Z" fill="#595959"/><polygon points="111.47 23.6 110.89 23.6 110.87 20.14 111.47 20.14 111.47 23.6" fill="#595959"/><path d="M115.52,23.12v.06l0,0a1.56,1.56,0,0,1-.55.32,2,2,0,0,1-.68.12h0a1.56,1.56,0,0,1-.7-.14,2.26,2.26,0,0,1-.55-.38,1.85,1.85,0,0,1-.38-.56,2,2,0,0,1-.14-.69,1.62,1.62,0,0,1,.14-.7,1.55,1.55,0,0,1,.38-.56,2.21,2.21,0,0,1,.55-.37,2,2,0,0,1,.72-.14,1.71,1.71,0,0,1,.72.14,1.26,1.26,0,0,1,.55.39l0,0-.37.38,0,0a1.21,1.21,0,0,0-1.36-.28.89.89,0,0,0-.37.26,1.21,1.21,0,0,0-.36.86,1.2,1.2,0,0,0,.1.47,1,1,0,0,0,.26.38,1.12,1.12,0,0,0,.37.26,1.21,1.21,0,0,0,.48.08h0a1.17,1.17,0,0,0,.46-.08,1.07,1.07,0,0,0,.22-.1V21.77h.55v1.35Z" fill="#595959"/><rect x="116.72" y="20.14" width="0.6" height="3.46" fill="#595959"/><polygon points="120.9 20.67 119.8 20.67 119.8 23.6 119.22 23.6 119.22 20.67 118.13 20.67 118.13 20.14 120.9 20.14 120.9 20.67" fill="#595959"/><path d="M123.09,20.14h-.54l-1.49,3.46h.61l.36-.84h1.61l.36.84h.62S123.09,20.14,123.09,20.14Zm-.88,2.11.6-1.4.59,1.4Z" fill="#595959"/><polygon points="127.66 23.04 127.66 23.58 125.35 23.58 125.35 20.14 125.93 20.14 125.93 23.04 127.66 23.04" fill="#595959"/><path d="M.24,10.86a13.42,13.42,0,0,1,21.39-8c-.28.11-.56.25-.84.37A21.37,21.37,0,0,0,15.54,7,17.33,17.33,0,0,1,9.39,10.8C6.43,11.82,4.28,11.74.24,10.86Z" fill="#f07e46"/><path d="M6.69,22.64c-.78.48-1.5.84-1.91,1A13.31,13.31,0,0,1,0,13.43a4.35,4.35,0,0,1,0-.52l1.75.32A16.05,16.05,0,0,0,15.66,9.31c.93-.79,1.93-1.53,2.8-2.39A14.58,14.58,0,0,1,22.94,4a13.33,13.33,0,0,1,3.56,6.39c-.71.1-1.51.2-2.15.3a13.4,13.4,0,0,0-6,2.06A18.78,18.78,0,0,0,15.88,15,52,52,0,0,1,6.69,22.64Z" fill="#f09264"/><path d="M26.84,13.43a13.36,13.36,0,0,1-4.42,10h0a2.92,2.92,0,0,1-1.71.1c-.32-.08-3.08-.9-3.5-1a2.37,2.37,0,0,0-2.19.1c-1.63,1.06-2.21,1.5-4.34,3l-1,.71a12.72,12.72,0,0,1-3-1.31A27.52,27.52,0,0,0,12,21.41a51,51,0,0,0,6.07-5.93,9.53,9.53,0,0,1,5.11-2.67,28.76,28.76,0,0,1,3.62-.59C26.82,12.61,26.84,13,26.84,13.43Z" fill="#f0ae8d"/></g></g></svg>