<?xml version="1.0" standalone="no"?>
<!DOCTYPE svg PUBLIC "-//W3C//DTD SVG 20010904//EN"
 "http://www.w3.org/TR/2001/REC-SVG-20010904/DTD/svg10.dtd">
<svg version="1.0" xmlns="http://www.w3.org/2000/svg"
 width="512.000000pt" height="512.000000pt" viewBox="0 0 512.000000 512.000000"
 preserveAspectRatio="xMidYMid meet">
<g transform="translate(0.000000,512.000000) scale(0.100000,-0.100000)"
fill="#f8954d" stroke="none">
<path d="M536 5097 c-84 -48 -80 -37 -291 -774 -107 -375 -195 -687 -195 -693
0 -7 200 -9 637 -8 l637 3 148 735 c81 404 147 741 148 748 0 9 -111 12 -522
12 -523 0 -523 0 -562 -23z"/>
<path d="M2045 5108 c-5 -16 -295 -1470 -295 -1480 0 -5 365 -8 810 -8 642 0
810 3 810 13 -1 6 -67 343 -148 747 l-148 735 -512 3 c-405 2 -513 0 -517 -10z"/>
<path d="M3500 5108 c1 -7 67 -344 148 -748 l148 -735 637 -3 c437 -1 637 1
637 8 0 6 -88 318 -195 693 -211 737 -207 726 -291 774 -39 23 -39 23 -561 23
-412 0 -523 -3 -523 -12z"/>
<path d="M2 3252 l3 -168 38 -76 c57 -116 141 -185 269 -223 49 -14 109 -16
460 -13 l403 3 68 32 c115 55 204 156 238 271 l12 43 18 -57 c39 -125 150
-235 276 -274 63 -19 92 -20 773 -20 681 0 710 1 773 20 126 39 237 149 276
274 l18 57 12 -43 c34 -115 123 -216 238 -271 l68 -32 403 -3 c351 -3 411 -1
460 13 128 38 212 107 269 223 l38 76 3 168 4 168 -2562 0 -2562 0 4 -168z"/>
<path d="M1450 2699 c-47 -41 -129 -82 -220 -111 -74 -23 -83 -23 -480 -23
-355 0 -413 2 -468 18 -35 9 -66 17 -68 17 -2 0 -4 -548 -4 -1218 l0 -1218 25
-51 c16 -32 41 -61 67 -79 l41 -29 259 -3 258 -3 0 983 c0 935 1 985 19 1024
22 49 78 97 130 113 54 16 1128 16 1182 0 52 -16 108 -64 130 -113 18 -39 19
-89 19 -1024 l0 -982 1218 2 1219 3 41 29 c26 18 51 47 67 79 l25 51 0 1218
c0 670 -2 1218 -4 1218 -2 0 -33 -8 -68 -17 -55 -16 -113 -18 -468 -18 -397 0
-406 0 -480 23 -91 29 -152 59 -213 106 l-47 36 -75 -51 c-91 -62 -189 -98
-304 -110 -47 -5 -358 -9 -691 -9 -333 0 -644 4 -691 9 -115 12 -213 48 -305
110 -41 28 -76 51 -77 51 -1 -1 -18 -14 -37 -31z m2661 -580 c52 -16 108 -64
130 -113 17 -38 19 -72 19 -406 0 -334 -2 -368 -19 -406 -22 -49 -78 -97 -130
-113 -54 -16 -1128 -16 -1182 0 -52 16 -108 64 -130 113 -17 38 -19 72 -19
406 0 335 2 368 19 406 21 46 73 92 123 111 46 16 1134 18 1189 2z"/>
</g>
</svg>
