<svg xmlns="http://www.w3.org/2000/svg" version="1.1" xmlns:xlink="http://www.w3.org/1999/xlink" width="512" height="512" x="0" y="0" viewBox="0 0 24 24" style="enable-background:new 0 0 512 512" xml:space="preserve" class=""><g><g fill="#000" fill-rule="evenodd" clip-rule="evenodd"><path d="M7 4a3 3 0 0 0-3 3v10a3 3 0 0 0 3 3h10a3 3 0 0 0 3-3v-6a1 1 0 1 1 2 0v6a5 5 0 0 1-5 5H7a5 5 0 0 1-5-5V7a5 5 0 0 1 5-5h6a1 1 0 1 1 0 2z" fill="#538ec9" opacity="1" data-original="#000000" class=""></path><path d="M17.216 2.82a2.803 2.803 0 0 1 3.963 3.964l-.783.784a1 1 0 0 1-1.414 0l-2.55-2.55a1 1 0 0 1 0-1.414zm-2.198 3.612a1 1 0 0 0-1.414 0l-4.461 4.462a1 1 0 0 0-.263.464l-.85 3.4a1 1 0 0 0 1.213 1.212l3.399-.85a1 1 0 0 0 .464-.263l4.462-4.461a1 1 0 0 0 0-1.414z" fill="#538ec9" opacity="1" data-original="#000000" class=""></path></g></g></svg>