<svg xmlns="http://www.w3.org/2000/svg" version="1.1" xmlns:xlink="http://www.w3.org/1999/xlink" width="512" height="512" x="0" y="0" viewBox="0 0 128 128" style="enable-background:new 0 0 512 512" xml:space="preserve" class=""><g><circle cx="64.12" cy="64" r="45" fill="#E9636C" opacity="1" data-original="#E9636C"></circle><path fill="#fff7ed" d="M46.1 81.9a5 5 0 0 0 7.12 0L64 71.12 74.78 81.9a5 5 0 0 0 7.12-7.12L71.12 64 81.9 53.22a5 5 0 1 0-7.12-7.12L64 56.88 53.22 46.1a5 5 0 1 0-7.12 7.12L56.88 64 46.1 74.78a5 5 0 0 0 0 7.12z" opacity="1" data-original="#fff7ed"></path></g></svg>