<svg xmlns="http://www.w3.org/2000/svg" version="1.1" xmlns:xlink="http://www.w3.org/1999/xlink" width="512" height="512" x="0" y="0" viewBox="0 0 512 512" style="enable-background:new 0 0 512 512" xml:space="preserve" class=""><g><path d="M433.37 501H78.62a42.89 42.89 0 0 1-31.9-13.85 42.16 42.16 0 0 1-7.37-45.27l178-405.66a42.17 42.17 0 0 1 77.23 0l178 405.66a42.18 42.18 0 0 1-7.37 45.27A42.89 42.89 0 0 1 433.37 501zm-258.93-84.34h163.11a20.85 20.85 0 0 0 19.09-29.23L275.09 201.6c-7.3-16.62-30.88-16.62-38.18 0l-81.56 185.83a20.85 20.85 0 0 0 19.09 29.23z" data-name="13 Delta" fill="#c1c1c1" opacity="1" data-original="#000000" class=""></path></g></svg>