<svg xmlns="http://www.w3.org/2000/svg" version="1.1" xmlns:xlink="http://www.w3.org/1999/xlink" width="512" height="512" x="0" y="0" viewBox="0 0 512 512" style="enable-background:new 0 0 512 512" xml:space="preserve" class=""><g><g data-name="Layer 9"><path d="M501.09 58.55c-9.12-2.07-18.88-4-29-5.87a16.1 16.1 0 0 1-12.81-12.81c-1.88-10.15-3.81-19.9-5.87-29-2.46-11.29-20.24-14.36-30-6.68-20.91 17-47.45 42.54-65.49 62.44-3.48 3.83-4.9 9.59-3.95 15.31 2.42 14.34 4.54 28.74 6.58 42.64L242.57 242.5a19 19 0 0 0 26.87 26.87l117.94-117.94c13.9 2 28.29 4.15 42.64 6.57 5.71.95 11.48-.47 15.31-3.94 19.89-18 45.42-44.58 62.43-65.49 7.68-9.78 4.62-27.57-6.67-30.02z" fill="#f8954d" opacity="1" data-original="#000000" class=""></path><path d="M457.42 167.39a34.89 34.89 0 0 1-20.15 8.71A197.67 197.67 0 1 1 335.84 74.7a35.24 35.24 0 0 1 8.7-20.18c7.66-8.45 16.82-17.88 26.45-27.29A255 255 0 0 0 256 0C114.62 0 0 114.62 0 256s114.62 256 256 256 256-114.62 256-256a255 255 0 0 0-27.28-115.08c-9.41 9.64-18.85 18.81-27.3 26.47z" fill="#f8954d" opacity="1" data-original="#000000" class=""></path><path d="M333 231.22a81 81 0 1 1-52.37-52.28l43.83-43.83a138.91 138.91 0 1 0 52.34 52.31z" fill="#f8954d" opacity="1" data-original="#000000" class=""></path></g></g></svg>