<svg xmlns="http://www.w3.org/2000/svg" version="1.1" xmlns:xlink="http://www.w3.org/1999/xlink" width="512" height="512" x="0" y="0" viewBox="0 0 1024 1024" style="enable-background:new 0 0 512 512" xml:space="preserve" class=""><g><path fill="#FEB26F" d="M200 512a324 324 0 1 0 648 0 324 324 0 1 0-648 0z" opacity="1" data-original="#FEB26F" class=""></path><path fill="#ffffff" d="M666.27 680.73c-6.4 0-12.8-2.44-17.68-7.32L514.71 539.53c-10.14-10.14-15.72-23.61-15.72-37.95V330.74c0-13.81 11.19-25 25-25s25 11.19 25 25v170.84c0 .98.38 1.9 1.07 2.59l133.87 133.87c9.76 9.76 9.76 25.59 0 35.36-4.88 4.88-11.28 7.32-17.68 7.32z" opacity="1" data-original="#333333" class=""></path></g></svg>