<svg xmlns="http://www.w3.org/2000/svg" version="1.1" xmlns:xlink="http://www.w3.org/1999/xlink" width="512" height="512" x="0" y="0" viewBox="0 0 32 32" style="enable-background:new 0 0 512 512" xml:space="preserve" class=""><g><path d="M16 1a15 15 0 1 0 15 15A15.005 15.005 0 0 0 16 1zm7.11 10.48a1.197 1.197 0 0 1-1.2 1.2h-.9a1.204 1.204 0 0 1-1.2-1.2V10.3h-5.64l3.57 5a1.201 1.201 0 0 1 0 1.4l-3.57 5h5.64v-1.18a1.204 1.204 0 0 1 1.2-1.2h.9a1.197 1.197 0 0 1 1.2 1.2v3.28a1.197 1.197 0 0 1-1.2 1.2H10.09a1.201 1.201 0 0 1-.98-1.9l5.08-7.1-5.08-7.1a1.201 1.201 0 0 1 .98-1.9h11.82a1.197 1.197 0 0 1 1.2 1.2z" fill="#efae24" opacity="1" data-original="#000000"></path></g></svg>