<svg xmlns="http://www.w3.org/2000/svg" version="1.1" xmlns:xlink="http://www.w3.org/1999/xlink" width="512" height="512" x="0" y="0" viewBox="0 0 512 512" style="enable-background:new 0 0 512 512" xml:space="preserve" class=""><g><path fill-rule="evenodd" d="M0 256c0 210.816 45.184 256 256 256s256-45.184 256-256S466.816 0 256 0 0 45.184 0 256zm356.418-79.085c8.331 8.331 8.331 21.839 0 30.17L249.751 313.751c-8.331 8.331-21.839 8.331-30.17 0l-53.334-53.333c-8.331-8.331-8.331-21.839 0-30.17s21.839-8.331 30.17 0l38.248 38.249 91.582-91.582c8.332-8.331 21.84-8.331 30.171 0z" clip-rule="evenodd" fill="#c490cf" opacity="1" data-original="#000000" class=""></path></g></svg>