<svg xmlns="http://www.w3.org/2000/svg" version="1.1" xmlns:xlink="http://www.w3.org/1999/xlink" width="512" height="512" x="0" y="0" viewBox="0 0 512.002 512.002" style="enable-background:new 0 0 512 512" xml:space="preserve" class=""><g><path d="M323.189.001c-104.108 0-188.811 84.704-188.811 188.811 0 45.886 16.487 87.973 43.804 120.728l-25.418 25.418-12.138-12.138c-6.706-6.706-17.572-6.706-24.278 0L15.058 424.1c-20.075 20.086-20.075 52.758-.011 72.845.011 0 .011 0 .011.011 20.11 20.066 52.746 20.053 72.845 0l101.279-101.302c6.706-6.706 6.706-17.572 0-24.278l-12.138-12.138 25.418-25.418c32.756 27.318 74.843 43.804 120.729 43.804 104.108 0 188.811-84.704 188.811-188.811S427.297.001 323.189.001zm0 308.948c-66.238 0-120.136-53.898-120.136-120.136S256.951 68.676 323.189 68.676s120.136 53.898 120.136 120.136-53.898 120.137-120.136 120.137z" fill="#efae24" opacity="1" data-original="#000000" class=""></path></g></svg>