<svg xmlns="http://www.w3.org/2000/svg" version="1.1" xmlns:xlink="http://www.w3.org/1999/xlink" width="512" height="512" x="0" y="0" viewBox="0 0 512 512" style="enable-background:new 0 0 512 512" xml:space="preserve" class=""><g transform="matrix(0.9000000000000002,0,0,0.9000000000000002,25.599999999999937,25.599999999999937)"><path d="M460.8 51.2h-25.6V25.6c0-15.36-10.24-25.6-25.6-25.6C394.24 0 384 10.24 384 25.6v25.6H128V25.6C128 10.24 117.76 0 102.4 0 87.04 0 76.8 10.24 76.8 25.6v25.6H25.6C12.8 51.2 0 61.44 0 76.8v358.4c0 15.36 12.8 25.6 25.6 25.6h156.16c-17.92-30.72-28.16-66.56-28.16-102.4 0-112.64 92.16-204.8 204.8-204.8 48.64 0 92.16 17.92 128 46.08V76.8c0-12.8-12.8-25.6-25.6-25.6z" fill="#508dc3" opacity="1" data-original="#000000" class=""></path><path d="M358.4 204.8c-84.48 0-153.6 69.12-153.6 153.6S273.92 512 358.4 512 512 442.88 512 358.4s-69.12-153.6-153.6-153.6zM409.6 384h-51.2c-15.36 0-25.6-10.24-25.6-25.6v-76.8c0-15.36 10.24-25.6 25.6-25.6 15.36 0 25.6 10.24 25.6 25.6v51.2h25.6c15.36 0 25.6 10.24 25.6 25.6 0 15.36-10.24 25.6-25.6 25.6z" fill="#508dc3" opacity="1" data-original="#000000" class=""></path></g></svg>