<svg xmlns="http://www.w3.org/2000/svg" version="1.1" xmlns:xlink="http://www.w3.org/1999/xlink" width="512" height="512" x="0" y="0" viewBox="0 0 24 24" style="enable-background:new 0 0 512 512" xml:space="preserve" class=""><g><path fill="#f8954d" fill-rule="evenodd" d="M4 1a3 3 0 0 0-3 3v16a3 3 0 0 0 3 3h16a3 3 0 0 0 3-3V4a3 3 0 0 0-3-3h-4v8a1 1 0 0 1-1.316.949L12 9.054l-2.684.895A1 1 0 0 1 8 9V1zm6 0h4v6.613l-1.684-.562a1 1 0 0 0-.632 0L10 7.613zM6 16v2h4v-2z" clip-rule="evenodd" opacity="1" data-original="#000000" class=""></path></g></svg>