<svg xmlns="http://www.w3.org/2000/svg" version="1.1" xmlns:xlink="http://www.w3.org/1999/xlink" width="512" height="512" x="0" y="0" viewBox="0 0 512 512" style="enable-background:new 0 0 512 512" xml:space="preserve" class=""><g><path d="M501.818 90.998a15.118 15.118 0 0 0-24.749-5.118l-77.994 77.994-41.932-9.016-9.015-41.932 77.994-77.995a15.125 15.125 0 0 0-5.118-24.75C367.457-11.053 306.542 1.538 265.818 42.26c-19.604 19.604-33.066 44.227-38.93 71.206a144.544 144.544 0 0 0 1.991 69.544L20.735 391.154C7.363 404.524 0 422.301 0 441.21s7.363 36.686 20.734 50.056C34.105 504.637 51.881 512 70.79 512c18.908 0 36.686-7.363 50.056-20.734L328.99 283.122a144.565 144.565 0 0 0 69.543 1.99c26.98-5.864 51.603-19.326 71.207-38.93 40.723-40.722 53.313-101.637 32.078-155.184z" fill="#a890cf" opacity="1" data-original="#000000" class=""></path></g></svg>