<svg xmlns="http://www.w3.org/2000/svg" version="1.1" xmlns:xlink="http://www.w3.org/1999/xlink" width="512" height="512" x="0" y="0" viewBox="0 0 24 24" style="enable-background:new 0 0 512 512" xml:space="preserve" class=""><g><path fill="#000000" d="m16.03 18.616 5.294-4.853a.998.998 0 0 1 1.675.78 1 1 0 0 1-.323.694l-6 5.5a1 1 0 0 1-1.383-.03l-3-3a1 1 0 0 1 1.414-1.414zM1 20a9.01 9.01 0 0 1 5.623-8.337A4.981 4.981 0 1 1 10 13a7.01 7.01 0 0 0-6.929 6H10a1 1 0 1 1 0 2H2a1 1 0 0 1-1-1zM7 8a3 3 0 1 0 6 0 3 3 0 0 0-6 0z" opacity="1" data-original="#000000"></path></g></svg>