<svg xmlns="http://www.w3.org/2000/svg" version="1.1" xmlns:xlink="http://www.w3.org/1999/xlink" width="512" height="512" x="0" y="0" viewBox="0 0 24 24" style="enable-background:new 0 0 512 512" xml:space="preserve" class=""><g transform="matrix(1.0999999999999992,0,0,1.0999999999999992,-1.2000000357627787,-1.1999999999999904)"><g fill="#000"><path fill-rule="evenodd" d="M16.5 12.75a1.75 1.75 0 0 0-1.719 2.08c.056.292.164.585.301.946.005.012.01.023.013.035.127.334.279.732.363 1.156l.157.783h1.77l.157-.783c.085-.424.236-.822.363-1.156l.013-.035c.138-.361.246-.654.301-.946a1.75 1.75 0 0 0-1.72-2.08zm1.402 6.5h-2.803l-2.417.645-.016.003a1.17 1.17 0 0 0-.916 1.142c0 .116.094.21.21.21h9.08a.21.21 0 0 0 .21-.21 1.17 1.17 0 0 0-.916-1.142l-.015-.003zm-3.775-1.293-.14-.696c-.058-.295-.169-.588-.307-.952l-.005-.013c-.13-.34-.284-.749-.367-1.186a3.25 3.25 0 1 1 6.385 0c-.083.437-.238.846-.368 1.186l-.004.013c-.139.364-.249.657-.308.952l-.14.696 1.803.48a2.67 2.67 0 0 1 2.074 2.603 1.71 1.71 0 0 1-1.71 1.71h-9.08a1.71 1.71 0 0 1-1.71-1.71 2.67 2.67 0 0 1 2.074-2.603z" clip-rule="evenodd" fill="#000000" opacity="1" data-original="#000000" class=""></path><path fill-rule="evenodd" d="M7.945 1.25h3.11c1.368 0 2.47 0 3.337.117.9.12 1.658.38 2.26.981.602.602.86 1.36.981 2.26.117.867.117 1.97.117 3.337V9a.75.75 0 0 1-1.5 0V8c0-1.435-.002-2.437-.103-3.192-.099-.734-.28-1.122-.556-1.399s-.665-.457-1.4-.556c-.755-.101-1.756-.103-3.191-.103H8c-1.435 0-2.437.002-3.192.103-.734.099-1.122.28-1.399.556s-.457.665-.556 1.4C2.752 5.562 2.75 6.564 2.75 8v8c0 1.435.002 2.437.103 3.192.099.734.28 1.122.556 1.399s.665.457 1.4.556c.754.101 1.756.103 3.191.103a.75.75 0 0 1 0 1.5h-.055c-1.367 0-2.47 0-3.337-.116-.9-.121-1.658-.38-2.26-.982-.602-.602-.86-1.36-.981-2.26-.117-.867-.117-1.97-.117-3.337v-8.11c0-1.367 0-2.47.117-3.337.12-.9.38-1.658.981-2.26s1.36-.86 2.26-.981c.867-.117 1.97-.117 3.337-.117z" clip-rule="evenodd" fill="#000000" opacity="1" data-original="#000000" class=""></path><path d="M7.765 9.36a19.112 19.112 0 0 1 .494-.741L7 8.667z" fill="#000000" opacity="1" data-original="#000000" class=""></path><path fill-rule="evenodd" d="M12.265 6.702a.75.75 0 0 0-.53-1.404c-.575.218-1.114.627-1.578 1.06-.472.442-.912.954-1.285 1.43-.229.293-.436.578-.613.83a2.546 2.546 0 0 0-.434-.396 1.741 1.741 0 0 0-.499-.252 1.279 1.279 0 0 0-.299-.053h-.025s-.002 0-.002.75l1.259-.048a20.806 20.806 0 0 0-.494.74l1.13 1.025v-.001l.003-.006.015-.024.062-.1a18.541 18.541 0 0 1 1.08-1.54c.343-.441.73-.888 1.127-1.259.405-.379.775-.636 1.083-.752z" clip-rule="evenodd" fill="#000000" opacity="1" data-original="#000000" class=""></path><path d="m8.25 10 .644.384-1.13-1.024a15.987 15.987 0 0 0-.132.212l-.019.032-.005.008-.002.004.644.384z" fill="#000000" opacity="1" data-original="#000000" class=""></path><path d="M8.894 10.384 8.25 10l-.644-.384.002-.004.005-.008.02-.032a11.97 11.97 0 0 1 .132-.212L7 8.667v-.75a.75.75 0 0 0-.1 1.493c.011.006.03.016.056.035.103.073.342.292.615.873a.75.75 0 0 0 1.323.066z" fill="#000000" opacity="1" data-original="#000000" class=""></path><g fill-rule="evenodd" clip-rule="evenodd"><path d="M5.25 14a.75.75 0 0 1 .75-.75h4a.75.75 0 0 1 0 1.5H6a.75.75 0 0 1-.75-.75zM5.25 17a.75.75 0 0 1 .75-.75h4a.75.75 0 0 1 0 1.5H6a.75.75 0 0 1-.75-.75z" fill="#000000" opacity="1" data-original="#000000" class=""></path></g></g></g></svg>