<svg xmlns="http://www.w3.org/2000/svg" version="1.1" xmlns:xlink="http://www.w3.org/1999/xlink" width="512" height="512" x="0" y="0" viewBox="0 0 24 24" style="enable-background:new 0 0 512 512" xml:space="preserve" class=""><g><g fill="#000"><path d="M17.162 9.253a1 1 0 0 0-1.415-1.414l-5.281 5.282-2.203-2.271a1 1 0 0 0-1.435 1.392l2.909 3a1 1 0 0 0 1.425.011z" fill="#000000" opacity="1" data-original="#000000"></path><path fill-rule="evenodd" d="M5 1C2.811 1 1 2.811 1 5v14c0 2.189 1.811 4 4 4h14c2.189 0 4-1.811 4-4V5c0-2.189-1.811-4-4-4zM3 5c0-1.084.916-2 2-2h14c1.084 0 2 .916 2 2v14c0 1.084-.916 2-2 2H5c-1.084 0-2-.916-2-2z" clip-rule="evenodd" fill="#000000" opacity="1" data-original="#000000"></path></g></g></svg>