<svg xmlns="http://www.w3.org/2000/svg" version="1.1" xmlns:xlink="http://www.w3.org/1999/xlink" width="512" height="512" x="0" y="0" viewBox="0 0 24 24" style="enable-background:new 0 0 512 512" xml:space="preserve" class=""><g><path fill="#000000" fill-rule="evenodd" d="M10.59 3.5a2.991 2.991 0 1 0 0 5.982 2.991 2.991 0 0 0 0-5.982zM6.1 6.491a4.491 4.491 0 1 1 8.982 0 4.491 4.491 0 0 1-8.982 0zm9.872 6.397a3.806 3.806 0 1 0 0 7.612 3.806 3.806 0 0 0 0-7.612zm-3.032-.55a5.306 5.306 0 1 1 .894 9.214h-8.41a2.7 2.7 0 0 1-2.701-2.7 6.602 6.602 0 0 1 6.602-6.602h2.532c.368 0 .73.03 1.083.088zm-1.383 1.412H9.324a5.102 5.102 0 0 0-5.102 5.101 1.2 1.2 0 0 0 1.2 1.2h6.44a5.285 5.285 0 0 1-1.197-3.357c0-1.09.328-2.102.89-2.944zm6.668 1.449a.75.75 0 0 1 .07 1.058l-1.813 2.07a1.25 1.25 0 0 1-1.83.055l-.972-.985a.75.75 0 1 1 1.068-1.054l.783.793 1.636-1.867a.75.75 0 0 1 1.058-.07z" clip-rule="evenodd" opacity="1" data-original="#000000"></path></g></svg>