<svg xmlns="http://www.w3.org/2000/svg" version="1.1" xmlns:xlink="http://www.w3.org/1999/xlink" width="512" height="512" x="0" y="0" viewBox="0 0 32 32" style="enable-background:new 0 0 512 512" xml:space="preserve" class=""><g><path d="M26 1H6C3.243 1 1 3.243 1 6v20c0 2.757 2.243 5 5 5h20c2.757 0 5-2.243 5-5V6c0-2.757-2.243-5-5-5zm3 5v9H17V3h9c1.654 0 3 1.346 3 3zM6 3h9v12H3V6c0-1.654 1.346-3 3-3zM3 26v-9h12v12H6c-1.654 0-3-1.346-3-3zm23 3h-9V17h12v9c0 1.654-1.346 3-3 3z" fill="#000000" opacity="1" data-original="#000000" class=""></path><path d="M6 10h2v2a1 1 0 1 0 2 0v-2h2a1 1 0 1 0 0-2h-2V6a1 1 0 1 0-2 0v2H6a1 1 0 1 0 0 2zM20 10h6a1 1 0 1 0 0-2h-6a1 1 0 1 0 0 2zM26 24h-6a1 1 0 1 0 0 2h6a1 1 0 1 0 0-2zM26 20h-6a1 1 0 1 0 0 2h6a1 1 0 1 0 0-2zM10.414 23l1.414-1.414a.999.999 0 1 0-1.414-1.414L9 21.586l-1.414-1.414a.999.999 0 1 0-1.414 1.414L7.586 23l-1.414 1.415a.999.999 0 1 0 1.414 1.414L9 24.415l1.414 1.414a.997.997 0 0 0 1.414 0 .999.999 0 0 0 0-1.414z" fill="#000000" opacity="1" data-original="#000000" class=""></path></g></svg>