<svg xmlns="http://www.w3.org/2000/svg" version="1.1" xmlns:xlink="http://www.w3.org/1999/xlink" width="512" height="512" x="0" y="0" viewBox="0 0 170 170" style="enable-background:new 0 0 512 512" xml:space="preserve" class=""><g><path d="M122.144 115.974V99.28a5 5 0 1 0-10 0v18.602c0 1.229.452 2.415 1.271 3.331l9.89 11.072a4.987 4.987 0 0 0 3.73 1.669 5 5 0 0 0 3.727-8.331l-8.619-9.648z" fill="#000000" opacity="1" data-original="#000000"></path><path d="M155.11 88.894V46.537c0-13.667-11.113-24.787-24.773-24.787h-7.369V11.374a5 5 0 1 0-10 0V21.75H47.145V11.374a5 5 0 1 0-10 0V21.75h-7.371c-13.66 0-24.773 11.12-24.773 24.787v82.415c0 13.667 11.113 24.787 24.773 24.787h60.504c7.86 6.185 17.76 9.889 28.515 9.889 25.479 0 46.208-20.731 46.208-46.213 0-10.757-3.704-20.659-9.89-28.52zM15 128.951V46.537c0-8.154 6.627-14.787 14.773-14.787h7.371v13.664a5 5 0 1 0 10 0V31.75h65.823v13.664a5 5 0 1 0 10 0V31.75h7.369c8.146 0 14.773 6.633 14.773 14.787v32.924c-7.474-5.2-16.543-8.26-26.318-8.26-25.479 0-46.209 20.731-46.209 46.213 0 9.777 3.06 18.849 8.261 26.325h-51.07c-8.146 0-14.773-6.633-14.773-14.787zm103.792 24.676c-19.966 0-36.209-16.245-36.209-36.213s16.243-36.213 36.209-36.213S155 97.446 155 117.414s-16.243 36.213-36.208 36.213z" fill="#000000" opacity="1" data-original="#000000"></path></g></svg>