<svg xmlns="http://www.w3.org/2000/svg" version="1.1" xmlns:xlink="http://www.w3.org/1999/xlink" width="512" height="512" x="0" y="0" viewBox="0 0 24 24" style="enable-background:new 0 0 512 512" xml:space="preserve" class=""><g transform="matrix(1.099999999999999,0,0,1.099999999999999,-1.1999999999999869,-1.1999999999999869)"><path d="M8 2H5C3.34 2 2 3.34 2 5v3c0 1.66 1.34 3 3 3h3c1.66 0 3-1.34 3-3V5c0-1.66-1.34-3-3-3zm1.5 6c0 .83-.67 1.5-1.5 1.5H5c-.83 0-1.5-.67-1.5-1.5V5c0-.83.67-1.5 1.5-1.5h3c.83 0 1.5.67 1.5 1.5zM19 2h-3c-1.66 0-3 1.34-3 3v3c0 1.66 1.34 3 3 3h3c1.66 0 3-1.34 3-3V5c0-1.66-1.34-3-3-3zm1.5 6c0 .83-.67 1.5-1.5 1.5h-3c-.83 0-1.5-.67-1.5-1.5V5c0-.83.67-1.5 1.5-1.5h3c.83 0 1.5.67 1.5 1.5zM8 13H5c-1.66 0-3 1.34-3 3v3c0 1.66 1.34 3 3 3h3c1.66 0 3-1.34 3-3v-3c0-1.66-1.34-3-3-3zm1.5 6c0 .83-.67 1.5-1.5 1.5H5c-.83 0-1.5-.67-1.5-1.5v-3c0-.83.67-1.5 1.5-1.5h3c.83 0 1.5.67 1.5 1.5zM20.5 16.75h-2.25V14.5c0-.41-.34-.75-.75-.75s-.75.34-.75.75v2.25H14.5c-.41 0-.75.34-.75.75s.34.75.75.75h2.25v2.25c0 .41.34.75.75.75s.75-.34.75-.75v-2.25h2.25c.41 0 .75-.34.75-.75s-.34-.75-.75-.75z" fill="#000000" opacity="1" data-original="#000000" class=""></path></g></svg>