<svg xmlns="http://www.w3.org/2000/svg" version="1.1" xmlns:xlink="http://www.w3.org/1999/xlink" width="512" height="512" x="0" y="0" viewBox="0 0 512 512" style="enable-background:new 0 0 512 512" xml:space="preserve" class=""><g><path d="M256 0C114.618 0 0 114.618 0 256s114.618 256 256 256 256-114.618 256-256S397.382 0 256 0zm0 469.333c-117.818 0-213.333-95.515-213.333-213.333S138.182 42.667 256 42.667 469.333 138.182 469.333 256 373.818 469.333 256 469.333z" fill="#000000" opacity="1" data-original="#000000"></path><path d="M256 85.333c-11.782 0-21.333 9.551-21.333 21.333v128h-64c-11.782 0-21.333 9.551-21.333 21.333s9.551 21.333 21.333 21.333H256c11.782 0 21.333-9.551 21.333-21.333V106.667c0-11.782-9.551-21.334-21.333-21.334z" fill="#000000" opacity="1" data-original="#000000"></path></g></svg>