<svg xmlns="http://www.w3.org/2000/svg" version="1.1" xmlns:xlink="http://www.w3.org/1999/xlink" width="512" height="512" x="0" y="0" viewBox="0 0 24 24" style="enable-background:new 0 0 512 512" xml:space="preserve" class=""><g><path d="M21 5h-3V4a3 3 0 0 0-3-3H9a3 3 0 0 0-3 3v1H3a1 1 0 0 0 0 2h.06l.71 11.31a5 5 0 0 0 5 4.69h6.48a5 5 0 0 0 5-4.69L20.94 7H21a1 1 0 0 0 0-2zM8 4a1 1 0 0 1 1-1h6a1 1 0 0 1 1 1v1H8zm10.24 14.19a3 3 0 0 1-3 2.81H8.76a3 3 0 0 1-3-2.81L5.06 7h13.88z" fill="#000000" opacity="1" data-original="#000000"></path><path d="M10 10a1 1 0 0 0-1 1v6a1 1 0 0 0 2 0v-6a1 1 0 0 0-1-1zM14 10a1 1 0 0 0-1 1v6a1 1 0 0 0 2 0v-6a1 1 0 0 0-1-1z" fill="#000000" opacity="1" data-original="#000000"></path></g></svg>