<svg xmlns="http://www.w3.org/2000/svg" version="1.1" xmlns:xlink="http://www.w3.org/1999/xlink" width="512" height="512" x="0" y="0" viewBox="0 0 512 512" style="enable-background:new 0 0 512 512" xml:space="preserve" class=""><g><path d="M456.832 112.465H311.168V15c0-8.285-6.719-15-15-15h-80.336c-8.281 0-15 6.715-15 15v97.465H55.168C24.75 112.465 0 137.215 0 167.633v289.199C0 487.25 24.75 512 55.168 512h401.664C487.254 512 512 487.25 512 456.832v-289.2c0-30.417-24.75-55.167-55.168-55.167zM281.168 30v97.465c0 13.879-11.29 25.168-25.168 25.168-13.867 0-25.152-11.278-25.164-25.14v-.028c0-.012-.004-.024-.004-.04V30zM482 456.832C482 470.707 470.71 482 456.832 482H55.168C41.289 482 30 470.71 30 456.832v-289.2c0-13.874 11.29-25.167 25.168-25.167h147.754c6.555 23.152 27.86 40.168 53.078 40.168s46.523-17.016 53.078-40.168h147.754c13.879 0 25.168 11.293 25.168 25.168zm0 0" fill="#000000" opacity="1" data-original="#000000" class=""></path><path d="M196.297 309.25c8.973-9.816 14.453-22.871 14.453-37.184 0-30.418-24.746-55.168-55.168-55.168-30.418 0-55.164 24.75-55.164 55.168 0 14.313 5.48 27.368 14.453 37.184-20.758 13.41-34.539 36.734-34.539 63.23v20.086c0 8.282 6.719 15 15 15h120.5c8.285 0 15-6.718 15-15V372.48c0-26.496-13.777-49.82-34.535-63.23zm-65.879-37.184c0-13.875 11.289-25.168 25.164-25.168 13.879 0 25.168 11.293 25.168 25.168 0 13.88-11.29 25.168-25.168 25.168-13.875 0-25.164-11.293-25.164-25.168zm70.414 105.5h-90.5v-5.082c0-24.953 20.3-45.25 45.25-45.25 24.953 0 45.25 20.297 45.25 45.25zM416.668 377.566h-120.5c-8.285 0-15 6.715-15 15s6.715 15 15 15h120.5c8.281 0 15-6.714 15-15s-6.719-15-15-15zM416.668 297.234h-120.5c-8.285 0-15 6.715-15 15s6.715 15 15 15h120.5c8.281 0 15-6.714 15-15s-6.719-15-15-15zM416.668 216.898h-120.5c-8.285 0-15 6.72-15 15 0 8.286 6.715 15 15 15h120.5c8.281 0 15-6.714 15-15 0-8.28-6.719-15-15-15zm0 0" fill="#000000" opacity="1" data-original="#000000" class=""></path></g></svg>