<svg xmlns="http://www.w3.org/2000/svg" version="1.1" xmlns:xlink="http://www.w3.org/1999/xlink" width="512" height="512" x="0" y="0" viewBox="0 0 24 24" style="enable-background:new 0 0 512 512" xml:space="preserve" class=""><g><g data-name="Layer 2"><path d="M12 22.716a2.252 2.252 0 0 1-1.006-.236l-3.907-1.954A8.702 8.702 0 0 1 2.25 12.7V7.007a2.74 2.74 0 0 1 2.2-2.692 13.234 13.234 0 0 0 2.75-.858 13.196 13.196 0 0 0 3.092-1.896 2.696 2.696 0 0 1 3.415 0 13.23 13.23 0 0 0 3.094 1.897 13.235 13.235 0 0 0 2.749.857 2.741 2.741 0 0 1 2.2 2.692V12.7a8.703 8.703 0 0 1-4.837 7.826l-3.907 1.954a2.25 2.25 0 0 1-1.006.236zM12 2.45a1.19 1.19 0 0 0-.756.27A14.71 14.71 0 0 1 7.8 4.832a14.72 14.72 0 0 1-3.061.955 1.238 1.238 0 0 0-.989 1.22V12.7a7.21 7.21 0 0 0 4.008 6.485l3.907 1.953a.758.758 0 0 0 .67 0l3.908-1.953A7.21 7.21 0 0 0 20.25 12.7V7.007a1.238 1.238 0 0 0-.99-1.22 14.74 14.74 0 0 1-3.06-.955 14.723 14.723 0 0 1-3.445-2.112A1.188 1.188 0 0 0 12 2.45z" fill="#000000" opacity="1" data-original="#000000"></path><path d="M13 16.125h-1a.75.75 0 0 1-.75-.75v-3.25H11a.75.75 0 0 1 0-1.5h1a.75.75 0 0 1 .75.75v3.25H13a.75.75 0 0 1 0 1.5z" fill="#000000" opacity="1" data-original="#000000"></path><circle cx="12" cy="8" r="1.125" fill="#000000" opacity="1" data-original="#000000"></circle></g></g></svg>