<svg xmlns="http://www.w3.org/2000/svg" version="1.1" xmlns:xlink="http://www.w3.org/1999/xlink" width="512" height="512" x="0" y="0" viewBox="0 0 24 24" style="enable-background:new 0 0 512 512" xml:space="preserve" class=""><g><path d="M18 21.75h-2.5A1.752 1.752 0 0 1 13.75 20v-3.5a1.75 1.75 0 0 0-3.5 0V20a1.752 1.752 0 0 1-1.75 1.75H6A1.752 1.752 0 0 1 4.25 20v-7.25H3.17A1.747 1.747 0 0 1 2.03 9.68l8.817-7.676a1.762 1.762 0 0 1 2.304 0l8.82 7.68a1.746 1.746 0 0 1-1.142 3.066h-1.08V20A1.752 1.752 0 0 1 18 21.75zm-6-8.5a3.254 3.254 0 0 1 3.25 3.25V20a.25.25 0 0 0 .25.25H18a.253.253 0 0 0 .25-.25v-8a.75.75 0 0 1 .75-.75h1.83a.234.234 0 0 0 .23-.162.227.227 0 0 0-.068-.269l-8.824-7.684a.259.259 0 0 0-.336.001l-8.82 7.68a.23.23 0 0 0-.072.272.234.234 0 0 0 .23.162H5a.75.75 0 0 1 .75.75v8a.253.253 0 0 0 .25.25h2.5a.25.25 0 0 0 .25-.25v-3.5A3.254 3.254 0 0 1 12 13.25z" data-name="Layer 2" fill="#000000" opacity="1" data-original="#000000"></path></g></svg>