<svg xmlns="http://www.w3.org/2000/svg" version="1.1" xmlns:xlink="http://www.w3.org/1999/xlink" width="512" height="512" x="0" y="0" viewBox="0 0 512 512" style="enable-background:new 0 0 512 512" xml:space="preserve" class=""><g><path d="M452 74.5H312.573c-8.254-23.281-30.498-40-56.573-40s-48.318 16.719-56.573 40H60c-33.084 0-60 26.916-60 60v283c0 33.084 26.916 60 60 60h392.063c33.05-.034 59.938-26.95 59.938-60v-283c-.001-33.084-26.917-60-60.001-60zm-196 0c11.028 0 20 8.972 20 20s-8.972 20-20 20-20-8.972-20-20 8.972-20 20-20zm216 343c0 11.017-8.963 19.989-19.958 20H60c-11.028 0-20-8.972-20-20v-283c0-11.028 8.972-20 20-20h139.44c8.256 23.278 30.487 40 56.56 40s48.303-16.722 56.56-40H452c11.028 0 20 8.972 20 20zm-157-189h118v40H315zm0 81h118v40H315zm-84.751-13.428C237.635 285.752 242 273.13 242 259.5c0-34.738-28.262-63-63-63s-63 28.262-63 63c0 13.996 4.593 26.936 12.343 37.405C99.391 314.443 80 346.249 80 382.5h40c0-33.084 26.916-60 60-60s60 26.916 60 60h40c0-36.835-20.022-69.077-49.751-86.428zM179 236.5c12.682 0 23 10.318 23 23s-10.318 23-23 23-23-10.318-23-23 10.318-23 23-23z" fill="#000000" opacity="1" data-original="#000000"></path></g></svg>