<svg xmlns="http://www.w3.org/2000/svg" version="1.1" xmlns:xlink="http://www.w3.org/1999/xlink" width="512" height="512" x="0" y="0" viewBox="0 0 512 512" style="enable-background:new 0 0 512 512" xml:space="preserve" class=""><g><path d="M86.588 472.785h331.294v37.647H86.588zM311.843 169.726H195.765c-10.397 0-18.824 8.427-18.824 18.824s8.427 18.824 18.824 18.824h116.078c10.397 0 18.824-8.427 18.824-18.824s-8.427-18.824-18.824-18.824zM399.686 257.569H195.765c-10.397 0-18.824 8.427-18.824 18.824s8.427 18.824 18.824 18.824h203.922c10.397 0 18.823-8.427 18.823-18.824s-8.427-18.824-18.824-18.824z" fill="#000000" opacity="1" data-original="#000000" class=""></path><path d="M500.907 3.86a18.842 18.842 0 0 0-20.204 3.062l-52.712 46.632-52.775-47.191c-7.147-6.394-17.951-6.394-25.098 0l-52.706 47.134L244.7 6.363c-7.147-6.394-17.945-6.394-25.092 0l-52.775 47.191-52.712-46.632A18.863 18.863 0 0 0 93.917 3.86a18.825 18.825 0 0 0-11.093 17.161V356.08h-64C8.427 356.079 0 364.506 0 374.903v45.804c0 49.474 40.251 89.725 89.725 89.725v-37.647c-28.718 0-52.078-23.366-52.078-52.078v-26.98h294.902v26.98c0 49.474 40.251 89.726 89.725 89.726s89.725-40.251 89.725-89.725V21.02a18.82 18.82 0 0 0-11.092-17.16zm-26.554 416.847c0 28.712-23.366 52.078-52.078 52.078s-52.078-23.366-52.078-52.078v-45.804c0-10.397-8.427-18.824-18.824-18.824H120.471V62.802l33.964 30.049c7.153 6.325 17.907 6.293 25.016-.069l52.706-47.134 52.706 47.128c7.147 6.394 17.951 6.394 25.098 0l52.712-47.134 52.706 47.134c7.115 6.362 17.87 6.387 25.016.069l33.958-30.042v357.904z" fill="#000000" opacity="1" data-original="#000000" class=""></path></g></svg>