<svg xmlns="http://www.w3.org/2000/svg" version="1.1" xmlns:xlink="http://www.w3.org/1999/xlink" width="512" height="512" x="0" y="0" viewBox="0 0 512 512" style="enable-background:new 0 0 512 512" xml:space="preserve" class=""><g><path d="M236 452V140c0-13.895-7.085-26.136-17.84-33.306l-120-80A39.816 39.816 0 0 0 76 20c-22.091 0-40 17.909-40 40v312c0 13.895 7.085 26.136 17.84 33.306l120 80A39.816 39.816 0 0 0 196 492c22.091 0 40-17.909 40-40z" style="stroke-width:40;stroke-linecap:round;stroke-linejoin:round;stroke-miterlimit:10;" fill="none" stroke="#000000" stroke-width="40" stroke-linecap="round" stroke-linejoin="round" stroke-miterlimit="10" data-original="#000000"></path><path d="M76 20h240c22.091 0 40 17.909 40 40v76M356 296v76c0 22.091-17.909 40-40 40h-80M436 176l40 40-40 40M316 216h160" style="stroke-width:40;stroke-linecap:round;stroke-linejoin:round;stroke-miterlimit:10;" fill="none" stroke="#000000" stroke-width="40" stroke-linecap="round" stroke-linejoin="round" stroke-miterlimit="10" data-original="#000000"></path></g></svg>