<svg xmlns="http://www.w3.org/2000/svg" xmlns:xlink="http://www.w3.org/1999/xlink" version="1.1" width="512" height="512" x="0" y="0" viewBox="0 0 24 24" style="enable-background:new 0 0 512 512" xml:space="preserve" class=""><script xmlns=""/><g><path d="M1.75 24h2.5C5.215 24 6 23.215 6 22.25v-.366C7.512 22.654 10.946 24 16.531 24h1.6a4.737 4.737 0 0 0 4.679-3.942l1.12-6.5A4.75 4.75 0 0 0 19.251 8h-4.536a9.33 9.33 0 0 0 .566-3.25c0-3.757-2.126-4.75-3.25-4.75-2.076 0-2.25 1.936-2.25 3.75 0 2.214-2.483 4.054-3.794 4.872A1.747 1.747 0 0 0 4.25 7h-2.5C.785 7 0 7.785 0 8.75v13.5C0 23.215.785 24 1.75 24zm9.531-20.25c0-2.25.381-2.25.75-2.25.704 0 1.75.866 1.75 3.25 0 2.216-.868 3.574-.874 3.584a.75.75 0 0 0 .624 1.166h5.72a3.248 3.248 0 0 1 3.201 3.802l-1.12 6.5a3.241 3.241 0 0 1-3.201 2.697h-1.6C9.728 22.5 6.32 20.372 6 20.161v-9.81c.833-.442 5.281-2.972 5.281-6.601zm-9.781 5a.25.25 0 0 1 .25-.25h2.5a.25.25 0 0 1 .25.25v13.5c0 .136-.114.25-.25.25h-2.5a.25.25 0 0 1-.25-.25z" fill="#000000" opacity="1" data-original="#000000"/></g></svg>