<svg xmlns="http://www.w3.org/2000/svg" version="1.1" xmlns:xlink="http://www.w3.org/1999/xlink" width="512" height="512" x="0" y="0" viewBox="0 0 24 24" style="enable-background:new 0 0 512 512" xml:space="preserve" class=""><g><path d="M17.47 11.293a1 1 0 1 0 1.414 1.414l1.544-1.544a5.368 5.368 0 0 0-7.591-7.591l-1.544 1.544a1 1 0 1 0 1.414 1.414l1.544-1.544a3.368 3.368 0 1 1 4.763 4.763zM6.53 12.707a1 1 0 1 0-1.414-1.414l-1.544 1.544a5.368 5.368 0 0 0 7.591 7.591l1.544-1.544a1 1 0 0 0-1.414-1.414l-1.544 1.544a3.368 3.368 0 0 1-4.763-4.763z" fill="#000000" opacity="1" data-original="#000000" class=""></path><path d="M8.205 15.8a1 1 0 0 0 1.414 0L15.8 9.619a1 1 0 1 0-1.414-1.414l-6.181 6.176a1 1 0 0 0 0 1.419z" fill="#000000" opacity="1" data-original="#000000" class=""></path></g></svg>