<svg xmlns="http://www.w3.org/2000/svg" version="1.1" xmlns:xlink="http://www.w3.org/1999/xlink" width="512" height="512" x="0" y="0" viewBox="0 0 512 512" style="enable-background:new 0 0 512 512" xml:space="preserve" class=""><g><path d="M477.587 233.869c11.928-13.334 18.164-32.935 18.164-51.868 0-27.94-21.152-51.02-48.274-54.08V20c0-6.627-5.373-12-12-12H71.817c-6.627 0-12 5.373-12 12v101.769c-24.793 5.488-43.398 27.632-43.398 54.052 0 19.414 6.437 39.515 18.743 53.097C19.166 236.142 8 252.234 8 270.896v158.997c0 23.216 18.888 42.104 42.104 42.104h24.482V492c0 6.627 5.373 12 12 12h338.827c6.627 0 12-5.373 12-12v-20.003h25.135c22.856 0 41.452-18.595 41.452-41.452V275.007c0-18.229-10.841-33.965-26.413-41.138zM480 389.092h-63.465l-6.406-17.844c4.129-2.364 6.933-5.347 8.796-8.085l32.229-47.424c3.726-5.481 2.302-12.945-3.18-16.67-5.481-3.726-12.945-2.301-16.67 3.18l-32.227 47.419c-.83 1.221-3.606 1.95-7.427 1.95h-48.388c-5.294 0-9.601-4.319-9.601-9.628s4.307-9.601 9.601-9.601h40.649a12 12 0 0 0 10.301-5.844l34.605-57.902c3.336-5.57 11.653-14.916 29.872-14.916 11.749 0 21.308 9.545 21.308 21.279v114.086zm-353.428-15.629h45.479c18.793 0 34.082-15.289 34.082-34.082s-15.289-34.11-34.082-34.11h-21.006l14.11-39.27h181.687l15.222 42.388h-18.799c-18.527 0-33.601 15.073-33.601 33.601s15.073 33.628 33.601 33.628H386.2l22.156 61.72H103.643l22.928-63.875zM114.7 220.505h61.36a46.561 46.561 0 0 0-1.099 10.053v11.443h-18.246a12 12 0 0 0-11.293 7.942l-15.468 43.048-24.555-41.049a53.118 53.118 0 0 0-10.269-12.468c7.64-4.219 14.291-10.611 19.569-18.97zm116.038-88.054c0-13.921 11.326-25.248 25.248-25.248s25.276 11.326 25.276 25.248c0 15.568-7.842 37.493-25.276 37.493-19.076 0-25.248-25.26-25.248-37.493zm54.36 73.002c15.406 0 27.94 11.262 27.94 25.105v11.443H198.961v-11.443c0-13.843 12.534-25.105 27.94-25.105h58.196zm50.842 15.052h60.048c5.194 10.062 12.574 18.551 22.031 23.872a52.45 52.45 0 0 0-9.793 11.944l-24.586 41.138-17.062-47.513a12 12 0 0 0-11.294-7.944h-18.245v-11.443c0-3.445-.381-6.807-1.099-10.053zm135.811-38.504c0 18.417-9.434 44.353-30.407 44.353-22.974 0-30.406-29.882-30.406-44.353 0-16.782 13.641-30.435 30.406-30.435s30.407 13.653 30.407 30.435zM423.477 32v98.596c-21.247 7.414-36.539 27.651-36.539 51.405 0 4.83.417 9.702 1.219 14.504h-65.69c-9.145-8.967-21.85-14.656-35.944-15.018 12.293-11.96 18.739-30.84 18.739-49.036 0-27.155-22.105-49.248-49.276-49.248s-49.248 22.092-49.248 49.248c0 18.196 6.442 37.076 18.728 49.036-14.089.365-26.79 6.053-35.933 15.018h-64.9c1.63-6.747 2.498-13.761 2.498-20.684 0-26.398-18.565-48.526-43.314-54.037V32zM71.789 144.451c17.282 0 31.342 14.073 31.342 31.37 0 14.878-7.661 45.601-31.342 45.601-21.638 0-31.37-26.666-31.37-45.601 0-17.297 14.073-31.37 31.37-31.37zM54.044 248.852c18.776 0 27.316 9.631 30.748 15.392l35.405 59.188a12.002 12.002 0 0 0 10.298 5.84h41.556c5.465 0 10.082 4.63 10.082 10.11s-4.617 10.082-10.082 10.082h-49.465c-4.006 0-6.933-.785-7.818-2.083L81.83 298.88c-3.723-5.483-11.187-6.908-16.669-3.186-5.483 3.724-6.909 11.187-3.186 16.669l32.95 48.519c1.736 2.546 4.277 5.307 7.938 7.593l-6.933 19.314H32V270.897c0-12.155 9.889-22.044 22.044-22.044zM32 429.893v-18.104h55.315l-12.023 33.496a11.988 11.988 0 0 0-.625 2.713H50.104c-9.982 0-18.104-8.122-18.104-18.104zM413.413 480H98.586v-18.662h314.827zM480 430.544c0 9.623-7.829 17.452-17.452 17.452h-25.216a11.988 11.988 0 0 0-.625-2.713l-11.556-32.191H480z" fill="#000000" opacity="1" data-original="#000000" class=""></path></g></svg>