<svg xmlns="http://www.w3.org/2000/svg" version="1.1" xmlns:xlink="http://www.w3.org/1999/xlink" width="512" height="512" x="0" y="0" viewBox="0 0 28 28" style="enable-background:new 0 0 512 512" xml:space="preserve" class=""><g><switch><g><path fill="#0a0b12" d="M23.5 25h-5c-1.4 0-2.5-1.1-2.5-2.5v-5c0-1.4 1.1-2.5 2.5-2.5h5c1.4 0 2.5 1.1 2.5 2.5v5c0 1.4-1.1 2.5-2.5 2.5zm-5-8c-.3 0-.5.2-.5.5v5c0 .3.2.5.5.5h5c.3 0 .5-.2.5-.5v-5c0-.3-.2-.5-.5-.5z" opacity="1" data-original="#0a0b12" class=""></path><path fill="#858589" d="M9.5 25h-5C3.1 25 2 23.9 2 22.5v-5C2 16.1 3.1 15 4.5 15h5c1.4 0 2.5 1.1 2.5 2.5v5c0 1.4-1.1 2.5-2.5 2.5zm-5-8c-.3 0-.5.2-.5.5v5c0 .3.2.5.5.5h5c.3 0 .5-.2.5-.5v-5c0-.3-.2-.5-.5-.5z" opacity="1" data-original="#858589"></path><path fill="#0a0b12" d="M21 13c-.3 0-.5-.1-.7-.3l-2-2c-.4-.4-.4-1 0-1.4s1-.4 1.4 0l.1.1C19.1 6.8 16.7 5 14 5c-3.3 0-6 2.7-6 6 0 .6-.4 1-1 1s-1-.4-1-1c0-4.4 3.6-8 8-8 4 0 7.3 2.9 7.9 6.7l.4-.4c.4-.4 1-.4 1.4 0s.4 1 0 1.4l-2 2c-.2.2-.4.3-.7.3z" opacity="1" data-original="#0a0b12" class=""></path></g></switch></g></svg>