<svg xmlns="http://www.w3.org/2000/svg" version="1.1" xmlns:xlink="http://www.w3.org/1999/xlink" width="512" height="512" x="0" y="0" viewBox="0 0 32 32" style="enable-background:new 0 0 512 512" xml:space="preserve" fill-rule="evenodd" class=""><g transform="matrix(1.1,0,0,1.1,-1.6000000000000014,-1.5999979496002226)"><path d="M26 30H6a2 2 0 0 1-2-2v-9a2 2 0 0 1 2-2h5.333v-1a2 2 0 0 1 2-2h5.334v-2a2 2 0 0 1 2-2H26a2 2 0 0 1 2 2v16a2 2 0 0 1-2 2zM11.333 19H6v9h5.333zm7.334-3h-5.334v12h5.334zm2 12H26V12h-5.333v3zM18.986 5.622c-3.763 5.548-10.738 7.347-10.738 7.347a1 1 0 0 1-.496-1.938s6.642-1.683 9.889-7.014L15.674 4a1 1 0 0 1 .018-2l4.28.038a.998.998 0 0 1 .991.991L21 7.21a1 1 0 0 1-2 .018z" fill="#ea7134" opacity="1" data-original="#000000"></path></g></svg>