<svg xmlns="http://www.w3.org/2000/svg" version="1.1" xmlns:xlink="http://www.w3.org/1999/xlink" width="512" height="512" x="0" y="0" viewBox="0 0 24 24" style="enable-background:new 0 0 512 512" xml:space="preserve" class=""><g transform="matrix(1.0599999999999992,0,0,1.0599999999999992,-0.7003393363952561,-0.7199993419647104)"><path d="M21.72 6.21A3 3 0 0 0 19.31 5H5.72L5.4 4a3 3 0 0 0-2.84-2H2a1 1 0 0 0 0 2h.56a1 1 0 0 1 .95.68L4 6.26l1.7 8.33A3 3 0 0 0 8.64 17h9.66a3 3 0 0 0 3-2.51l.95-5.7a3 3 0 0 0-.53-2.58zm-1.45 2.08v.12l-.95 5.75a1 1 0 0 1-1 .84H8.64a1 1 0 0 1-1-.8L6.22 7h13.09a1 1 0 0 1 .8.4 1 1 0 0 1 .16.89zM11 20a2 2 0 1 1-2-2 2 2 0 0 1 2 2zm9 0a2 2 0 1 1-2-2 2 2 0 0 1 2 2z" data-name="Layer 19" fill="#ea7134" opacity="1" data-original="#000000" class=""></path></g></svg>