<svg xmlns="http://www.w3.org/2000/svg" version="1.1" xmlns:xlink="http://www.w3.org/1999/xlink" width="512" height="512" x="0" y="0" viewBox="0 0 24 24" style="enable-background:new 0 0 512 512" xml:space="preserve" class=""><g transform="matrix(1.0799999999999996,0,0,1.0799999999999996,-0.9599999999999973,-0.9605711841583222)"><clipPath id="a"><path d="M0 0h24v24H0z" fill="#ea7134" opacity="1" data-original="#000000"></path></clipPath><g fill="#000" clip-path="url(#a)"><path d="M7.308 15.916a.75.75 0 1 0-.616 1.368l2 .9a.75.75 0 1 0 .616-1.368z" fill="#ea7134" opacity="1" data-original="#000000"></path><path fill-rule="evenodd" d="M13.792 1.656a4.25 4.25 0 0 0-3.584 0l-6.5 3.023A4.25 4.25 0 0 0 1.25 8.532v7.015a4.25 4.25 0 0 0 2.49 3.868l6.5 2.958a4.25 4.25 0 0 0 3.52 0l6.5-2.958a4.25 4.25 0 0 0 2.49-3.868V8.532a4.25 4.25 0 0 0-2.458-3.853zm-2.951 1.36a2.75 2.75 0 0 1 2.319 0l6.5 3.023c.467.217.854.556 1.128.968l-2.98 1.412-9.066-4.427zm-3.85 1.79L4.34 6.04a2.747 2.747 0 0 0-1.13.968L12 11.17l4.074-1.93zM2.75 8.45l8.5 4.026v8.676a2.765 2.765 0 0 1-.39-.143l-6.5-2.958a2.75 2.75 0 0 1-1.611-2.503V8.532l.001-.083zm10 12.701a2.75 2.75 0 0 0 .388-.142l6.5-2.958a2.75 2.75 0 0 0 1.611-2.503V8.532l-.001-.083-8.499 4.025z" clip-rule="evenodd" fill="#ea7134" opacity="1" data-original="#000000"></path></g></g></svg>