<svg xmlns="http://www.w3.org/2000/svg" version="1.1" xmlns:xlink="http://www.w3.org/1999/xlink" width="512" height="512" x="0" y="0" viewBox="0 0 24 24" style="enable-background:new 0 0 512 512" xml:space="preserve" class=""><g><path d="M22.33 9.73A2 2 0 0 0 20.78 9H8.64a3 3 0 0 0-2.94 2.41L4.18 19H4a1 1 0 0 1-1-1V6a1 1 0 0 1 1-1h3.7l2.75 1.83A1 1 0 0 0 11 7h6a1 1 0 0 1 1 1h2a3 3 0 0 0-3-3h-5.7L8.55 3.17A1 1 0 0 0 8 3H4a3 3 0 0 0-3 3v12a3 3 0 0 0 3 3h14.36a3 3 0 0 0 2.94-2.41l1.44-7.2a2 2 0 0 0-.41-1.66zm-3 8.47a1 1 0 0 1-1 .8H6.22l1.44-7.2a1 1 0 0 1 1-.8h12.12z" data-name="46 Open File, Document, Folder" fill="#ea7134" opacity="1" data-original="#000000"></path></g></svg>