<svg xmlns="http://www.w3.org/2000/svg" version="1.1" xmlns:xlink="http://www.w3.org/1999/xlink" width="512" height="512" x="0" y="0" viewBox="0 0 14 15" style="enable-background:new 0 0 512 512" xml:space="preserve" class=""><g><g fill="#000001" fill-rule="evenodd" clip-rule="evenodd"><path d="M1.5 3.25a.5.5 0 0 0-.5.5v7.5a.5.5 0 0 0 .5.5h11a.5.5 0 0 0 .5-.5v-7.5a.5.5 0 0 0-.5-.5zm-1.5.5a1.5 1.5 0 0 1 1.5-1.5h11a1.5 1.5 0 0 1 1.5 1.5v7.5a1.5 1.5 0 0 1-1.5 1.5h-11a1.5 1.5 0 0 1-1.5-1.5z" fill="#000001" opacity="1" data-original="#000001"></path><path d="M0 6.25a.5.5 0 0 1 .5-.5h13a.5.5 0 0 1 0 1H.5a.5.5 0 0 1-.5-.5zM9 9.75a.5.5 0 0 1 .5-.5H11a.5.5 0 0 1 0 1H9.5a.5.5 0 0 1-.5-.5z" fill="#000001" opacity="1" data-original="#000001"></path></g></g></svg>