<svg xmlns="http://www.w3.org/2000/svg" version="1.1" xmlns:xlink="http://www.w3.org/1999/xlink" width="512" height="512" x="0" y="0" viewBox="0 0 512 512" style="enable-background:new 0 0 512 512" xml:space="preserve" class=""><g transform="matrix(0.9200000000000003,0,0,0.9200000000000003,20.479999999999933,20.479999999999933)"><path d="M56 452V60h160M296 60h160v392M256 140h0c-22.091 0-40-17.909-40-40V20h80v80c0 22.091-17.909 40-40 40zM492 452H20M256 140v40c0 22.091-17.909 40-40 40h0c-22.091 0-40 17.909-40 40v0c0 22.091 17.909 40 40 40h40c22.091 0 40 17.909 40 40v32" style="stroke-width:40;stroke-linecap:round;stroke-linejoin:round;stroke-miterlimit:10;" fill="none" stroke="#000000" stroke-width="40" stroke-linecap="round" stroke-linejoin="round" stroke-miterlimit="10" data-original="#000000" class=""></path><path d="M136 452v-80h240v80M96 492v-40M416 492v-40" style="stroke-width:40;stroke-linecap:round;stroke-linejoin:round;stroke-miterlimit:10;" fill="none" stroke="#000000" stroke-width="40" stroke-linecap="round" stroke-linejoin="round" stroke-miterlimit="10" data-original="#000000" class=""></path></g></svg>