<svg xmlns="http://www.w3.org/2000/svg" version="1.1" xmlns:xlink="http://www.w3.org/1999/xlink" width="512" height="512" x="0" y="0" viewBox="0 0 32 32" style="enable-background:new 0 0 512 512" xml:space="preserve" class=""><g transform="matrix(1.04,0,0,1.04,-0.6341199111938494,-0.6396199798583986)"><path d="M15.033 13.976A6.407 6.407 0 0 0 20.5 17c3.584 0 6.5-2.916 6.5-6.5 0-3.421-2.658-6.227-6.017-6.476A6.493 6.493 0 0 0 15.5 1 6.508 6.508 0 0 0 9 7.5c0 3.426 2.667 6.235 6.033 6.476zM25 10.5c0 2.481-2.019 4.5-4.5 4.5a4.441 4.441 0 0 1-3.129-1.277C20.046 12.917 22 10.434 22 7.5c0-.432-.044-.854-.125-1.263C23.682 6.822 25 8.501 25 10.5zM15.5 3C17.981 3 20 5.019 20 7.5a4.501 4.501 0 0 1-4.436 4.494l-.034.003-.03.003C13.019 12 11 9.981 11 7.5S13.019 3 15.5 3zm13.77 15.352a2.76 2.76 0 0 0-2.835.074l-5.479 3.425a.992.992 0 0 1-.529.152h-2.599c.203-.572.229-1.2.062-1.81-.353-1.29-1.574-2.19-2.973-2.19H9.999a2.96 2.96 0 0 0-1.47.401 2.994 2.994 0 0 0-2.53-1.403h-2c-1.654 0-3 1.346-3 3v7.98c0 1.654 1.346 3 3 3h2a2.993 2.993 0 0 0 2.52-1.385c.439.251.939.406 1.48.406h10.262c.714 0 1.406-.255 1.949-.719l7.788-6.653.15-.16a3.062 3.062 0 0 0 .559-1.676c0-1.03-.538-1.943-1.438-2.442zM7 21.002v6.979c0 .551-.448 1-1 1H4c-.552 0-1-.449-1-1v-7.98c0-.551.448-1 1-1h2c.552 0 1 .449 1 1v1.002zm21.588.203-7.676 6.557a1 1 0 0 1-.65.24H10c-.552 0-1-.449-1-1v-6c0-.551.448-1 1-1h4.918c.491 0 .93.301 1.043.716a.992.992 0 0 1-.166.884.993.993 0 0 1-.795.399h-3a1 1 0 1 0 0 2h8.427c.563 0 1.113-.158 1.59-.456l5.479-3.424a.775.775 0 0 1 .805-.021.776.776 0 0 1 .408.693c0 .091-.062.293-.12.412z" fill="#000000" opacity="1" data-original="#000000" class=""></path></g></svg>