<svg xmlns="http://www.w3.org/2000/svg" version="1.1" xmlns:xlink="http://www.w3.org/1999/xlink" width="512" height="512" x="0" y="0" viewBox="0 0 193.769 193.769" style="enable-background:new 0 0 512 512" xml:space="preserve" class=""><g><path d="m149.203 41.104-9.348 12.009c20.15 15.679 30.201 41.063 26.234 66.253-2.906 18.484-12.838 34.73-27.964 45.748-15.131 11.012-33.64 15.488-52.124 12.567-38.157-6.008-64.32-41.938-58.322-80.098C30.585 79.097 40.52 62.85 55.648 51.835c13.208-9.615 28.991-14.233 45.086-13.317L87.579 52.319l9.759 9.313 20.766-21.801.005.008 9.303-9.769-9.752-9.303-.005.003L95.862 0l-9.31 9.769 14.2 13.525c-19.303-.913-38.21 4.702-54.059 16.242C28.28 52.943 16.19 72.717 12.65 95.221c-7.302 46.445 24.54 90.184 70.985 97.493a86.181 86.181 0 0 0 13.434 1.055c17.89 0 35.273-5.623 50.011-16.356 18.415-13.409 30.503-33.183 34.043-55.682 4.829-30.654-7.403-61.55-31.92-80.627z" fill="#000000" opacity="1" data-original="#000000"></path><path d="M105.24 151.971v-.003h.001v-8.757c10.383-1.159 20.485-7.718 20.485-20.17 0-16.919-15.732-18.859-27.223-20.274-7.347-.878-12.97-1.897-12.97-6.348 0-6.188 8.722-6.855 12.473-6.855 5.567 0 11.507 2.617 13.525 5.957l.586.971 11.542-5.341-.571-1.164c-4.301-8.793-12.009-11.337-17.85-12.364v-7.71H91.723v7.677c-12.582 1.856-20.054 8.839-20.054 18.829 0 16.29 14.791 17.943 25.582 19.153 9.617 1.134 14.094 3.51 14.094 7.469 0 7.563-10.474 8.154-13.685 8.154-7.147 0-14.038-3.566-16.031-8.301l-.495-1.169-12.539 5.316.5 1.169c3.713 8.691 11.725 14.137 22.63 15.425v8.336h13.515z" fill="#000000" opacity="1" data-original="#000000"></path></g></svg>