<svg xmlns="http://www.w3.org/2000/svg" version="1.1" xmlns:xlink="http://www.w3.org/1999/xlink" width="512" height="512" x="0" y="0" viewBox="0 0 512 512" style="enable-background:new 0 0 512 512" xml:space="preserve" class=""><g><path d="M437.02 74.98C388.667 26.629 324.38 0 256 0S123.333 26.629 74.98 74.98C26.629 123.333 0 187.62 0 256s26.629 132.667 74.98 181.02C123.333 485.371 187.62 512 256 512s132.667-26.629 181.02-74.98C485.371 388.667 512 324.38 512 256s-26.629-132.667-74.98-181.02zm34.344 164.372L369.5 341.216l-28.326-28.325 121.087-121.086a214.555 214.555 0 0 1 9.103 47.547zm-26.019-87.202L312.89 284.605l-28.995-28.995 137.898-137.898a216.876 216.876 0 0 1 23.552 34.438zM276 40.934a214.58 214.58 0 0 1 43.733 8.665L276 93.327V40.934zm0 108.958 83.464-83.453a216.866 216.866 0 0 1 33.979 23.054L276 206.936v-57.044zM256 472c-119.103 0-216-96.897-216-216 0-112.359 86.239-204.94 196-215.066v223.35L393.866 422.15C356.434 453.264 308.365 472 256 472zm166.15-78.134L397.784 369.5l69.763-69.763c-7.28 35.261-23.184 67.405-45.397 94.129z" fill="#000000" opacity="1" data-original="#000000"></path></g></svg>