<svg xmlns="http://www.w3.org/2000/svg" version="1.1" xmlns:xlink="http://www.w3.org/1999/xlink" width="512" height="512" x="0" y="0" viewBox="0 0 32 32" style="enable-background:new 0 0 512 512" xml:space="preserve" class=""><g><path d="M14 29H5c-.55 0-1-.45-1-1V9h4v1c0 .55.45 1 1 1s1-.45 1-1V9h6v1c0 .55.45 1 1 1s1-.45 1-1V9h4v3c0 .55.45 1 1 1s1-.45 1-1V8c0-.55-.45-1-1-1h-5V6c0-2.76-2.24-5-5-5S8 3.24 8 6v1H3c-.55 0-1 .45-1 1v20c0 1.65 1.35 3 3 3h9c.55 0 1-.45 1-1s-.45-1-1-1zM10 6c0-1.65 1.35-3 3-3s3 1.35 3 3v1h-6zm12.33 16.42 1.96-1.96a.996.996 0 1 1 1.41 1.41l-2.67 2.67c-.2.2-.45.29-.71.29s-.51-.1-.71-.29l-1.33-1.33a.996.996 0 1 1 1.41-1.41zm6.83-6.41-6-1a.915.915 0 0 0-.33 0l-6 1A1 1 0 0 0 16 17v5c0 5.27 4.37 8.16 6.68 8.95.1.03.21.05.32.05s.22-.02.32-.05C25.63 30.16 30 27.27 30 22v-5a1 1 0 0 0-.84-.99zM28 22c0 4.46-3.84 6.43-5 6.93-1.17-.5-5-2.47-5-6.93v-4.15l5-.83 5 .83z" fill="#000000" opacity="1" data-original="#000000" class=""></path></g></svg>