<svg xmlns="http://www.w3.org/2000/svg" version="1.1" xmlns:xlink="http://www.w3.org/1999/xlink" width="512" height="512" x="0" y="0" viewBox="0 0 16 16" style="enable-background:new 0 0 512 512" xml:space="preserve" class=""><g><path d="M14.5 3.79a2.363 2.363 0 0 0-2.36-2.36h-.426V1a.5.5 0 0 0-1 0v.43H4.286V1a.5.5 0 0 0-1 0v.43H2.86A2.363 2.363 0 0 0 .5 3.79v8.35a2.363 2.363 0 0 0 2.36 2.36h5.347a4.455 4.455 0 0 0 2.793 1 4.505 4.505 0 0 0 4.5-4.5 4.455 4.455 0 0 0-1-2.793ZM2.86 2.43h.426v.427a.5.5 0 0 0 1 0V2.43h6.428v.427a.5.5 0 0 0 1 0V2.43h.426a1.362 1.362 0 0 1 1.36 1.36v.424h-12V3.79a1.362 1.362 0 0 1 1.36-1.36ZM1.5 12.14V5.214h12v2.048A4.496 4.496 0 0 0 7.262 13.5H2.86a1.362 1.362 0 0 1-1.36-1.36ZM11 14.5a3.5 3.5 0 1 1 3.5-3.5 3.504 3.504 0 0 1-3.5 3.5Z" fill="#000000" opacity="1" data-original="#000000" class=""></path><path d="M11.5 10.793V9a.5.5 0 0 0-1 0v2a.5.5 0 0 0 .146.353l1 1a.5.5 0 0 0 .707-.706Z" fill="#000000" opacity="1" data-original="#000000" class=""></path></g></svg>