<svg xmlns="http://www.w3.org/2000/svg" version="1.1" xmlns:xlink="http://www.w3.org/1999/xlink" width="512" height="512" x="0" y="0" viewBox="0 0 64 64" style="enable-background:new 0 0 512 512" xml:space="preserve" class=""><g><path fill="#000000" fill-rule="evenodd" d="M8.014 2.586a2 2 0 0 1 2.309-.375L21.179 7.64a2 2 0 0 1 1.106 1.79v4.599l3.799 3.8a18.093 18.093 0 0 1 5.174-10.504C36.825 1.758 45.096.55 51.792 3.73a2 2 0 0 1 .556 3.221l-9.317 9.318 4.7 4.701 9.319-9.318a2 2 0 0 1 3.22.557c3.18 6.696 1.972 14.967-3.594 20.534a18.175 18.175 0 0 1-4.928 3.512l7.043 7.043c4.279 4.279 4.279 11.216 0 15.494-4.279 4.279-11.215 4.279-15.494 0L32.441 47.935a10.987 10.987 0 0 1-1.615-2.05L17.343 59.368a8.988 8.988 0 0 1-12.71-12.712l16.883-16.883-7.488-7.488h-4.6a2 2 0 0 1-1.789-1.106L2.211 10.323a2 2 0 0 1 .375-2.31zm16.33 24.358 2.186-2.185a17.895 17.895 0 0 1-.249-1.077l-7.41-7.412a2 2 0 0 1-.586-1.414v-4.192l-8.462-4.23-3.39 3.389 4.231 8.461h4.192a2 2 0 0 1 1.415.586zm9.445 15.977a6.936 6.936 0 0 0 1.48 2.185l10.856 10.857a6.956 6.956 0 0 0 9.838-9.838l-8.437-8.436c-2.739.567-5.58.494-8.285-.22zm.298-32.768a14.111 14.111 0 0 1 13.19-3.788l-8.489 8.489a2 2 0 0 0 0 2.828l7.53 7.53a2 2 0 0 0 2.828 0l8.489-8.489a14.111 14.111 0 0 1-3.788 13.19 14.105 14.105 0 0 1-14.528 3.404 2 2 0 0 0-2.06.479L14.515 56.539a4.988 4.988 0 1 1-7.054-7.054l22.743-22.744a2 2 0 0 0 .479-2.06 14.105 14.105 0 0 1 3.404-14.528z" clip-rule="evenodd" opacity="1" data-original="#000000" class=""></path></g></svg>