<svg xmlns="http://www.w3.org/2000/svg" version="1.1" xmlns:xlink="http://www.w3.org/1999/xlink" width="512" height="512" x="0" y="0" viewBox="0 0 24 24" style="enable-background:new 0 0 512 512" xml:space="preserve" class=""><g><path fill="#000000" fill-rule="evenodd" d="M9 6a3 3 0 1 1 6 0 3 3 0 0 1-6 0zm3-5a5 5 0 1 0 0 10 5 5 0 0 0 0-10zm-2 12a7 7 0 0 0-7 7 3 3 0 0 0 3 3h12a3 3 0 0 0 3-3 7 7 0 0 0-7-7zm-5 7a5 5 0 0 1 5-5h4a5 5 0 0 1 5 5 1 1 0 0 1-1 1H6a1 1 0 0 1-1-1z" clip-rule="evenodd" opacity="1" data-original="#000000" class=""></path></g></svg>