<svg xmlns="http://www.w3.org/2000/svg" version="1.1" xmlns:xlink="http://www.w3.org/1999/xlink" width="512" height="512" x="0" y="0" viewBox="0 0 24 24" style="enable-background:new 0 0 512 512" xml:space="preserve" class=""><g><path fill="#000000" fill-rule="evenodd" d="M12 3a3 3 0 1 0 0 6 3 3 0 0 0 0-6zM7 6a5 5 0 1 1 10 0A5 5 0 0 1 7 6zM3 20a7 7 0 0 1 7-7h4a1 1 0 1 1 0 2h-4a5 5 0 0 0-5 5 1 1 0 0 0 1 1h6a1 1 0 1 1 0 2H6a3 3 0 0 1-3-3zm16-5a1 1 0 0 1 1 1v2h2a1 1 0 1 1 0 2h-2v2a1 1 0 0 1-2 0v-2h-2a1 1 0 1 1 0-2h2v-2a1 1 0 0 1 1-1z" clip-rule="evenodd" opacity="1" data-original="#000000" class=""></path></g></svg>