<svg xmlns="http://www.w3.org/2000/svg" version="1.1" xmlns:xlink="http://www.w3.org/1999/xlink" width="512" height="512" x="0" y="0" viewBox="0 0 512.004 512.004" style="enable-background:new 0 0 512 512" xml:space="preserve" class=""><g><path d="M437.022 74.985C276.129-85.568.217 28.829.002 256.004v236c0 11.046 8.954 20 20 20h236c227.297-.24 341.505-276.229 181.02-437.019zm-181.02 397.019h-216v-216c0-119.103 96.897-216 216-216 286.567 11.869 286.456 420.187 0 432zm77.253-216.514c-7.817-7.796-20.474-7.785-28.276.028l-13.104 13.121c-6.256-3.849-15.225-10.396-26.037-21.182-10.938-10.911-17.548-20.056-21.406-26.42l12.95-12.969c7.737-7.748 7.805-20.277.153-28.109l-69.306-70.933a20.002 20.002 0 0 0-14.177-6.022h-.128c-5.294 0-10.375 2.1-14.125 5.842l-49.923 49.807a19.994 19.994 0 0 0-5.836 12.924c-5.25 94.081 124.701 237.018 231.626 237.27 1.762.002 12.471-2.478 15.878-5.877l50.584-50.466c7.77-7.45 7.768-20.869-.001-28.318zm-3.822 113.036c-6.262-.605-16.561-2.283-29.703-6.859-20.754-7.228-53.031-23.36-88.931-59.171-44.135-45.576-61.25-82.025-66.505-121.678l29.449-29.381 41.376 42.348-8.942 8.955a19.999 19.999 0 0 0-5.171 19.289c1.048 3.927 7.738 24.974 36.584 53.748 28.824 28.753 49.407 35.328 53.241 36.354a20.008 20.008 0 0 0 19.323-5.188l9.005-9.017 40.524 40.421z" fill="#000000" opacity="1" data-original="#000000" class=""></path></g></svg>