<svg xmlns="http://www.w3.org/2000/svg" version="1.1" xmlns:xlink="http://www.w3.org/1999/xlink" width="512" height="512" x="0" y="0" viewBox="0 0 24 24" style="enable-background:new 0 0 512 512" xml:space="preserve" class=""><g><g fill="#000" fill-rule="evenodd" clip-rule="evenodd"><path d="M2.49 10.457a.48.48 0 0 1-.485-.54A9.301 9.301 0 0 1 9.92 2.004a.48.48 0 0 1 .54.484v.668a.753.753 0 0 0 1.506 0v-.668a.48.48 0 0 1 .54-.484c4.521.63 8 4.512 8 9.206v.136c-.005.365-.405.573-.742.432a6.1 6.1 0 0 0-7.986 7.986c.142.336-.066.736-.43.74-.046.002-.091.002-.137.002-4.695 0-8.578-3.482-9.206-8.004a.48.48 0 0 1 .484-.54h.671a.753.753 0 1 0 0-1.507zm9.475-2.986a.753.753 0 1 0-1.506 0v3.451c0 .139-.057.271-.158.366L8.393 13.08a.753.753 0 1 0 1.031 1.098l2.145-2.015c.253-.237.396-.569.396-.915z" fill="#88b262" opacity="1" data-original="#000000"></path><path d="M17.406 22a4.594 4.594 0 1 0 0-9.187 4.594 4.594 0 0 0 0 9.187zm2.442-5.223a.753.753 0 0 0-1.162-.958l-1.176 1.425a.501.501 0 0 1-.725.052l-.398-.363a.753.753 0 0 0-1.015 1.112l1.03.94c.482.44 1.283.415 1.718-.113z" fill="#88b262" opacity="1" data-original="#000000"></path></g></g></svg>