<svg xmlns="http://www.w3.org/2000/svg" version="1.1" xmlns:xlink="http://www.w3.org/1999/xlink" width="512" height="512" x="0" y="0" viewBox="0 0 24 24" style="enable-background:new 0 0 512 512" xml:space="preserve" class=""><g><path d="M12 7c-1.103 0-2-.897-2-2 0-.838.518-1.557 1.25-1.854V.75a.75.75 0 0 1 1.5 0v3a.75.75 0 0 1-.75.75.5.5 0 1 0 .5.5.75.75 0 0 1 1.5 0c0 1.103-.897 2-2 2zM23.249 13a.747.747 0 0 1-.406-.12l-8.25-5.33a.75.75 0 0 1 .814-1.26l8.25 5.33a.75.75 0 0 1-.408 1.38zM.751 13a.75.75 0 0 1-.408-1.38l8.25-5.33a.75.75 0 1 1 .814 1.26l-8.25 5.33a.75.75 0 0 1-.406.12z" fill="#ea7134" opacity="1" data-original="#000000" class=""></path><path d="M23.25 11.5H.75a.75.75 0 0 0-.75.75v11c0 .414.336.75.75.75h22.5a.75.75 0 0 0 .75-.75v-11a.75.75 0 0 0-.75-.75zm-19 9.25a.75.75 0 0 1-1.5 0v-6a.75.75 0 0 1 1.5 0zm4 0a.75.75 0 0 1-1.5 0v-6a.75.75 0 0 1 1.5 0zm4.5 0a.75.75 0 0 1-1.5 0v-6a.75.75 0 0 1 1.5 0zm4.5 0a.75.75 0 0 1-1.5 0v-6a.75.75 0 0 1 1.5 0zm4 0a.75.75 0 0 1-1.5 0v-6a.75.75 0 0 1 1.5 0z" fill="#ea7134" opacity="1" data-original="#000000" class=""></path></g></svg>