<svg xmlns="http://www.w3.org/2000/svg" version="1.1" xmlns:xlink="http://www.w3.org/1999/xlink" width="512" height="512" x="0" y="0" viewBox="0 0 24 24" style="enable-background:new 0 0 512 512" xml:space="preserve" class=""><g><path d="m21.973 10.522-8.82-7.679a1.76 1.76 0 0 0-2.305 0L2.03 10.517a1.746 1.746 0 0 0 1.139 3.07h1.08v6.25A1.752 1.752 0 0 0 6 21.587h2.5a1.752 1.752 0 0 0 1.75-1.75v-2.5a1.754 1.754 0 0 1 .577-1.3 1.736 1.736 0 0 1 1.357-.442 1.85 1.85 0 0 1 1.566 1.886v2.355a1.752 1.752 0 0 0 1.75 1.75H18a1.752 1.752 0 0 0 1.75-1.75v-6.25h1.08a1.746 1.746 0 0 0 1.143-3.065z" data-name="Layer 2" fill="#ea7134" opacity="1" data-original="#000000"></path></g></svg>