<svg xmlns="http://www.w3.org/2000/svg" xmlns:xlink="http://www.w3.org/1999/xlink" version="1.1" width="512" height="512" x="0" y="0" viewBox="0 0 24 24" style="enable-background:new 0 0 512 512" xml:space="preserve" class=""><script xmlns=""/><g><path d="M1.75 23h2.5C5.215 23 6 22.215 6 21.25V9.75C6 8.785 5.215 8 4.25 8h-2.5C.785 8 0 8.785 0 9.75v11.5C0 22.215.785 23 1.75 23zM12.781.75c-1 0-1.5.5-1.5 3 0 2.376-2.301 4.288-3.781 5.273v12.388c1.601.741 4.806 1.839 9.781 1.839h1.6c1.95 0 3.61-1.4 3.94-3.32l1.12-6.5a3.998 3.998 0 0 0-3.94-4.68h-4.72s.75-1.5.75-4c0-3-2.25-4-3.25-4z" fill="#ea7134" opacity="1" data-original="#000000" class=""/></g></svg>