<svg xmlns="http://www.w3.org/2000/svg" version="1.1" xmlns:xlink="http://www.w3.org/1999/xlink" width="512" height="512" x="0" y="0" viewBox="0 0 512 512" style="enable-background:new 0 0 512 512" xml:space="preserve" class=""><g><path fill="#ecb72b" d="m307.79 223.476-53.135 78.467-78.573 78.18c-29.222-37.139-61.132-73.116-80.587-116.631l42.352-64.879 64.957-62.668c-21.71 26.831-20.089 66.293 4.864 91.246 26.696 26.696 69.968 26.696 96.663 0a68.87 68.87 0 0 0 3.459-3.715z" opacity="1" data-original="#ecb72b"></path><path fill="#5085f7" d="M309.02 222.003c21.9-26.844 20.346-66.442-4.688-91.462-26.696-26.696-69.968-26.696-96.663 0a69.649 69.649 0 0 0-3.215 3.445l44.811-72.847L310.06 8.33c45.407 14.374 82.964 46.379 104.648 87.977l-44.352 71.516z" opacity="1" data-original="#5085f7" class=""></path><path fill="#da2f2a" d="M202.802 135.949 95.49 263.498c-10.643-23.783-17.562-49.817-18.276-79.529a159.575 159.575 0 0 1-.081-5.093c0-43.718 15.685-83.789 41.746-114.861z" opacity="1" data-original="#da2f2a"></path><path fill="#4274eb" d="M202.802 135.949 118.876 64.01C151.692 24.885 200.936 0 256.002 0c18.845 0 37.009 2.916 54.065 8.32z" opacity="1" data-original="#4274eb" class=""></path><path fill="#60a850" d="M434.867 178.865c0-29.779-7.278-57.859-20.151-82.558l-238.64 283.826c27.113 34.488 51.887 69.985 62.183 113.454.33 1.392.685 3.019 1.063 4.848 3.733 18.086 29.63 18.086 33.363 0 .378-1.829.733-3.456 1.063-4.848 27.448-115.892 157.807-175.118 161.043-309.618.046-1.696.076-3.397.076-5.104z" opacity="1" data-original="#60a850"></path></g></svg>