<svg xmlns="http://www.w3.org/2000/svg" version="1.1" xmlns:xlink="http://www.w3.org/1999/xlink" width="512" height="512" x="0" y="0" viewBox="0 0 24 24" style="enable-background:new 0 0 512 512" xml:space="preserve" class=""><g><path d="M11.183 14.721v3a3.026 3.026 0 0 1-3.094 3.089H5.094A3.1 3.1 0 0 1 2 17.716v-5.392C2 6.51 3.182 5.29 6.56 3.287a.7.7 0 0 1 .713 1.2C4.4 6.19 3.482 6.961 3.4 11.627h4.689a3.025 3.025 0 0 1 3.094 3.094zm7.723-3.094H14.22c.079-4.666 1-5.437 3.869-7.139a.7.7 0 1 0-.712-1.2c-3.378 2-4.56 3.223-4.56 9.037v5.392a3.1 3.1 0 0 0 3.094 3.094h2.995A3.026 3.026 0 0 0 22 17.716v-3a3.025 3.025 0 0 0-3.094-3.089z" data-name="1" fill="#538ec9" opacity="1" data-original="#000000" class=""></path></g></svg>