<svg xmlns="http://www.w3.org/2000/svg" version="1.1" xmlns:xlink="http://www.w3.org/1999/xlink" width="512" height="512" x="0" y="0" viewBox="0 0 100 100" style="enable-background:new 0 0 512 512" xml:space="preserve"><g><path fill-rule="evenodd" d="M97.497 82.114c.003 8.799-7.366 15.833-16.152 15.364-17.903-.957-37.44-9.725-53.262-25.547C12.25 56.107 3.479 36.561 2.525 18.651 2.057 9.869 9.087 2.5 17.884 2.5h9.952c2.416 0 3.852 2.045 4.4 4.4l4.327 18.798a7.076 7.076 0 0 1-1.942 6.64l-4.554 4.465a9.472 9.472 0 0 0-1.233 12.045c2.847 4.239 6.217 8.352 10.085 12.227a81.892 81.892 0 0 0 12.228 10.088A9.472 9.472 0 0 0 63.19 69.93l4.467-4.556a7.076 7.076 0 0 1 6.64-1.942l18.797 4.327c2.355.548 4.4 1.983 4.4 4.4z" clip-rule="evenodd" fill="#f8954d" opacity="1" data-original="#000000"></path></g></svg>