<svg xmlns="http://www.w3.org/2000/svg" version="1.1" xmlns:xlink="http://www.w3.org/1999/xlink" width="512" height="512" x="0" y="0" viewBox="0 0 60 60" style="enable-background:new 0 0 512 512" xml:space="preserve" class=""><g><path d="M48.967 24.31c-.6-.015-14.796-.339-28.377 7.331-4.561 2.573-7.473 3.07-9.138 3.015a.78.78 0 0 0-.79.584c-.133.505-1.254 5.01 1.011 6.865a.831.831 0 0 0 .442.174L45.17 44.78h.063a.803.803 0 0 0 .552-.22.79.79 0 0 0 .237-.616c-.008-.103-.165-2.336-1.57-3.622v-1.216c.923-1.262 5.28-7.496 5.28-14.006a.792.792 0 0 0-.766-.79zM25.296 36.027a1.217 1.217 0 1 1 0-2.433 1.217 1.217 0 0 1 0 2.433zm6.737-1.217a1.67 1.67 0 1 1 0-3.34 1.67 1.67 0 0 1 0 3.34zm6.737-1.312a2.028 2.028 0 1 1 0-4.055 2.028 2.028 0 0 1 0 4.055zM32.821 24.981v-2.675a.791.791 0 0 0-.789-.789h-12.27V30.3c.015-.008.039-.024.055-.032 4.419-2.493 8.909-4.166 13.004-5.287zM13.448 24.887v7.993c1.184-.244 2.747-.75 4.735-1.744v-9.303l-4.324 2.36a.784.784 0 0 0-.41.694zM28.008 15.22h-5.011a.791.791 0 0 0-.79.789v3.93h6.59v-3.93a.791.791 0 0 0-.79-.79z" fill="#798191" opacity="1" data-original="#798191"></path></g></svg>