<svg xmlns="http://www.w3.org/2000/svg" version="1.1" xmlns:xlink="http://www.w3.org/1999/xlink" width="512" height="512" x="0" y="0" viewBox="0 0 24 24" style="enable-background:new 0 0 512 512" xml:space="preserve" class=""><g><path d="M10.94 19.65a2.91 2.91 0 0 0 4.12 0l4.59-4.59a2.91 2.91 0 0 0 0-4.12l-6.12-6.12a4.471 4.471 0 0 0-3.18-1.32H5.71c-1.22 0-2.21.99-2.21 2.21v4.64c0 1.2.47 2.33 1.32 3.18zM6.5 5.5c.55 0 1 .45 1 1s-.45 1-1 1-1-.45-1-1 .45-1 1-1z" fill="#50afc3" opacity="1" data-original="#000000"></path></g></svg>