<svg xmlns="http://www.w3.org/2000/svg" version="1.1" xmlns:xlink="http://www.w3.org/1999/xlink" width="512" height="512" x="0" y="0" viewBox="0 0 32 32" style="enable-background:new 0 0 512 512" xml:space="preserve" class=""><g><g data-name="top"><path d="M9.76 15.56 16 9.32l6.24 6.24a2.76 2.76 0 0 0 1.93.8 2.74 2.74 0 0 0 1.94-4.67l-9.4-9.4a1 1 0 0 0-1.42 0l-9.4 9.4a2.74 2.74 0 0 0 3.87 3.87z" fill="#e36464" opacity="1" data-original="#000000" class=""></path><path d="M16.71 15.93a1 1 0 0 0-1.42 0l-9.4 9.4a2.74 2.74 0 1 0 3.87 3.87L16 23l6.24 6.24a2.76 2.76 0 0 0 1.93.8 2.74 2.74 0 0 0 1.94-4.67z" fill="#e36464" opacity="1" data-original="#000000" class=""></path></g></g></svg>