<svg xmlns="http://www.w3.org/2000/svg" version="1.1" xmlns:xlink="http://www.w3.org/1999/xlink" width="512" height="512" x="0" y="0" viewBox="0 0 24 24" style="enable-background:new 0 0 512 512" xml:space="preserve" fill-rule="evenodd" class=""><g><path d="M21.75 18.75h-4.751a2.75 2.75 0 0 1-2.75-2.75v-2a2.75 2.75 0 0 1 2.75-2.75h4.751V10c0-.729-.29-1.429-.805-1.945A2.755 2.755 0 0 0 19 7.25H5c-.729 0-1.429.29-1.945.805A2.755 2.755 0 0 0 2.25 10v10c0 .729.29 1.429.805 1.945A2.755 2.755 0 0 0 5 22.75h14c.729 0 1.429-.29 1.945-.805A2.755 2.755 0 0 0 21.75 20zm0-6v4.5h-4.751c-.69 0-1.25-.56-1.25-1.25v-2c0-.69.56-1.25 1.25-1.25zM17.5 14a1 1 0 1 1 0 2 1 1 0 0 1 0-2zM16.088 6.25H19c.191 0 .381.015.568.043l.474-1.018a.75.75 0 0 0-.362-.996L13.335 1.32a.75.75 0 0 0-.996.363l-.537 1.151 3.3 1.538a1.75 1.75 0 0 1 .986 1.878zM5.675 6.25h9.379a.75.75 0 0 0-.374-.971L8.335 2.32a.75.75 0 0 0-.996.363z" fill="#efae24" opacity="1" data-original="#000000" class=""></path></g></svg>