<svg xmlns="http://www.w3.org/2000/svg" version="1.1" xmlns:xlink="http://www.w3.org/1999/xlink" width="512" height="512" x="0" y="0" viewBox="0 0 64 64" style="enable-background:new 0 0 512 512" xml:space="preserve" class=""><g><path fill="#7FCB69" d="M32 8a24 24 0 1 0 24 24A24.032 24.032 0 0 0 32 8zm13.41 17.41-15 15a1.98 1.98 0 0 1-2.82 0l-7-7a1.994 1.994 0 0 1 2.82-2.82L29 36.17l13.59-13.58a1.994 1.994 0 0 1 2.82 2.82z" opacity="1" data-original="#7FCB69"></path><path fill="#ffffff" d="m45.41 25.41-15 15a1.98 1.98 0 0 1-2.82 0l-7-7a1.994 1.994 0 0 1 2.82-2.82L29 36.17l13.59-13.58a1.994 1.994 0 0 1 2.82 2.82z" opacity="1" data-original="#ffffff"></path></g></svg>