<svg xmlns="http://www.w3.org/2000/svg" version="1.1" xmlns:xlink="http://www.w3.org/1999/xlink" width="512" height="512" x="0" y="0" viewBox="0 0 682.667 682.667" style="enable-background:new 0 0 512 512" xml:space="preserve" class=""><g><defs><clipPath id="a" clipPathUnits="userSpaceOnUse"><path d="M0 512h512V0H0Z" fill="#000000" opacity="1" data-original="#000000"></path></clipPath></defs><g clip-path="url(#a)" transform="matrix(1.33333 0 0 -1.33333 0 682.667)"><path d="M0 0c0-38.66-31.34-70-70-70s-70 31.34-70 70 31.34 70 70 70S0 38.66 0 0Z" style="stroke-width:40;stroke-linecap:round;stroke-linejoin:round;stroke-miterlimit:10;stroke-dasharray:none;stroke-opacity:1" transform="translate(327 257)" fill="none" stroke="#000000" stroke-width="40" stroke-linecap="round" stroke-linejoin="round" stroke-miterlimit="10" stroke-dasharray="none" stroke-opacity="" data-original="#000000"></path><path d="M0 0c19.27-10.857 43.727-4.098 54.626 15.097 10.9 19.196 4.115 43.559-15.155 54.417l-1.236.701c-13.154 7.471-20.57 22.174-18.517 37.162a174.339 174.339 0 0 1 1.61 23.691c0 8.468-.611 16.793-1.789 24.934-2.175 15.025 5.3 29.812 18.502 37.309l1.43.813c19.27 10.857 26.055 35.22 15.155 54.416C43.727 267.735 19.27 274.494 0 263.637l-1.754-.996c-13.354-7.584-29.898-6.054-41.887 3.545A172.837 172.837 0 0 1-87.592 291.8c-14.2 5.666-23.58 19.328-23.58 34.617v.401c0 22.092-17.909 40-40 40s-40-17.908-40-40c0-15.359-9.465-29.068-23.759-34.687a172.792 172.792 0 0 1-44.442-25.679c-11.985-9.549-28.498-11.035-41.823-3.467l-1.147.652c-19.27 10.857-43.727 4.098-54.627-15.097-10.9-19.196-4.114-43.559 15.156-54.416l.321-.183c13.328-7.57 20.869-22.508 18.65-37.674a173.904 173.904 0 0 1-1.829-25.199c0-8.199.572-16.265 1.677-24.16 2.1-15.003-5.338-29.738-18.511-37.219l-.308-.175c-19.27-10.858-26.056-35.221-15.156-54.417C-346.07-4.098-321.614-10.857-302.344 0" style="stroke-width:40;stroke-linecap:round;stroke-linejoin:round;stroke-miterlimit:10;stroke-dasharray:none;stroke-opacity:1" transform="translate(407.172 125.182)" fill="none" stroke="#000000" stroke-width="40" stroke-linecap="round" stroke-linejoin="round" stroke-miterlimit="10" stroke-dasharray="none" stroke-opacity="" data-original="#000000"></path><path d="M0 0v0c0 56.042 45.485 102 101.593 102h18.814C176.515 102 222 56.042 222 0" style="stroke-width:40;stroke-linecap:round;stroke-linejoin:round;stroke-miterlimit:10;stroke-dasharray:none;stroke-opacity:1" transform="translate(147 20)" fill="none" stroke="#000000" stroke-width="40" stroke-linecap="round" stroke-linejoin="round" stroke-miterlimit="10" stroke-dasharray="none" stroke-opacity="" data-original="#000000"></path></g></g></svg>