<svg xmlns="http://www.w3.org/2000/svg" version="1.1" xmlns:xlink="http://www.w3.org/1999/xlink" width="512" height="512" x="0" y="0" viewBox="0 0 24 24" style="enable-background:new 0 0 512 512" xml:space="preserve" class=""><g><path d="M12 1.5C6.21 1.5 1.5 6.21 1.5 12S6.21 22.5 12 22.5 22.5 17.79 22.5 12 17.79 1.5 12 1.5zm-3.11 9.64 1.66.83c.58.29.95.88.95 1.53 0 1.1-.9 2-2 2s-2-.9-2-2c0-.28.22-.5.5-.5s.5.22.5.5c0 .55.45 1 1 1s1-.45 1-1c0-.27-.15-.52-.39-.64l-1.66-.83c-.58-.29-.95-.88-.95-1.53 0-1.1.9-2 2-2s2 .9 2 2c0 .28-.22.5-.5.5s-.5-.22-.5-.5c0-.55-.45-1-1-1s-1 .45-1 1c0 .27.15.52.39.64zm7.55-1.91-3 6c-.09.18-.26.28-.45.28a.488.488 0 0 1-.44-.72l3-6c.12-.25.42-.35.67-.22.25.12.35.42.22.67z" fill="#4bbc66" opacity="1" data-original="#000000" class=""></path></g></svg>