<svg xmlns="http://www.w3.org/2000/svg" version="1.1" xmlns:xlink="http://www.w3.org/1999/xlink" width="512" height="512" x="0" y="0" viewBox="0 0 32 32" style="enable-background:new 0 0 512 512" xml:space="preserve" class=""><g><path d="M9.213 23.835a.9.9 0 0 0 0 1.8h6.837a.9.9 0 0 0 0-1.8zM22.787 15.443H9.214a.9.9 0 0 0 0 1.8h13.573a.9.9 0 0 0 0-1.8zM23.688 20.54a.9.9 0 0 0-.9-.9H9.214a.9.9 0 0 0 0 1.8h13.573a.9.9 0 0 0 .901-.9z" fill="#000000" opacity="1" data-original="#000000" class=""></path><path d="M25.55 4.699h-8.633a.9.9 0 0 0 0 1.8h8.633c.965 0 1.75.78 1.75 1.74V27.35c0 .965-.785 1.75-1.75 1.75H6.45c-.965 0-1.75-.785-1.75-1.75V8.24c0-.96.785-1.74 1.75-1.74h5.562v3.026a.652.652 0 0 1-1.304 0v-.934a.9.9 0 0 0-1.8 0v.935c0 1.353 1.101 2.453 2.453 2.453s2.453-1.101 2.453-2.453V4.225c0-1.723-1.402-3.125-3.125-3.125S7.563 2.502 7.563 4.225V4.7H6.45a3.55 3.55 0 0 0-3.551 3.541V27.35a3.555 3.555 0 0 0 3.551 3.551h19.1a3.555 3.555 0 0 0 3.551-3.551V8.24a3.55 3.55 0 0 0-3.551-3.541zM9.364 4.225c0-.73.594-1.324 1.323-1.324.73 0 1.324.594 1.324 1.324V4.7H9.364z" fill="#000000" opacity="1" data-original="#000000" class=""></path></g></svg>