<svg xmlns="http://www.w3.org/2000/svg" version="1.1" xmlns:xlink="http://www.w3.org/1999/xlink" width="512" height="512" x="0" y="0" viewBox="0 0 512 512" style="enable-background:new 0 0 512 512" xml:space="preserve" class=""><g><path d="M437.5 34.193v71.41c0 10.6-8.6 19.193-19.209 19.193H297.543L256 173l-41.543-48.203H93.709c-10.609 0-19.209-8.593-19.209-19.193v-71.41C74.5 23.593 83.1 15 93.709 15H418.29c10.61 0 19.21 8.593 19.21 19.193zM182 371.748l45.75 16.39a43.93 43.93 0 0 1 26.93 27.71l21.78 68.55c3.14 9.6 13.46 14.83 23.06 11.69 17.59-5.74 28.77-22.08 28.77-39.63 0-4.3-.67-8.67-2.08-12.97l-15.09-48.09h73.43c22.68 0 39.88-20.46 35.97-42.8l-15.71-79.99c-3.94-22.53-23.5-38.97-46.37-38.97h-96.69c-6.33 0-12.53 1.26-18.27 3.63a47.646 47.646 0 0 0-15.49 10.35 47.744 47.744 0 0 1-33.77 13.99H182M106 232.398h76v170h-76z" style="stroke-width:30;stroke-linecap:round;stroke-linejoin:round;stroke-miterlimit:10;" fill="none" stroke="#000000" stroke-width="30" stroke-linecap="round" stroke-linejoin="round" stroke-miterlimit="10" data-original="#000000" class=""></path></g></svg>