<svg xmlns="http://www.w3.org/2000/svg" version="1.1" xmlns:xlink="http://www.w3.org/1999/xlink" width="512" height="512" x="0" y="0" viewBox="0 0 34 34" style="enable-background:new 0 0 512 512" xml:space="preserve" class=""><g><path d="M27.247 3.634a3.746 3.746 0 0 0-3.372 2.137L20.92 3.8a.994.994 0 0 0-.554-.168h-9.7a6.332 6.332 0 0 0-6.1 4.655l-1.941 7.126a4.245 4.245 0 0 0 4.1 5.36h4.167l-.759 3.791a5.342 5.342 0 0 0 1.148 4.543 4.929 4.929 0 0 0 3.457 1.761 2.667 2.667 0 0 0 .921-.158 2.574 2.574 0 0 0 1.581-2.678c0-3.809 4.455-6.876 6.582-8.125A3.749 3.749 0 0 0 31 18.4V7.386a3.757 3.757 0 0 0-3.753-3.752zm-12.011 24.4c0 .261-.035.714-.272.8a2.6 2.6 0 0 1-2.164-1.023 3.4 3.4 0 0 1-.71-2.854l1-4.987a1 1 0 0 0-.981-1.2H6.721a2.244 2.244 0 0 1-2.166-2.835L6.5 8.815a4.327 4.327 0 0 1 4.166-3.181h9.4L23.5 7.921v9.867c-1.96 1.052-8.264 4.861-8.264 10.244zM29 18.4a1.753 1.753 0 1 1-3.5 0V7.386a1.753 1.753 0 0 1 3.5 0z" data-name="Layer 2" fill="#000000" opacity="1" data-original="#000000" class=""></path></g></svg>