<svg xmlns="http://www.w3.org/2000/svg" version="1.1" xmlns:xlink="http://www.w3.org/1999/xlink" width="512" height="512" x="0" y="0" viewBox="0 0 512 512" style="enable-background:new 0 0 512 512" xml:space="preserve" class=""><g><circle cx="256" cy="55.167" r="40.167" style="stroke-width:30;stroke-linecap:round;stroke-linejoin:round;stroke-miterlimit:10;" fill="none" stroke="#000000" stroke-width="30" stroke-linecap="round" stroke-linejoin="round" stroke-miterlimit="10" data-original="#000000"></circle><path d="M256 95.333V159.6M175.667 336.333l24.1-24.1 24.1 24.1M288.133 336.333l24.1-24.1 24.1 24.1" style="stroke-width:30;stroke-linecap:round;stroke-linejoin:round;stroke-miterlimit:10;" fill="none" stroke="#000000" stroke-width="30" stroke-linecap="round" stroke-linejoin="round" stroke-miterlimit="10" data-original="#000000"></path><path d="M400.6 288.117a64.23 64.23 0 0 0-18.819-45.428 64.25 64.25 0 0 0-45.432-18.822h-.016l-16.067 16.067H191.733l-16.067-16.067h-.016a64.251 64.251 0 0 0-45.432 18.822 64.23 64.23 0 0 0-18.819 45.428v80.35a64.263 64.263 0 0 0 64.267 64.267h160.667a64.263 64.263 0 0 0 64.267-64.267v-80.35z" style="stroke-width:30;stroke-linecap:round;stroke-linejoin:round;stroke-miterlimit:10;" fill="none" stroke="#000000" stroke-width="30" stroke-linecap="round" stroke-linejoin="round" stroke-miterlimit="10" data-original="#000000"></path><path d="M464.867 288.133a128.549 128.549 0 0 0-37.647-90.889 128.55 128.55 0 0 0-90.887-37.644H175.666a128.552 128.552 0 0 0-90.887 37.644 128.55 128.55 0 0 0-37.647 90.889v80.333a128.549 128.549 0 0 0 37.647 90.889 128.55 128.55 0 0 0 90.887 37.644h160.667a128.552 128.552 0 0 0 90.887-37.644 128.55 128.55 0 0 0 37.647-90.889v-80.333z" style="stroke-width:30;stroke-linecap:round;stroke-linejoin:round;stroke-miterlimit:10;" fill="none" stroke="#000000" stroke-width="30" stroke-linecap="round" stroke-linejoin="round" stroke-miterlimit="10" data-original="#000000"></path></g></svg>