<svg xmlns="http://www.w3.org/2000/svg" version="1.1" xmlns:xlink="http://www.w3.org/1999/xlink" width="512" height="512" x="0" y="0" viewBox="0 0 512 512" style="enable-background:new 0 0 512 512" xml:space="preserve" class=""><g><path d="m414.031 204.312 46.446 25.932c20.189 11.272 20.189 40.24 0 51.512l-47.355 26.439-125.272 69.942a65.356 65.356 0 0 1-63.7 0L51.523 281.756c-20.189-11.272-20.189-40.24 0-51.512l45.246-25.262" style="stroke-width:40;stroke-linecap:round;stroke-linejoin:round;stroke-miterlimit:10;" fill="none" stroke="#000000" stroke-width="40" stroke-linecap="round" stroke-linejoin="round" stroke-miterlimit="10" data-original="#000000" class=""></path><path d="M224.15 272.56 51.523 176.179c-20.189-11.272-20.189-40.24 0-51.512L224.15 28.286a65.356 65.356 0 0 1 63.7 0l172.627 96.381c20.189 11.272 20.189 40.24 0 51.512L287.85 272.56a65.356 65.356 0 0 1-63.7 0zM97.231 310.301l-45.708 25.52c-20.189 11.272-20.189 40.24 0 51.512l172.627 96.381a65.356 65.356 0 0 0 63.7 0l2.099-1.172M377.271 433.789l83.206-46.456c20.189-11.272 20.189-40.24 0-51.512l-45.397-25.346" style="stroke-width:40;stroke-linecap:round;stroke-linejoin:round;stroke-miterlimit:10;" fill="none" stroke="#000000" stroke-width="40" stroke-linecap="round" stroke-linejoin="round" stroke-miterlimit="10" data-original="#000000" class=""></path></g></svg>