<svg xmlns="http://www.w3.org/2000/svg" version="1.1" xmlns:xlink="http://www.w3.org/1999/xlink" width="512" height="512" x="0" y="0" viewBox="0 0 32 32" style="enable-background:new 0 0 512 512" xml:space="preserve" class=""><g><path d="M26.93 30.16h-5.54a3.23 3.23 0 0 1-3.23-3.23v-5.47a1.23 1.23 0 0 0-1.23-1.23h-1.86a1.23 1.23 0 0 0-1.23 1.23v5.47a3.23 3.23 0 0 1-3.23 3.23H5.07a3.23 3.23 0 0 1-3.23-3.23v-11.1a3 3 0 0 1 .88-2.12l11-11a3.22 3.22 0 0 1 4.56 0l10.93 10.93a3.21 3.21 0 0 1 .95 2.28v11a3.23 3.23 0 0 1-3.23 3.24zM15.07 18.23h1.86a3.23 3.23 0 0 1 3.23 3.23v5.47a1.23 1.23 0 0 0 1.23 1.23h5.54a1.23 1.23 0 0 0 1.23-1.23v-11a1.26 1.26 0 0 0-.36-.87L16.87 4.12a1.23 1.23 0 0 0-1.74 0l-11 11a1 1 0 0 0-.29.71v11.1a1.23 1.23 0 0 0 1.23 1.23h5.54a1.23 1.23 0 0 0 1.23-1.23v-5.47a3.23 3.23 0 0 1 3.23-3.23z" data-name="01 home" fill="#000000" opacity="1" data-original="#000000" class=""></path></g></svg>