<svg xmlns="http://www.w3.org/2000/svg" xmlns:xlink="http://www.w3.org/1999/xlink" version="1.1" width="512" height="512" x="0" y="0" viewBox="0 0 179.386 179.386" style="enable-background:new 0 0 512 512" xml:space="preserve" class=""><script xmlns=""/><g><path d="M168.185 47.392 147.256 26.43c-3.653-3.653-9.578-3.666-13.231-.006-3.653 3.647-3.659 9.572-.006 13.226l3.866 3.869-3.312 3.319c-10.437-9.265-23.419-15.676-37.771-18.057v-3.839h6.235c6.887 0 12.471-5.59 12.471-12.471 0-6.887-5.584-12.47-12.471-12.47H65.625c-6.884 0-12.471 5.583-12.471 12.47 0 6.881 5.587 12.471 12.471 12.471h6.235v3.839C35.95 34.754 8.466 65.954 8.466 103.527c0 41.833 34.032 75.858 75.865 75.858 41.832 0 75.864-34.025 75.864-75.858 0-15.819-4.877-30.507-13.188-42.673l3.154-3.16c.328-.326.621-.63.925-.943l3.861 3.86a9.312 9.312 0 0 0 6.618 2.743c2.394 0 4.78-.91 6.607-2.731 3.654-3.653 3.666-9.572.013-13.231zM84.337 154.451c-28.077 0-50.923-22.841-50.923-50.917 0-28.084 22.846-50.924 50.923-50.924s50.924 22.84 50.924 50.924c0 28.076-22.847 50.917-50.924 50.917zm34.16-81.071c4.871 4.872-18.554 36.2-23.419 41.06-4.868 4.871-12.769 4.871-17.637 0-4.871-4.872-4.871-12.763 0-17.634 4.869-4.872 36.185-28.288 41.056-23.426z" fill="#f96161" opacity="1" data-original="#000000" class=""/></g></svg>