<svg xmlns="http://www.w3.org/2000/svg" version="1.1" xmlns:xlink="http://www.w3.org/1999/xlink" width="512" height="512" x="0" y="0" viewBox="0 0 34 34" style="enable-background:new 0 0 512 512" xml:space="preserve" class=""><g><path d="M30.127 15.4a4.212 4.212 0 0 0-3.374-1.668h-4.166l.758-3.791A5.338 5.338 0 0 0 22.2 5.393c-1.01-1.187-2.885-2.151-4.378-1.6a2.574 2.574 0 0 0-1.581 2.678c0 3.809-4.454 6.876-6.581 8.125A3.749 3.749 0 0 0 2.475 16.1v11.014A3.744 3.744 0 0 0 9.6 28.729l2.954 1.971a1 1 0 0 0 .555.168h9.7a6.333 6.333 0 0 0 6.095-4.655l1.943-7.123a4.212 4.212 0 0 0-.72-3.69zM7.98 27.114a1.753 1.753 0 0 1-3.505 0V16.1a1.753 1.753 0 1 1 3.505 0zm20.939-8.552-1.942 7.123a4.329 4.329 0 0 1-4.166 3.181h-9.4L9.98 26.579v-9.867c1.954-1.052 8.258-4.861 8.258-10.244 0-.261.035-.714.272-.8a2.594 2.594 0 0 1 2.165 1.022 3.4 3.4 0 0 1 .709 2.854l-1 4.987a1 1 0 0 0 .98 1.2h5.386a2.244 2.244 0 0 1 2.166 2.835z" data-name="Layer 2" fill="#000000" opacity="1" data-original="#000000"></path></g></svg>