<svg xmlns="http://www.w3.org/2000/svg" version="1.1" xmlns:xlink="http://www.w3.org/1999/xlink" width="512" height="512" x="0" y="0" viewBox="0 0 100 100" style="enable-background:new 0 0 512 512" xml:space="preserve" fill-rule="evenodd" class=""><g><path d="M21.884 31.251h33.927a3.126 3.126 0 0 0 0-6.25H21.884a3.127 3.127 0 0 0-3.125 3.125 3.127 3.127 0 0 0 3.125 3.125zM21.884 75.001h26.279c1.724 0 3.125-1.4 3.125-3.125a3.127 3.127 0 0 0-3.125-3.125H21.884a3.127 3.127 0 0 0-3.125 3.125 3.127 3.127 0 0 0 3.125 3.125zM21.884 53.125h19.709a3.126 3.126 0 0 0 0-6.25H21.884c-1.724 0-3.125 1.4-3.125 3.125s1.401 3.125 3.125 3.125zM69.463 35.868c-11.419 0-20.69 9.271-20.69 20.69 0 11.42 9.271 20.691 20.69 20.691 11.42 0 20.691-9.271 20.691-20.691 0-11.419-9.271-20.69-20.691-20.69zm0 6.25c7.97 0 14.441 6.47 14.441 14.44s-6.471 14.441-14.441 14.441-14.44-6.471-14.44-14.441 6.47-14.44 14.44-14.44z" fill="#000000" opacity="1" data-original="#000000" class=""></path><path d="M64.614 50.46v7.98a3.128 3.128 0 0 0 3.136 3.125l8.783-.032a3.126 3.126 0 0 0-.023-6.25l-5.646.02V50.46a3.126 3.126 0 0 0-6.25 0z" fill="#000000" opacity="1" data-original="#000000" class=""></path><path d="M75 78.745a22.867 22.867 0 0 1-6.25.665v3.402a1.562 1.562 0 0 1-1.562 1.563H17.297a1.562 1.562 0 0 1-1.562-1.562V17.187c0-.863.699-1.562 1.562-1.562h49.891a1.562 1.562 0 0 1 1.562 1.563v16.518a22.916 22.916 0 0 1 6.25.665V17.188a7.814 7.814 0 0 0-7.812-7.813H17.297a7.812 7.812 0 0 0-7.812 7.812v65.626a7.812 7.812 0 0 0 7.812 7.812h49.891A7.812 7.812 0 0 0 75 82.812z" fill="#000000" opacity="1" data-original="#000000" class=""></path></g></svg>