<svg xmlns="http://www.w3.org/2000/svg" version="1.1" xmlns:xlink="http://www.w3.org/1999/xlink" width="512" height="512" x="0" y="0" viewBox="0 0 512 512" style="enable-background:new 0 0 512 512" xml:space="preserve" class=""><g><path d="M492 180H373.145c-16.565 46.717-61.293 80.219-113.64 79.997h.968c-.157.002-.315.003-.473.003-22.091 0-40-17.909-40-40s17.909-40 40-40 40-17.909 40-40-17.909-40-40-40-40 17.909-40 40v80c0 22.091-17.909 40-40 40s-40-17.909-40-40V100c0-44.183 35.817-80 80-80h272v160z" style="stroke-width:40;stroke-miterlimit:10;" fill="none" stroke="#000000" stroke-width="40" stroke-miterlimit="10" data-original="#000000" class=""></path><path d="M227.98 243.977 300 340v152H140V340l72.02-96.023M140 340h160M220 400v-60M220 20H20v40c0 22.091 17.909 40 40 40h80" style="stroke-width:40;stroke-miterlimit:10;" fill="none" stroke="#000000" stroke-width="40" stroke-miterlimit="10" data-original="#000000" class=""></path></g></svg>