<svg xmlns="http://www.w3.org/2000/svg" version="1.1" xmlns:xlink="http://www.w3.org/1999/xlink" width="512" height="512" x="0" y="0" viewBox="0 0 513.008 513.008" style="enable-background:new 0 0 512 512" xml:space="preserve" class=""><g><path d="M492.504 20v472h-472V20" style="stroke-width:40;stroke-linecap:round;stroke-linejoin:round;stroke-miterlimit:10;" fill="none" stroke="#000000" stroke-width="40" stroke-linecap="round" stroke-linejoin="round" stroke-miterlimit="10" data-original="#000000" class=""></path><path d="M252.504 20v92l40 40 40-40V20zM292.504 152v20c0 22.091 17.909 40 40 40h40c22.091 0 40 17.909 40 40s-17.909 40-40 40h-40M20.504 372h472M180.504 372v-80h152v80M20.504 60h232M332.504 60h160M412.504 452v41.008M332.504 452v41.008M100.504 452v41.008" style="stroke-width:40;stroke-linecap:round;stroke-linejoin:round;stroke-miterlimit:10;" fill="none" stroke="#000000" stroke-width="40" stroke-linecap="round" stroke-linejoin="round" stroke-miterlimit="10" data-original="#000000" class=""></path></g></svg>