<svg xmlns="http://www.w3.org/2000/svg" version="1.1" xmlns:xlink="http://www.w3.org/1999/xlink" width="512" height="512" x="0" y="0" viewBox="0 0 512 512" style="enable-background:new 0 0 512 512" xml:space="preserve" class=""><g><path d="M461.631 67.639 261.282.856a16.732 16.732 0 0 0-10.565 0L50.369 67.639a16.695 16.695 0 0 0-11.413 15.838v133.86C38.955 408.926 209.491 512 256 512c33.369 0 217.044-90.703 217.044-294.664V83.476a16.694 16.694 0 0 0-11.413-15.837zm-55.37 149.734c0 145.067-125.572 222.996-150.262 223.024V70.56c4.982.01 134.11 43.583 138.837 45.154a16.7 16.7 0 0 1 11.424 15.842v85.817z" fill="#ea7134" opacity="1" data-original="#000000" class=""></path></g></svg>