<svg xmlns="http://www.w3.org/2000/svg" version="1.1" xmlns:xlink="http://www.w3.org/1999/xlink" width="512" height="512" x="0" y="0" viewBox="0 0 32 32" style="enable-background:new 0 0 512 512" xml:space="preserve" class=""><g><path d="M21 10.997a1 1 0 0 0-1 1c0 2.206-1.794 4-4 4s-4-1.794-4-4a1 1 0 0 0-2 0c0 3.309 2.691 6 6 6s6-2.691 6-6a1 1 0 0 0-1-1z" fill="#000000" opacity="1" data-original="#000000" class=""></path><path d="M29.256 24.218 26.933 9.532A2.986 2.986 0 0 0 23.97 7h-2.06C21.43 4.167 18.967 2 16 2s-5.431 2.167-5.91 5H8.03a2.986 2.986 0 0 0-2.963 2.532L2.744 24.218a4.995 4.995 0 0 0 1.137 4.03A4.993 4.993 0 0 0 7.683 30h16.634c1.465 0 2.85-.639 3.802-1.752a4.995 4.995 0 0 0 1.137-4.03zM16 4c1.858 0 3.41 1.28 3.858 3h-7.716c.447-1.72 2-3 3.858-3zm10.598 22.948A2.996 2.996 0 0 1 24.317 28H7.683c-.879 0-1.71-.383-2.281-1.052a2.995 2.995 0 0 1-.683-2.417L7.042 9.844A.995.995 0 0 1 8.03 9h15.94c.495 0 .91.355.988.844l2.323 14.687a2.995 2.995 0 0 1-.683 2.417z" fill="#000000" opacity="1" data-original="#000000" class=""></path></g></svg>