<svg xmlns="http://www.w3.org/2000/svg" version="1.1" xmlns:xlink="http://www.w3.org/1999/xlink" width="512" height="512" x="0" y="0" viewBox="0 0 16 16" style="enable-background:new 0 0 512 512" xml:space="preserve" fill-rule="evenodd" class=""><g><path d="M7.836 1.75A6.253 6.253 0 0 0 1.586 8a6.242 6.242 0 0 0 2.657 5.113.75.75 0 1 0 .863-1.226 4.752 4.752 0 0 1 2.73-8.637.75.75 0 0 0 0-1.5zM8.238 14.237A6.254 6.254 0 0 0 14.086 8a6.24 6.24 0 0 0-2.199-4.758.75.75 0 0 0-.973 1.142A4.737 4.737 0 0 1 12.586 8a4.753 4.753 0 0 1-4.444 4.74.75.75 0 0 0 .096 1.497z" fill="#000000" opacity="1" data-original="#000000"></path><path d="M13.664 2.75h-2.828a.75.75 0 0 0-.75.75v2.828a.75.75 0 0 0 1.5 0V4.25h2.078a.75.75 0 0 0 0-1.5zM2.336 13.75h2.828a.75.75 0 0 0 .75-.75v-2.828a.75.75 0 0 0-1.5 0v2.078H2.336a.75.75 0 0 0 0 1.5z" fill="#000000" opacity="1" data-original="#000000"></path></g></svg>