<svg xmlns="http://www.w3.org/2000/svg" version="1.1" xmlns:xlink="http://www.w3.org/1999/xlink" width="512" height="512" x="0" y="0" viewBox="0 0 24 24" style="enable-background:new 0 0 512 512" xml:space="preserve" fill-rule="evenodd" class=""><g><path d="M21.75 10c0-.729-.29-1.429-.805-1.945A2.755 2.755 0 0 0 19 7.25H5c-.729 0-1.429.29-1.945.805A2.755 2.755 0 0 0 2.25 10v10c0 .729.29 1.429.805 1.945A2.755 2.755 0 0 0 5 22.75h14c.729 0 1.429-.29 1.945-.805A2.755 2.755 0 0 0 21.75 20zm-1.5 0v10A1.252 1.252 0 0 1 19 21.25H5A1.252 1.252 0 0 1 3.75 20V10A1.252 1.252 0 0 1 5 8.75h14A1.252 1.252 0 0 1 20.25 10z" fill="#000000" opacity="1" data-original="#000000"></path><path d="m12.422 5.053.959-2.056 4.985 2.324-1.102 2.362a.75.75 0 0 0 1.36.634l1.418-3.042a.75.75 0 0 0-.362-.996L13.335 1.32a.75.75 0 0 0-.996.363L11.063 4.42a.75.75 0 1 0 1.359.633z" fill="#000000" opacity="1" data-original="#000000"></path><path d="m6.367 8.317 2.014-4.32 4.985 2.324-.635 1.362a.75.75 0 0 0 1.359.634l.952-2.042a.75.75 0 0 0-.362-.996L8.335 2.32a.75.75 0 0 0-.996.363l-2.332 5a.75.75 0 0 0 1.36.634zM21.75 12a.75.75 0 0 0-.75-.75h-4.001a2.75 2.75 0 0 0-2.75 2.75v2a2.75 2.75 0 0 0 2.75 2.75H21a.75.75 0 0 0 .75-.75zm-1.5.75v4.5h-3.251c-.69 0-1.25-.56-1.25-1.25v-2c0-.69.56-1.25 1.25-1.25z" fill="#000000" opacity="1" data-original="#000000"></path><circle cx="17.5" cy="15" r="1" fill="#000000" opacity="1" data-original="#000000"></circle></g></svg>