<?xml version="1.0" standalone="no"?>
<!DOCTYPE svg PUBLIC "-//W3C//DTD SVG 20010904//EN"
 "http://www.w3.org/TR/2001/REC-SVG-20010904/DTD/svg10.dtd">
<svg version="1.0" xmlns="http://www.w3.org/2000/svg"
 width="512.000000pt" height="512.000000pt" viewBox="0 0 512.000000 512.000000"
 preserveAspectRatio="xMidYMid meet">
<metadata>
Created by potrace 1.16, written by Peter Selinger 2001-2019
</metadata>
<g transform="translate(0.000000,512.000000) scale(0.100000,-0.100000)"
fill="#000000" stroke="none">
<path d="M2320 5105 c-304 -56 -577 -204 -785 -427 -225 -242 -353 -545 -371
-882 -7 -132 10 -252 62 -424 105 -347 373 -904 727 -1512 l55 -95 -67 -8
c-122 -14 -315 -48 -420 -73 -350 -86 -563 -208 -634 -362 -31 -67 -30 -180 1
-244 70 -143 251 -254 540 -334 815 -223 2112 -155 2609 137 76 45 163 132
194 194 33 67 34 178 2 247 -90 196 -416 343 -928 417 -77 11 -152 22 -166 23
-27 3 -26 4 66 164 392 681 658 1262 732 1604 23 111 23 328 -1 453 -86 443
-368 810 -776 1007 -103 50 -244 94 -364 115 -110 19 -371 19 -476 0z m410
-306 c486 -70 878 -496 916 -997 15 -199 -68 -461 -303 -953 -171 -356 -688
-1275 -742 -1316 -20 -16 -61 -16 -82 0 -54 42 -571 960 -744 1320 -232 488
-316 750 -301 944 30 389 257 729 601 899 218 107 412 138 655 103z m-525
-3366 c98 -183 286 -263 476 -203 83 26 152 79 205 159 24 35 45 68 46 73 2 6
61 3 151 -7 269 -29 497 -78 662 -141 88 -34 195 -96 195 -113 0 -30 -167
-109 -330 -156 -292 -84 -599 -119 -1050 -119 -451 0 -754 35 -1052 120 -161
46 -328 125 -328 155 0 17 107 79 195 113 183 70 547 141 790 155 14 1 27 -11
40 -36z"/>
<path d="M2474 4380 c-173 -24 -341 -145 -417 -302 -45 -95 -58 -153 -58 -260
0 -159 58 -295 172 -403 115 -108 233 -155 389 -155 161 0 293 55 403 168 107
111 158 238 158 390 0 107 -13 165 -59 261 -102 211 -342 334 -588 301z m155
-316 c65 -19 136 -81 164 -143 23 -52 25 -142 4 -192 -67 -160 -274 -210 -402
-97 -148 130 -100 364 87 429 66 23 81 23 147 3z"/>
<path d="M383 1506 c-199 -123 -321 -256 -365 -399 -16 -55 -20 -87 -16 -166
3 -90 7 -105 42 -176 126 -255 488 -464 1047 -605 433 -109 902 -160 1467
-160 569 0 1007 47 1447 155 449 110 748 249 936 435 80 78 103 109 135 175
34 72 39 89 42 177 7 153 -39 267 -156 392 -45 48 -172 143 -247 186 -50 29
-63 32 -116 28 -53 -4 -64 -9 -96 -40 -31 -31 -37 -45 -41 -91 -7 -83 14 -116
111 -178 221 -140 282 -245 209 -360 -137 -213 -641 -412 -1292 -509 -562 -83
-1289 -83 -1856 0 -651 95 -1159 295 -1296 509 -73 115 -12 220 209 360 97 62
118 95 111 178 -4 46 -10 60 -41 91 -33 33 -42 36 -99 39 -60 4 -67 1 -135
-41z"/>
</g>
</svg>
