<svg xmlns="http://www.w3.org/2000/svg" version="1.1" xmlns:xlink="http://www.w3.org/1999/xlink" width="512" height="512" x="0" y="0" viewBox="0 0 512 512" style="enable-background:new 0 0 512 512" xml:space="preserve" class=""><g><path d="M32 464V48c0-8.837 7.163-16 16-16h240v64c0 17.673 14.327 32 32 32h64v48h32v-64a15.997 15.997 0 0 0-4.64-11.36l-96-96A16.001 16.001 0 0 0 304 0H48C21.49 0 0 21.491 0 48v416c0 26.51 21.49 48 48 48h112v-32H48c-8.836 0-16-7.163-16-16z" fill="#000000" opacity="1" data-original="#000000" class=""></path><path d="M321.76 264.8 304 300.16l-17.76-35.36A16 16 0 0 0 272 256h-32v32h22.08l24 48-24 48H240v32h32a16 16 0 0 0 14.24-8.8L304 371.84l17.76 35.36A16 16 0 0 0 336 416h32v-32h-22.08l-24-48 24-48H368v-32h-32a16.002 16.002 0 0 0-14.24 8.8zM96 288h48v128h32V288h48v-32H96zM384 256v32h48v128h32V288h48v-32z" fill="#000000" opacity="1" data-original="#000000" class=""></path></g></svg>