<svg xmlns="http://www.w3.org/2000/svg" version="1.1" xmlns:xlink="http://www.w3.org/1999/xlink" width="512" height="512" x="0" y="0" viewBox="0 0 20 20" style="enable-background:new 0 0 512 512" xml:space="preserve" class=""><g><path d="M19.8 10.5c-.3-.4-1-.5-1.4-.2l-.4.4V10c0-4.4-3.6-8-8-8-1.6 0-3.2.5-4.6 1.4-.4.4-.5 1-.2 1.4.3.5.9.6 1.4.2 1-.6 2.2-1 3.4-1 3.3 0 6 2.7 6 6 0 .2 0 .5-.1.8l-.7-.9c-.3-.4-1-.5-1.4-.2s-.5 1-.2 1.4l2 2.6c.4.5 1 .5 1.4.2l2.6-2c.5-.3.5-.9.2-1.4zM13.4 14.9c-1 .7-2.2 1.1-3.4 1.1-3.3 0-6-2.7-6-6 0-.2 0-.5.1-.8l.7.9c.5.6 1.2.3 1.4.2.4-.3.5-1 .2-1.4l-2-2.6c-.4-.5-1-.5-1.4-.2l-2.6 2c-.4.3-.5 1-.2 1.4s1 .5 1.4.2l.4-.4v.7c0 4.4 3.6 8 8 8 1.6 0 3.2-.5 4.6-1.4.5-.3.6-.9.2-1.4-.3-.5-.9-.6-1.4-.3z" fill="#000000" opacity="1" data-original="#000000" class=""></path></g></svg>