<svg xmlns="http://www.w3.org/2000/svg" version="1.1" xmlns:xlink="http://www.w3.org/1999/xlink" width="512" height="512" x="0" y="0" viewBox="0 0 512 512" style="enable-background:new 0 0 512 512" xml:space="preserve" class=""><g><path d="M502.62 482.973a66.352 66.352 0 0 1-11.615-6.175c-16.899-11.266-36.848-22.65-56.644-22.085-27.001-55.538-83.739-92.823-148.369-92.823h-15.625L239.35 184.259c12.553.498 24.741 4.396 35.484 11.463 6.817 6.136 17.517 4.659 22.584-2.604 22.077-31.501 65.651-39.195 97.177-17.158 10.917 7.724 25.747-1.702 23.429-14.847C399.356 55.253 298.047-15.685 192.186 2.981 86.077 21.691 15.342 122.699 34.054 228.818c2.321 13.17 19.422 16.893 27.065 5.978 22.079-31.533 65.699-39.226 97.259-17.131 7.344 5.141 17.791 2.676 22.044-5.259 7.641-10.303 17.759-18.149 29.395-22.926l30.106 172.409H226.01c-65.287 0-121.653 37.902-148.354 92.796-19.308-.264-38.684 10.529-55.161 21.514a66.315 66.315 0 0 1-12.836 6.661c-7.725 2.987-11.565 11.67-8.578 19.395 2.986 7.724 11.67 11.566 19.395 8.578a96.278 96.278 0 0 0 18.655-9.679c22.231-14.821 52.106-20.267 74.339-5.446 32.472 21.649 74.32 21.728 106.612.2 22.275-14.85 51.063-14.85 73.339 0C309.512 506.638 327.977 512 346.476 512c18.617 0 37.266-5.432 53.554-16.292 22.231-14.821 52.106-8.778 74.338 6.044a96.381 96.381 0 0 0 16.879 8.973c7.662 3.14 16.422-.527 19.562-8.19 3.142-7.664-.525-16.422-8.189-19.562zM147.379 179.354c-29.309-8.897-61.311-3.752-86.33 13.732.582-62.66 37.085-118.712 91.087-145.67-12.527 38.963-10.705 91.186-4.757 131.938zm233.023-42.593c-29.479-7.857-61.287-1.747-85.772 16.627-8.366-40.409-24.538-90.018-49.563-122.294 60.672 7.077 113.51 47.704 135.335 105.667zm-161.258 18.964c-.999-.001-22.246 3.265-42.26 18.177-12.225-85.112 5.056-138.654 20.508-141.385h.004c15.125-2.656 49.816 40.748 67.634 125.84-19.99-5.992-40.084-4.232-45.886-2.632zm164.251 315.028c-22.368 14.913-51.155 14.991-73.339.2-32.382-21.588-74.23-21.588-106.612 0-22.185 14.789-50.972 14.711-73.339-.2-6.73-4.487-13.948-8.022-21.444-10.632 23.776-41.94 68.164-68.24 117.348-68.24h59.984c49.376 0 93.89 26.48 117.602 68.684-7.051 2.564-13.844 5.952-20.2 10.188z" fill="#000000" opacity="1" data-original="#000000" class=""></path></g></svg>