<svg xmlns="http://www.w3.org/2000/svg" version="1.1" xmlns:xlink="http://www.w3.org/1999/xlink" width="512" height="512" x="0" y="0" viewBox="0 0 24 24" style="enable-background:new 0 0 512 512" xml:space="preserve" fill-rule="evenodd" class=""><g><path d="M20 22.75c.729 0 1.429-.29 1.945-.805A2.755 2.755 0 0 0 22.75 20V8.8a2.75 2.75 0 0 0-1.335-2.358l-8-4.8a2.748 2.748 0 0 0-2.83 0l-8 4.8A2.75 2.75 0 0 0 1.25 8.8V20c0 .729.29 1.429.805 1.945A2.755 2.755 0 0 0 4 22.75zm0-1.5H4A1.252 1.252 0 0 1 2.75 20V8.8c0-.439.23-.846.607-1.072l8-4.8c.396-.237.89-.237 1.286 0l8 4.8c.377.226.607.633.607 1.072V20A1.252 1.252 0 0 1 20 21.25z" fill="#000000" opacity="1" data-original="#000000"></path><path d="M6.25 22V12a.25.25 0 0 1 .25-.25h11a.25.25 0 0 1 .25.25v10a.75.75 0 0 0 1.5 0V12a1.75 1.75 0 0 0-1.75-1.75h-11A1.75 1.75 0 0 0 4.75 12v10a.75.75 0 0 0 1.5 0zM10 8.418h4a.75.75 0 0 0 0-1.5h-4a.75.75 0 0 0 0 1.5z" fill="#000000" opacity="1" data-original="#000000"></path><path d="M16.75 18a.75.75 0 0 0-.75-.75h-4a.75.75 0 0 0-.75.75v4c0 .414.336.75.75.75h4a.75.75 0 0 0 .75-.75zm-1.5.75v2.5h-2.5v-2.5z" fill="#000000" opacity="1" data-original="#000000"></path><path d="M14.75 14a.75.75 0 0 0-.75-.75h-4a.75.75 0 0 0-.75.75v4c0 .414.336.75.75.75h4a.75.75 0 0 0 .75-.75zm-1.5.75v2.5h-2.5v-2.5z" fill="#000000" opacity="1" data-original="#000000"></path><path d="M12.75 18a.75.75 0 0 0-.75-.75H8a.75.75 0 0 0-.75.75v4c0 .414.336.75.75.75h4a.75.75 0 0 0 .75-.75zm-1.5.75v2.5h-2.5v-2.5z" fill="#000000" opacity="1" data-original="#000000"></path></g></svg>