<svg xmlns="http://www.w3.org/2000/svg" version="1.1" xmlns:xlink="http://www.w3.org/1999/xlink" width="512" height="512" x="0" y="0" viewBox="0 0 32 32" style="enable-background:new 0 0 512 512" xml:space="preserve" class=""><g><path d="M16 2a14 14 0 1 0 14 14A14 14 0 0 0 16 2zm0 26c-1.25 0-2.88-2.57-3.61-7h7.22c-.73 4.43-2.36 7-3.61 7zm-3.86-9c-.09-.94-.14-1.94-.14-3s.05-2.06.14-3h7.72c.09.94.14 1.94.14 3s-.05 2.06-.14 3zM4 16a12.33 12.33 0 0 1 .39-3h5.75c-.09 1-.14 2-.14 3s.05 2 .14 3H4.39A12.33 12.33 0 0 1 4 16zM16 4c1.25 0 2.88 2.57 3.61 7h-7.22c.73-4.43 2.36-7 3.61-7zm5.86 9h5.75a11.73 11.73 0 0 1 0 6h-5.75c.14-1 .14-2 .14-3s0-2-.14-3zm5-2h-5.24a18.87 18.87 0 0 0-2.08-6.47A12.07 12.07 0 0 1 26.89 11zm-14.4-6.47A18.87 18.87 0 0 0 10.38 11H5.11a12.07 12.07 0 0 1 7.35-6.47zM5.11 21h5.27a18.87 18.87 0 0 0 2.08 6.47A12.07 12.07 0 0 1 5.11 21zm14.43 6.47A18.87 18.87 0 0 0 21.62 21h5.27a12.07 12.07 0 0 1-7.35 6.47z" fill="#000000" opacity="1" data-original="#000000"></path></g></svg>