<svg xmlns="http://www.w3.org/2000/svg" version="1.1" xmlns:xlink="http://www.w3.org/1999/xlink" width="512" height="512" x="0" y="0" viewBox="0 0 24 24" style="enable-background:new 0 0 512 512" xml:space="preserve" class=""><g><path d="M14.25 0H2.75C1.23 0 0 1.23 0 2.75v15.5C0 19.77 1.23 21 2.75 21h7.38l.22-1.23c.1-.56.36-1.06.76-1.47L17 12.42V2.75C17 1.23 15.77 0 14.25 0zM4 4h4c.55 0 1 .45 1 1s-.45 1-1 1H4c-.55 0-1-.45-1-1s.45-1 1-1zm5 10H4c-.55 0-1-.45-1-1s.45-1 1-1h5c.55 0 1 .45 1 1s-.45 1-1 1zm4-4H4c-.55 0-1-.45-1-1s.45-1 1-1h9c.55 0 1 .45 1 1s-.45 1-1 1zM12.528 24a.748.748 0 0 1-.738-.881l.53-3.005a.753.753 0 0 1 .208-.4l7.425-7.424c.912-.914 1.808-.667 2.298-.177l1.237 1.237a1.75 1.75 0 0 1 0 2.475l-7.425 7.425a.739.739 0 0 1-.4.208l-3.005.53a.715.715 0 0 1-.13.012zm3.005-1.28h.01z" fill="#50afc3" opacity="1" data-original="#000000" class=""></path></g></svg>