<svg xmlns="http://www.w3.org/2000/svg" version="1.1" xmlns:xlink="http://www.w3.org/1999/xlink" width="512" height="512" x="0" y="0" viewBox="0 0 512 512" style="enable-background:new 0 0 512 512" xml:space="preserve" class=""><g><path d="M258 404.93a141.07 141.07 0 0 1 236.79-103.61q1-72.31-1.2-144.62c-.8-33.12-19.5-66.37-50.83-82.8-16.1-8.51-32.78-16.7-49.65-24.46-66.66 21.56-144.73 50-223.47 85.21a44.44 44.44 0 0 0-26.43 38.68c-1.23 38-1.61 77.22-1.11 116a5.32 5.32 0 0 1-9.61 3.33q-12.5-16-24.42-31.64a4 4 0 0 0-5.31-1.09q-9.27 5.52-18.21 10.89c-3.34 2-7.45-.67-7.47-4.78-.2-38.63.76-77.36 2.83-114.9.87-15.83 10.8-30.74 25.49-38 75.52-37.3 156.09-67.77 224.84-90.32-16-6.26-31.91-12-47.44-17.44a99.49 99.49 0 0 0-64.62 0C166.36 23.26 109.77 46.6 58.21 73.9c-31.32 16.43-50 49.68-50.83 82.8q-3.06 99.3 0 198.6c.8 33.12 19.51 66.37 50.83 82.8 51.56 27.3 108.15 50.64 160 68.51a99.49 99.49 0 0 0 64.62 0q6.79-2.34 13.71-4.83A140.07 140.07 0 0 1 258 404.93z" fill="#e2628e" opacity="1" data-original="#000000"></path><path d="M399.07 297.87a107.07 107.07 0 1 0 107.08 107.06 107.07 107.07 0 0 0-107.08-107.06zm61.07 89.34-64.36 67.58a18.84 18.84 0 0 1-13.58 5.86h-.09a18.91 18.91 0 0 1-13.55-5.73l-34.15-35.18a18.88 18.88 0 0 1 27.1-26.3L382 414.53l50.81-53.36a18.88 18.88 0 0 1 27.35 26z" fill="#e2628e" opacity="1" data-original="#000000"></path></g></svg>