<svg xmlns="http://www.w3.org/2000/svg" version="1.1" xmlns:xlink="http://www.w3.org/1999/xlink" width="512" height="512" x="0" y="0" viewBox="0 0 512 512" style="enable-background:new 0 0 512 512" xml:space="preserve" class=""><g><path fill-rule="evenodd" d="M185.086 233.561H45.539c-10.121 0-18.33-8.21-18.33-18.331s8.209-18.33 18.33-18.33h139.547l-20.182-20.186c-7.158-7.159-7.155-18.765-.001-25.924 7.157-7.162 18.762-7.159 25.921-.001l51.479 51.479c7.159 7.159 7.159 18.766 0 25.925l-51.479 51.479a18.29 18.29 0 0 1-12.958 5.373 18.27 18.27 0 0 1-12.963-5.373c-7.155-7.158-7.156-18.767 0-25.924zm74.595 196.895v25.515c0 20.458 10.191 38.125 27.909 48.356 8.533 4.927 18.044 7.672 27.919 7.672s19.386-2.745 27.919-7.672l113.454-65.502c17.721-10.231 27.909-27.891 27.909-48.352V55.837C484.791 25.049 459.755 0 428.964 0H179.095c-30.792 0-55.842 25.045-55.842 55.837v70.543c0 10.124 8.206 18.331 18.33 18.331 10.126 0 18.335-8.204 18.335-18.331V55.837c0-10.575 8.601-19.171 19.176-19.171h218.949L287.6 100.438c-17.721 10.232-27.918 27.893-27.918 48.356V393.79h-80.587c-10.572 0-19.176-8.593-19.176-19.167v-61.845c0-10.127-8.209-18.331-18.335-18.331-10.124 0-18.33 8.207-18.33 18.331v61.845c0 30.793 25.05 55.833 55.842 55.833z" clip-rule="evenodd" fill="#efae24" opacity="1" data-original="#000000" class=""></path></g></svg>