<svg xmlns="http://www.w3.org/2000/svg" version="1.1" xmlns:xlink="http://www.w3.org/1999/xlink" width="512" height="512" x="0" y="0" viewBox="0 0 469.333 469.333" style="enable-background:new 0 0 512 512" xml:space="preserve" class=""><g transform="matrix(0.8500000000000001,0,0,0.8500000000000001,35.200048828125006,35.200048828125006)"><circle cx="234.667" cy="128" r="128" fill="#88b262" opacity="1" data-original="#000000" class=""></circle><path d="M416.833 325.438c-20.167-10.344-52.292-24.854-90.708-35.219-5.333-1.5-10.958 1.469-12.813 6.698l-43.721 121.974-13.237-66.203 20.438-61.313a10.638 10.638 0 0 0-1.479-9.615 10.633 10.633 0 0 0-8.646-4.427h-64a10.633 10.633 0 0 0-8.646 4.427 10.634 10.634 0 0 0-1.479 9.615l20.438 61.313-13.237 66.203-43.721-121.974c-1.854-5.229-7.5-8.188-12.813-6.698-38.417 10.365-70.542 24.875-90.708 35.219C20.125 342.063 0 374.875 0 411.052v15.615c0 23.531 19.146 42.667 42.667 42.667h384c23.521 0 42.667-19.135 42.667-42.667v-15.615c-.001-36.177-20.126-68.989-52.501-85.614z" fill="#88b262" opacity="1" data-original="#000000" class=""></path></g></svg>