<svg xmlns="http://www.w3.org/2000/svg" version="1.1" xmlns:xlink="http://www.w3.org/1999/xlink" width="512" height="512" x="0" y="0" viewBox="0 0 512 512" style="enable-background:new 0 0 512 512" xml:space="preserve" class=""><g transform="matrix(0.9000000000000002,0,0,0.9000000000000002,25.599999809265086,25.60002555847157)"><path d="M79.002 286.619h45.633v33.683H79.002z" fill="#508dc3" opacity="1" data-original="#000000" class=""></path><path d="M481.659 197.397H30.341c-16.544 0-29.955 13.411-29.955 29.955v254.694C.386 498.589 13.797 512 30.341 512h451.318c16.544 0 29.955-13.411 29.955-29.955V227.352c0-16.544-13.411-29.955-29.955-29.955zM121.196 447.001H47.054v-29.955h74.142zm33.394-121.706c0 13.764-11.198 24.962-24.962 24.962H74.009c-13.764 0-24.962-11.198-24.962-24.962v-43.668c0-13.764 11.198-24.962 24.962-24.962h55.618c13.764 0 24.962 11.198 24.962 24.962v43.668zm81.189 121.706h-74.142v-29.955h74.142zm114.584 0h-74.142v-29.955h74.142zm114.583 0h-74.142v-29.955h74.142zM402.509 72.766 338.517 8.774c-11.698-11.698-30.664-11.698-42.363 0L137.486 167.442h175.756zM400.669 167.442l46.839-49.677L423.7 93.957l-69.288 73.485zM481.659 167.442c6.434 0 12.63 1.032 18.444 2.918l-31.404-31.404-26.859 28.487h39.819z" fill="#508dc3" opacity="1" data-original="#000000" class=""></path></g></svg>