<svg xmlns="http://www.w3.org/2000/svg" version="1.1" xmlns:xlink="http://www.w3.org/1999/xlink" width="512" height="512" x="0" y="0" viewBox="0 0 100 100" style="enable-background:new 0 0 512 512" xml:space="preserve" class=""><g><path d="m94.91 83.025-18.3-18.3c4.159-6.323 6.488-13.81 6.488-21.963C83.098 20.468 64.963 2.5 42.835 2.5S2.573 20.635 2.573 42.762c0 22.295 18.134 40.43 40.262 40.43 8.153 0 15.64-2.33 21.962-6.489l18.301 18.301c1.664 1.664 3.827 2.496 5.99 2.496s4.325-.832 5.989-2.496c3.161-3.494 3.161-8.818-.166-11.979zM42.836 66.221c-12.977 0-23.458-10.481-23.458-23.459 0-12.977 10.481-23.458 23.458-23.458s23.46 10.481 23.46 23.458c0 12.978-10.482 23.46-23.46 23.46z" fill="#a890cf" opacity="1" data-original="#000000"></path></g></svg>