<svg xmlns="http://www.w3.org/2000/svg" version="1.1" xmlns:xlink="http://www.w3.org/1999/xlink" width="512" height="512" x="0" y="0" viewBox="0 0 24 24" style="enable-background:new 0 0 512 512" xml:space="preserve" class=""><g transform="matrix(1.1500000000000004,0,0,1.1500000000000004,-1.7999998927116465,-1.8000000000000131)"><path d="M12 2.25A9.75 9.75 0 1 0 21.75 12 9.76 9.76 0 0 0 12 2.25zm3.53 13.28a.75.75 0 0 1-1.06 0l-3-3a.75.75 0 0 1-.22-.53V6a.75.75 0 0 1 1.5 0v5.69l2.78 2.78a.75.75 0 0 1 0 1.06z" fill="#538ec9" opacity="1" data-original="#000000" class=""></path></g></svg>