<svg xmlns="http://www.w3.org/2000/svg" version="1.1" xmlns:xlink="http://www.w3.org/1999/xlink" width="512" height="512" x="0" y="0" viewBox="0 0 500 500" style="enable-background:new 0 0 512 512" xml:space="preserve" class=""><g><clipPath id="a"><path d="M0 0h500v500H0z" fill="#e36464" opacity="1" data-original="#000000"></path></clipPath><g clip-path="url(#a)"><path fill="#e36464" fill-rule="evenodd" d="M274.033 8.363c-14.076-11.15-33.99-11.15-48.066 0l-32.124 25.444a38.71 38.71 0 0 1-25.668 8.328l-40.965-1.73c-17.952-.758-34.062 10.93-38.887 28.213l-11.011 39.439a38.62 38.62 0 0 1-15.864 21.803l-34.16 22.645c-14.97 9.924-21.123 28.835-14.854 45.65l14.307 38.37a38.566 38.566 0 0 1 0 26.95l-14.307 38.37c-6.27 16.815-.116 35.726 14.854 45.65l34.16 22.645a38.62 38.62 0 0 1 15.864 21.803l11.01 39.439c4.826 17.283 20.936 28.971 38.888 28.213l40.965-1.73a38.71 38.71 0 0 1 25.668 8.328l32.124 25.444c14.076 11.151 33.99 11.151 48.066 0l32.124-25.444a38.71 38.71 0 0 1 25.668-8.328l40.965 1.73c17.952.758 34.062-10.93 38.887-28.213l11.011-39.439a38.624 38.624 0 0 1 15.864-21.803l34.16-22.645c14.97-9.924 21.123-28.835 14.854-45.65l-14.307-38.37a38.565 38.565 0 0 1 0-26.95l14.307-38.37c6.269-16.815.116-35.726-14.854-45.65l-34.16-22.645a38.624 38.624 0 0 1-15.864-21.803l-11.011-39.44c-4.825-17.282-20.935-28.97-38.887-28.212l-40.965 1.73a38.71 38.71 0 0 1-25.668-8.328zm-59.905 160.51c-12.497-12.497-32.758-12.497-45.255 0-12.496 12.497-12.496 32.758 0 45.255l35.373 35.372-35.373 35.372c-12.496 12.497-12.496 32.758 0 45.255 12.497 12.497 32.758 12.497 45.255 0l35.372-35.372 35.373 35.372c12.497 12.497 32.758 12.497 45.255 0 12.496-12.497 12.496-32.758 0-45.255L294.755 249.5l35.373-35.372c12.496-12.497 12.496-32.758 0-45.255-12.497-12.497-32.758-12.497-45.255 0L249.5 204.245z" clip-rule="evenodd" opacity="1" data-original="#000000"></path></g></g></svg>