<svg xmlns="http://www.w3.org/2000/svg" version="1.1" xmlns:xlink="http://www.w3.org/1999/xlink" width="512" height="512" x="0" y="0" viewBox="0 0 24 24" style="enable-background:new 0 0 512 512" xml:space="preserve" class=""><g><path d="M12 1a11 11 0 1 0 11 11A11.013 11.013 0 0 0 12 1zm0 20a9 9 0 1 1 9-9 9.01 9.01 0 0 1-9 9z" fill="#c789ac" opacity="1" data-original="#000000" class=""></path><path d="m16.324 8.763-5.294 4.853-2.323-2.323a1 1 0 1 0-1.414 1.414l3 3a1 1 0 0 0 1.383.03l6-5.5a1 1 0 1 0-1.352-1.474z" fill="#c789ac" opacity="1" data-original="#000000" class=""></path></g></svg>