<svg xmlns="http://www.w3.org/2000/svg" version="1.1" xmlns:xlink="http://www.w3.org/1999/xlink" width="512" height="512" x="0" y="0" viewBox="0 0 24 24" style="enable-background:new 0 0 512 512" xml:space="preserve" class=""><g><path fill="#a890cf" fill-rule="evenodd" d="M1 3.22a2.22 2.22 0 0 1 3.19-1.996l17.348 8.44a2.599 2.599 0 0 1 0 4.673L4.19 22.777A2.22 2.22 0 0 1 1 20.78c0-.193-.013-.388.044-.575l2-6.5a1 1 0 0 1 .713-.676L7.877 12l-4.12-1.03a1 1 0 0 1-.713-.676l-2-6.5C.987 3.607 1 3.412 1 3.22zM3.22 3a.22.22 0 0 0-.22.22v.13l1.79 5.817 7.453 1.863a1 1 0 0 1 0 1.94L4.79 14.833 3 20.65v.13a.22.22 0 0 0 .315.198l17.348-8.44a.599.599 0 0 0 0-1.076L3.315 3.022A.22.22 0 0 0 3.219 3z" clip-rule="evenodd" opacity="1" data-original="#000000" class=""></path></g></svg>