<svg xmlns="http://www.w3.org/2000/svg" version="1.1" xmlns:xlink="http://www.w3.org/1999/xlink" width="512" height="512" x="0" y="0" viewBox="0 0 32 32" style="enable-background:new 0 0 512 512" xml:space="preserve" class=""><g><g data-name="62 - login"><path d="M25.81 3H12.08c-1.79 0-3.19 1.69-3.19 3.84v1.31a1.23 1.23 0 1 0 2.45 0V6.84c0-.83.44-1.39.74-1.39h13.73c.29 0 .74.56.74 1.39v18.32c0 .83-.45 1.39-.74 1.39H12.08c-.3 0-.74-.56-.74-1.39v-1.31a1.23 1.23 0 1 0-2.45 0v1.31c0 2.15 1.4 3.84 3.19 3.84h13.73C27.6 29 29 27.31 29 25.16V6.84C29 4.69 27.6 3 25.81 3z" fill="#efae24" opacity="1" data-original="#000000" class=""></path><path d="M11.21 19.06a1.22 1.22 0 1 0 1.73 1.73l3.93-3.92a1.23 1.23 0 0 0 0-1.74l-3.93-3.92a1.22 1.22 0 1 0-1.73 1.73L13 14.77H4.23a1.23 1.23 0 0 0 0 2.46H13zM21.15 18.94v-5.88a1.23 1.23 0 1 0-2.45 0v5.88a1.23 1.23 0 1 0 2.45 0z" fill="#efae24" opacity="1" data-original="#000000" class=""></path></g></g></svg>