<svg xmlns="http://www.w3.org/2000/svg" version="1.1" xmlns:xlink="http://www.w3.org/1999/xlink" width="512" height="512" x="0" y="0" viewBox="0 0 24 24" style="enable-background:new 0 0 512 512" xml:space="preserve" fill-rule="evenodd" class=""><g><path d="M14.51 22.75H4.25c-.729 0-1.429-.29-1.945-.805A2.755 2.755 0 0 1 1.5 20V4c0-.729.29-1.429.805-1.945A2.755 2.755 0 0 1 4.25 1.25h9.558c.493 0 .963.208 1.295.573l4.442 4.886c.293.323.455.742.455 1.178v4.821A5.752 5.752 0 0 0 12 18c0 1.972.995 3.714 2.51 4.75zm-9.26-13h5a.75.75 0 0 0 0-1.5h-5a.75.75 0 0 0 0 1.5zm0 4h7a.75.75 0 0 0 0-1.5h-7a.75.75 0 0 0 0 1.5zm8.5-11.147V7a.997.997 0 0 0 1 1h3.922a.992.992 0 0 0-.182-.286l-4.442-4.887a1.029 1.029 0 0 0-.298-.224zM5.25 17.75h5a.75.75 0 0 0 0-1.5h-5a.75.75 0 0 0 0 1.5z" fill="#e36464" opacity="1" data-original="#000000" class=""></path><path d="M17.75 13.25c2.622 0 4.75 2.128 4.75 4.75s-2.128 4.75-4.75 4.75S13 20.622 13 18s2.128-4.75 4.75-4.75zM16.689 18l-.719.72a.749.749 0 1 0 1.06 1.06l.72-.719.72.719a.749.749 0 1 0 1.06-1.06l-.719-.72.719-.72a.749.749 0 1 0-1.06-1.06l-.72.719-.72-.719a.749.749 0 1 0-1.06 1.06z" fill="#e36464" opacity="1" data-original="#000000" class=""></path></g></svg>