<?xml version="1.0" encoding="utf-8"?>
<!-- Generator: Adobe Illustrator 24.2.3, SVG Export Plug-In . SVG Version: 6.00 Build 0)  -->
<svg version="1.1" id="Layer_2_1_" xmlns="http://www.w3.org/2000/svg" xmlns:xlink="http://www.w3.org/1999/xlink" x="0px" y="0px"
	 width="128px" height="128px" viewBox="0 0 128 128" style="enable-background:new 0 0 128 128;" xml:space="preserve">
<style type="text/css">
	.st0{fill:#F0AE8D;}
	.st1{fill:#F09264;}
	.st2{fill:#F07E46;}
</style>
<path class="st0" d="M128,65.3c0,18.9-8.2,35.8-21.1,47.4l0,0c-2.7,0.9-5.3,1.1-8.2,0.5c-1.5-0.4-14.7-4.3-16.7-4.7
	c-3.9-0.9-6-2.1-10.4,0.5c-7.8,5-10.5,7.1-20.7,14.4c-1.8,1.2-3.4,2.3-5,3.4c-5.1-1.5-10-3.6-14.4-6.3c8.7-4,19.1-11.7,25.7-17.2
	c10.3-8.5,18.9-16.9,28.9-28.3c6.6-7.2,15.1-10.5,24.4-12.7c7.5-1.7,13.8-2.6,17.3-2.8C127.9,61.4,128,63.3,128,65.3z"/>
<path class="st1" d="M126.3,50.6c-3.4,0.5-7.2,0.9-10.2,1.4c-10.2,1.4-20.2,3.9-28.8,9.9c-4.3,3-8,7-11.7,10.8
	C62,86.4,48.5,99,32,109.3c-3.7,2.3-7.1,4-9.1,4.9C8.8,102.5,0,84.9,0,65.3c0-0.9,0-1.7,0.1-2.5c2.8,0.5,6.2,1.1,8.3,1.5
	c24.8,4.7,47.3-2.5,66.2-18.7c4.5-3.8,9.2-7.3,13.4-11.4c8.5-8.3,17.8-12.6,21.3-14C117.6,28.4,123.5,38.8,126.3,50.6z"/>
<path class="st2" d="M103.2,14.6c-1.3,0.6-2.7,1.2-4,1.8c-9.6,4.4-17.4,11.4-25,18.3c-8.7,7.8-18.1,14.3-29.3,18
	C30.6,57.5,20.4,57.2,1.1,53C6.8,23.5,32.8,1.2,64,1.2C78.8,1.2,92.4,6.3,103.2,14.6z"/>
<path class="st2" d="M1.1,53C6.8,23.5,32.8,1.2,64,1.2c14.8,0,28.4,5,39.2,13.4c-1.3,0.6-2.7,1.2-4,1.8c-9.6,4.4-17.4,11.4-25,18.3
	c-8.7,7.8-18.1,14.3-29.3,18C30.6,57.6,20.4,57.2,1.1,53z"/>
<path class="st1" d="M31.9,109.2c-3.7,2.3-7.1,4-9.1,4.9C8.8,102.5,0,84.9,0,65.3c0-0.9,0-1.7,0.1-2.5c2.8,0.5,6.2,1.1,8.3,1.5
	c24.8,4.7,47.3-2.5,66.2-18.7c4.5-3.8,9.2-7.3,13.4-11.4c8.5-8.3,17.8-12.6,21.3-14c8.3,8.3,14.2,18.8,17,30.5
	c-3.4,0.5-7.2,0.9-10.2,1.4C105.9,53.5,95.9,56,87.4,62c-4.3,3-8,7-11.7,10.8C61.9,86.4,48.5,99,31.9,109.2z"/>
<path class="st0" d="M128,65.3c0,18.9-8.2,35.8-21.1,47.4l0,0c-2.7,0.9-5.3,1.1-8.2,0.5c-1.5-0.4-14.7-4.3-16.7-4.7
	c-3.9-0.9-6-2.1-10.4,0.5c-7.8,5-10.5,7.1-20.7,14.4c-1.8,1.2-3.4,2.3-5,3.4c-5.1-1.5-10-3.6-14.4-6.3c8.7-4,19.1-11.7,25.7-17.2
	c10.3-8.5,18.9-16.9,28.9-28.3c6.6-7.2,15.1-10.5,24.4-12.7c7.5-1.7,13.8-2.6,17.3-2.8C127.9,61.4,128,63.3,128,65.3z"/>
</svg>
