<svg xmlns="http://www.w3.org/2000/svg" version="1.1" xmlns:xlink="http://www.w3.org/1999/xlink" width="512" height="512" x="0" y="0" viewBox="0 0 480 480" style="enable-background:new 0 0 512 512" xml:space="preserve" class=""><g><path d="M155.2 241.7c66.7 0 120.8-54.1 120.8-120.8S221.9 0 155.2 0 34.4 54.1 34.4 120.8s54.1 120.9 120.8 120.9zM113 168.6c1.1-4 2.2-7.9 3.4-11.9 1.4-4.6 2.7-5.1 6.9-2.9 7.2 3.7 14.8 5.8 22.8 6.8 5.1.6 10.2.1 14.9-2 8.9-3.9 10.3-14.2 2.8-20.4-2.6-2.1-5.5-3.7-8.5-5-7.8-3.4-15.9-6-23.3-10.4-11.9-7.1-19.5-17-18.6-31.5 1-16.4 10.3-26.7 25.3-32.1 6.2-2.3 6.2-2.2 6.3-8.7v-6.6c.1-4.9 1-5.7 5.8-5.9h4.5c10.4 0 10.4 0 10.4 10.4 0 7.3 0 7.4 7.3 8.5 5.6.9 10.9 2.5 16.1 4.8C192 63 193 65 192.2 68c-1.3 4.5-2.5 9-4 13.4-1.4 4.2-2.7 4.8-6.7 2.9-8.1-3.9-16.6-5.6-25.6-5.1-2.4.1-4.6.4-6.8 1.4-7.7 3.4-9 11.9-2.4 17.2 3.3 2.7 7.1 4.6 11.1 6.2 6.8 2.8 13.7 5.6 20.3 9.2 20.7 11.5 26.3 37.5 11.7 55.2-5.3 6.4-12.1 10.7-20.2 12.9-3.5 1-5.1 2.8-4.9 6.4.2 3.6 0 7.1 0 10.7 0 3.2-1.6 4.9-4.8 5-3.8.1-7.7.1-11.5 0-3.4-.1-5-2-5-5.3 0-2.6 0-5.2-.1-7.8-.1-5.7-.2-6-5.8-6.9-7.1-1.1-14-2.7-20.5-5.9-4.9-2.3-5.4-3.6-4-8.9z" fill="#c490cf" opacity="1" data-original="#000000" class=""></path><path d="M426.2 251.8h-14.1c-9.3-28.5-27.5-53.8-51.8-73.4 0-.9-.2-1.9-.4-2.8-5.1-17.9 1.2-34.2 8.5-45.9 5.1-8.2-1.5-18.7-11.1-17.5-21.5 2.7-36.3 10.6-46.5 19.5-7 6.1-12 14.3-14.2 23.4-15.4 63.8-72.9 111.3-141.4 111.3-33.3 0-63.9-11.2-88.4-30-8.5 18.4-13.1 38.5-13.1 59.6 0 11.4 1.4 22.5 4 33.2 0 0 0 .2.1.5 2.7 11.1 6.8 21.8 12 31.9 6.9 14.9 16.9 32.3 30.7 46.4 19.9 20.5 23.3 45.9 23.8 56.9V470.3c.4 5.4 4.9 9.7 10.4 9.7h63.2c5.7 0 10.4-4.6 10.4-10.4V454c9.2 1.2 18.6 1.9 28.1 1.9 7.5 0 14.8-.4 22.1-1.2v14.9c0 5.7 4.6 10.4 10.4 10.4h63.4c5.7 0 10.4-4.6 10.4-10.4V454c.1-5.2 1.9-25.9 21.5-43.6l2.1-1.8c.2-.2.4-.3.6-.5 21.8-19.4 37.9-43.6 46.2-70.6h13.3c10.6 0 19.2-8.6 19.2-19.2V271c-.2-10.6-8.8-19.2-19.4-19.2zm-79.1 3.4c-8.7 0-15.7-7-15.7-15.7s7-15.7 15.7-15.7 15.7 7 15.7 15.7-7 15.7-15.7 15.7z" fill="#c490cf" opacity="1" data-original="#000000" class=""></path></g></svg>